<?xml version="1.0" encoding="UTF-8" standalone="no"?>
<!DOCTYPE svg PUBLIC "-//W3C//DTD SVG 1.1//EN"
 "http://www.w3.org/Graphics/SVG/1.1/DTD/svg11.dtd">
<!-- Generated by graphviz version 2.43.0 (0)
 -->
<!-- Title: Ogre::Resource Pages: 1 -->
<svg width="752pt" height="294pt"
 viewBox="0.00 0.00 752.00 294.00" xmlns="http://www.w3.org/2000/svg" xmlns:xlink="http://www.w3.org/1999/xlink">
<g id="graph0" class="graph" transform="scale(1 1) rotate(0) translate(4 290)">
<title>Ogre::Resource</title>
<!-- Node1 -->
<g id="node1" class="node">
<title>Node1</title>
<g id="a_node1"><a xlink:title="Abstract class representing a loadable resource.">
<polygon fill="#bfbfbf" stroke="black" points="154,-133.5 154,-152.5 245,-152.5 245,-133.5 154,-133.5"/>
<text text-anchor="middle" x="199.5" y="-140.5" font-family="Helvetica,sans-Serif" font-size="10.00">Ogre::Resource</text>
</a>
</g>
</g>
<!-- Node4 -->
<g id="node4" class="node">
<title>Node4</title>
<g id="a_node4"><a xlink:href="class_ogre_1_1_bsp_level.html" target="_top" xlink:title="Holds all the data associated with a Binary Space Parition (BSP) based indoor level.">
<polygon fill="none" stroke="black" points="289.5,-266.5 289.5,-285.5 379.5,-285.5 379.5,-266.5 289.5,-266.5"/>
<text text-anchor="middle" x="334.5" y="-273.5" font-family="Helvetica,sans-Serif" font-size="10.00">Ogre::BspLevel</text>
</a>
</g>
</g>
<!-- Node1&#45;&gt;Node4 -->
<g id="edge3" class="edge">
<title>Node1&#45;&gt;Node4</title>
<path fill="none" stroke="midnightblue" d="M209.28,-161.96C221.82,-187.06 247.14,-231.17 281,-257 286.01,-260.82 291.86,-263.93 297.8,-266.43"/>
<polygon fill="midnightblue" stroke="midnightblue" points="212.34,-160.24 204.84,-152.76 206.04,-163.29 212.34,-160.24"/>
</g>
<!-- Node5 -->
<g id="node5" class="node">
<title>Node5</title>
<g id="a_node5"><a xlink:href="class_ogre_1_1_compositor.html" target="_top" xlink:title="Class representing a Compositor object.">
<polygon fill="none" stroke="black" points="283.5,-228.5 283.5,-247.5 385.5,-247.5 385.5,-228.5 283.5,-228.5"/>
<text text-anchor="middle" x="334.5" y="-235.5" font-family="Helvetica,sans-Serif" font-size="10.00">Ogre::Compositor</text>
</a>
</g>
</g>
<!-- Node1&#45;&gt;Node5 -->
<g id="edge4" class="edge">
<title>Node1&#45;&gt;Node5</title>
<path fill="none" stroke="midnightblue" d="M215.38,-160.76C230.42,-177.73 255.08,-203.04 281,-219 287.03,-222.71 293.88,-225.85 300.61,-228.44"/>
<polygon fill="midnightblue" stroke="midnightblue" points="217.63,-158.01 208.44,-152.73 212.33,-162.59 217.63,-158.01"/>
</g>
<!-- Node6 -->
<g id="node6" class="node">
<title>Node6</title>
<g id="a_node6"><a xlink:href="class_ogre_1_1_font.html" target="_top" xlink:title="Class representing a font in the system.">
<polygon fill="none" stroke="black" points="301,-190.5 301,-209.5 368,-209.5 368,-190.5 301,-190.5"/>
<text text-anchor="middle" x="334.5" y="-197.5" font-family="Helvetica,sans-Serif" font-size="10.00">Ogre::Font</text>
</a>
</g>
</g>
<!-- Node1&#45;&gt;Node6 -->
<g id="edge5" class="edge">
<title>Node1&#45;&gt;Node6</title>
<path fill="none" stroke="midnightblue" d="M228.44,-156.98C243.8,-164.46 263.27,-173.63 281,-181 288.88,-184.28 297.54,-187.54 305.52,-190.42"/>
<polygon fill="midnightblue" stroke="midnightblue" points="229.98,-153.84 219.47,-152.57 226.9,-160.12 229.98,-153.84"/>
</g>
<!-- Node7 -->
<g id="node7" class="node">
<title>Node7</title>
<g id="a_node7"><a xlink:href="class_ogre_1_1_gpu_program.html" target="_top" xlink:title="Defines a program which runs on the GPU such as a vertex or fragment program.">
<polygon fill="none" stroke="black" points="281,-152.5 281,-171.5 388,-171.5 388,-152.5 281,-152.5"/>
<text text-anchor="middle" x="334.5" y="-159.5" font-family="Helvetica,sans-Serif" font-size="10.00">Ogre::GpuProgram</text>
</a>
</g>
</g>
<!-- Node1&#45;&gt;Node7 -->
<g id="edge6" class="edge">
<title>Node1&#45;&gt;Node7</title>
<path fill="none" stroke="midnightblue" d="M255.31,-150.83C263.77,-152.04 272.49,-153.28 280.91,-154.49"/>
<polygon fill="midnightblue" stroke="midnightblue" points="255.55,-147.33 245.16,-149.38 254.56,-154.26 255.55,-147.33"/>
</g>
<!-- Node11 -->
<g id="node11" class="node">
<title>Node11</title>
<g id="a_node11"><a xlink:href="class_ogre_1_1_material.html" target="_top" xlink:title="Class encapsulates rendering properties of an object.">
<polygon fill="none" stroke="black" points="291.5,-114.5 291.5,-133.5 377.5,-133.5 377.5,-114.5 291.5,-114.5"/>
<text text-anchor="middle" x="334.5" y="-121.5" font-family="Helvetica,sans-Serif" font-size="10.00">Ogre::Material</text>
</a>
</g>
</g>
<!-- Node1&#45;&gt;Node11 -->
<g id="edge10" class="edge">
<title>Node1&#45;&gt;Node11</title>
<path fill="none" stroke="midnightblue" d="M255.16,-135.19C267.27,-133.46 279.92,-131.65 291.43,-130.01"/>
<polygon fill="midnightblue" stroke="midnightblue" points="254.56,-131.74 245.16,-136.62 255.55,-138.67 254.56,-131.74"/>
</g>
<!-- Node12 -->
<g id="node12" class="node">
<title>Node12</title>
<g id="a_node12"><a xlink:href="class_ogre_1_1_mesh.html" target="_top" xlink:title="Resource holding data about 3D mesh.">
<polygon fill="none" stroke="black" points="298.5,-76.5 298.5,-95.5 370.5,-95.5 370.5,-76.5 298.5,-76.5"/>
<text text-anchor="middle" x="334.5" y="-83.5" font-family="Helvetica,sans-Serif" font-size="10.00">Ogre::Mesh</text>
</a>
</g>
</g>
<!-- Node1&#45;&gt;Node12 -->
<g id="edge11" class="edge">
<title>Node1&#45;&gt;Node12</title>
<path fill="none" stroke="midnightblue" d="M228.44,-129.02C243.8,-121.54 263.27,-112.37 281,-105 288.88,-101.72 297.54,-98.46 305.52,-95.58"/>
<polygon fill="midnightblue" stroke="midnightblue" points="226.9,-125.88 219.47,-133.43 229.98,-132.16 226.9,-125.88"/>
</g>
<!-- Node14 -->
<g id="node14" class="node">
<title>Node14</title>
<g id="a_node14"><a xlink:href="class_ogre_1_1_skeleton.html" target="_top" xlink:title="A collection of Bone objects used to animate a skinned mesh.">
<polygon fill="none" stroke="black" points="290.5,-38.5 290.5,-57.5 378.5,-57.5 378.5,-38.5 290.5,-38.5"/>
<text text-anchor="middle" x="334.5" y="-45.5" font-family="Helvetica,sans-Serif" font-size="10.00">Ogre::Skeleton</text>
</a>
</g>
</g>
<!-- Node1&#45;&gt;Node14 -->
<g id="edge13" class="edge">
<title>Node1&#45;&gt;Node14</title>
<path fill="none" stroke="midnightblue" d="M215.38,-125.24C230.42,-108.27 255.08,-82.96 281,-67 287.03,-63.29 293.88,-60.15 300.61,-57.56"/>
<polygon fill="midnightblue" stroke="midnightblue" points="212.33,-123.41 208.44,-133.27 217.63,-127.99 212.33,-123.41"/>
</g>
<!-- Node16 -->
<g id="node16" class="node">
<title>Node16</title>
<g id="a_node16"><a xlink:href="class_ogre_1_1_texture.html" target="_top" xlink:title="Abstract class representing a Texture resource.">
<polygon fill="none" stroke="black" points="293.5,-0.5 293.5,-19.5 375.5,-19.5 375.5,-0.5 293.5,-0.5"/>
<text text-anchor="middle" x="334.5" y="-7.5" font-family="Helvetica,sans-Serif" font-size="10.00">Ogre::Texture</text>
</a>
</g>
</g>
<!-- Node1&#45;&gt;Node16 -->
<g id="edge15" class="edge">
<title>Node1&#45;&gt;Node16</title>
<path fill="none" stroke="midnightblue" d="M209.28,-124.04C221.82,-98.94 247.14,-54.83 281,-29 286.01,-25.18 291.86,-22.07 297.8,-19.57"/>
<polygon fill="midnightblue" stroke="midnightblue" points="206.04,-122.71 204.84,-133.24 212.34,-125.76 206.04,-122.71"/>
</g>
<!-- Node2 -->
<g id="node2" class="node">
<title>Node2</title>
<g id="a_node2"><a xlink:href="class_ogre_1_1_string_interface.html" target="_top" xlink:title="Class defining the common interface which classes can use to present a reflection&#45;style,...">
<polygon fill="none" stroke="black" points="0,-152.5 0,-171.5 118,-171.5 118,-152.5 0,-152.5"/>
<text text-anchor="middle" x="59" y="-159.5" font-family="Helvetica,sans-Serif" font-size="10.00">Ogre::StringInterface</text>
</a>
</g>
</g>
<!-- Node2&#45;&gt;Node1 -->
<g id="edge1" class="edge">
<title>Node2&#45;&gt;Node1</title>
<path fill="none" stroke="midnightblue" d="M128.39,-152.62C136.98,-151.44 145.6,-150.26 153.7,-149.15"/>
<polygon fill="midnightblue" stroke="midnightblue" points="127.77,-149.17 118.34,-154 128.72,-156.11 127.77,-149.17"/>
</g>
<!-- Node3 -->
<g id="node3" class="node">
<title>Node3</title>
<g id="a_node3"><a xlink:title=" ">
<polygon fill="none" stroke="#bfbfbf" points="16,-114.5 16,-133.5 102,-133.5 102,-114.5 16,-114.5"/>
<text text-anchor="middle" x="59" y="-121.5" font-family="Helvetica,sans-Serif" font-size="10.00">ResourceAlloc</text>
</a>
</g>
</g>
<!-- Node3&#45;&gt;Node1 -->
<g id="edge2" class="edge">
<title>Node3&#45;&gt;Node1</title>
<path fill="none" stroke="midnightblue" d="M112.45,-131.2C125.99,-133.05 140.45,-135.04 153.57,-136.84"/>
<polygon fill="midnightblue" stroke="midnightblue" points="112.69,-127.7 102.31,-129.8 111.74,-134.63 112.69,-127.7"/>
</g>
<!-- Node8 -->
<g id="node8" class="node">
<title>Node8</title>
<g id="a_node8"><a xlink:href="class_ogre_1_1_high_level_gpu_program.html" target="_top" xlink:title="Abstract base class representing a high&#45;level program (a vertex or fragment program).">
<polygon fill="none" stroke="black" points="424,-152.5 424,-171.5 579,-171.5 579,-152.5 424,-152.5"/>
<text text-anchor="middle" x="501.5" y="-159.5" font-family="Helvetica,sans-Serif" font-size="10.00">Ogre::HighLevelGpuProgram</text>
</a>
</g>
</g>
<!-- Node7&#45;&gt;Node8 -->
<g id="edge7" class="edge">
<title>Node7&#45;&gt;Node8</title>
<path fill="none" stroke="midnightblue" d="M398.25,-162C406.66,-162 415.37,-162 423.98,-162"/>
<polygon fill="midnightblue" stroke="midnightblue" points="398.16,-158.5 388.16,-162 398.16,-165.5 398.16,-158.5"/>
</g>
<!-- Node9 -->
<g id="node9" class="node">
<title>Node9</title>
<g id="a_node9"><a xlink:href="class_ogre_1_1_cg_program.html" target="_top" xlink:title="Specialisation of HighLevelGpuProgram to provide support for nVidia&#39;s CG language.">
<polygon fill="none" stroke="black" points="629.5,-171.5 629.5,-190.5 729.5,-190.5 729.5,-171.5 629.5,-171.5"/>
<text text-anchor="middle" x="679.5" y="-178.5" font-family="Helvetica,sans-Serif" font-size="10.00">Ogre::CgProgram</text>
</a>
</g>
</g>
<!-- Node8&#45;&gt;Node9 -->
<g id="edge8" class="edge">
<title>Node8&#45;&gt;Node9</title>
<path fill="none" stroke="midnightblue" d="M589.22,-171.36C603.03,-172.85 616.89,-174.35 629.43,-175.7"/>
<polygon fill="midnightblue" stroke="midnightblue" points="589.5,-167.87 579.18,-170.28 588.75,-174.83 589.5,-167.87"/>
</g>
<!-- Node10 -->
<g id="node10" class="node">
<title>Node10</title>
<g id="a_node10"><a xlink:href="class_ogre_1_1_g_l_s_lang_program.html" target="_top" xlink:title="Specialisation of HighLevelGpuProgram to provide support for the GLSLang compiler by Khronos.">
<polygon fill="none" stroke="black" points="615,-133.5 615,-152.5 744,-152.5 744,-133.5 615,-133.5"/>
<text text-anchor="middle" x="679.5" y="-140.5" font-family="Helvetica,sans-Serif" font-size="10.00">Ogre::GLSLangProgram</text>
</a>
</g>
</g>
<!-- Node8&#45;&gt;Node10 -->
<g id="edge9" class="edge">
<title>Node8&#45;&gt;Node10</title>
<path fill="none" stroke="midnightblue" d="M589.31,-152.63C597.97,-151.69 606.63,-150.76 614.98,-149.86"/>
<polygon fill="midnightblue" stroke="midnightblue" points="588.75,-149.17 579.18,-153.72 589.5,-156.13 588.75,-149.17"/>
</g>
<!-- Node13 -->
<g id="node13" class="node">
<title>Node13</title>
<g id="a_node13"><a xlink:href="class_ogre_1_1_patch_mesh.html" target="_top" xlink:title="Patch specialisation of Mesh.">
<polygon fill="none" stroke="black" points="452,-76.5 452,-95.5 551,-95.5 551,-76.5 452,-76.5"/>
<text text-anchor="middle" x="501.5" y="-83.5" font-family="Helvetica,sans-Serif" font-size="10.00">Ogre::PatchMesh</text>
</a>
</g>
</g>
<!-- Node12&#45;&gt;Node13 -->
<g id="edge12" class="edge">
<title>Node12&#45;&gt;Node13</title>
<path fill="none" stroke="midnightblue" d="M380.97,-86C402.93,-86 429.32,-86 451.71,-86"/>
<polygon fill="midnightblue" stroke="midnightblue" points="380.9,-82.5 370.9,-86 380.9,-89.5 380.9,-82.5"/>
</g>
<!-- Node15 -->
<g id="node15" class="node">
<title>Node15</title>
<g id="a_node15"><a xlink:href="class_ogre_1_1_skeleton_instance.html" target="_top" xlink:title="A SkeletonInstance is a single instance of a Skeleton used by a world object.">
<polygon fill="none" stroke="black" points="437,-38.5 437,-57.5 566,-57.5 566,-38.5 437,-38.5"/>
<text text-anchor="middle" x="501.5" y="-45.5" font-family="Helvetica,sans-Serif" font-size="10.00">Ogre::SkeletonInstance</text>
</a>
</g>
</g>
<!-- Node14&#45;&gt;Node15 -->
<g id="edge14" class="edge">
<title>Node14&#45;&gt;Node15</title>
<path fill="none" stroke="midnightblue" d="M389.14,-48C404.4,-48 421.16,-48 436.95,-48"/>
<polygon fill="midnightblue" stroke="midnightblue" points="388.85,-44.5 378.85,-48 388.85,-51.5 388.85,-44.5"/>
</g>
</g>
</svg>
