<?xml version="1.0" encoding="UTF-8" standalone="no"?>
<!DOCTYPE svg PUBLIC "-//W3C//DTD SVG 1.1//EN"
 "http://www.w3.org/Graphics/SVG/1.1/DTD/svg11.dtd">
<!-- Generated by graphviz version 2.43.0 (0)
 -->
<!-- Title: Ogre::RenderSystem Pages: 1 -->
<svg width="440pt" height="180pt"
 viewBox="0.00 0.00 440.00 180.00" xmlns="http://www.w3.org/2000/svg" xmlns:xlink="http://www.w3.org/1999/xlink">
<g id="graph0" class="graph" transform="scale(1 1) rotate(0) translate(4 176)">
<title>Ogre::RenderSystem</title>
<!-- Node1 -->
<g id="node1" class="node">
<title>Node1</title>
<g id="a_node1"><a xlink:title="Defines the functionality of a 3D API.">
<polygon fill="#bfbfbf" stroke="black" points="128,-76.5 128,-95.5 245,-95.5 245,-76.5 128,-76.5"/>
<text text-anchor="middle" x="186.5" y="-83.5" font-family="Helvetica,sans-Serif" font-size="10.00">Ogre::RenderSystem</text>
</a>
</g>
</g>
<!-- Node3 -->
<g id="node3" class="node">
<title>Node3</title>
<g id="a_node3"><a xlink:href="class_ogre_1_1_d3_d11_render_system.html" target="_top" xlink:title="Implementation of DirectX11 as a rendering system.">
<polygon fill="none" stroke="black" points="281.5,-152.5 281.5,-171.5 431.5,-171.5 431.5,-152.5 281.5,-152.5"/>
<text text-anchor="middle" x="356.5" y="-159.5" font-family="Helvetica,sans-Serif" font-size="10.00">Ogre::D3D11RenderSystem</text>
</a>
</g>
</g>
<!-- Node1&#45;&gt;Node3 -->
<g id="edge2" class="edge">
<title>Node1&#45;&gt;Node3</title>
<path fill="none" stroke="midnightblue" d="M208.66,-101.43C226.99,-114.17 254.65,-131.9 281,-143 289.86,-146.73 299.63,-149.86 309.09,-152.44"/>
<polygon fill="midnightblue" stroke="midnightblue" points="210.64,-98.55 200.45,-95.63 206.59,-104.26 210.64,-98.55"/>
</g>
<!-- Node4 -->
<g id="node4" class="node">
<title>Node4</title>
<g id="a_node4"><a xlink:href="class_ogre_1_1_d3_d9_render_system.html" target="_top" xlink:title="Implementation of DirectX9 as a rendering system.">
<polygon fill="none" stroke="black" points="284.5,-114.5 284.5,-133.5 428.5,-133.5 428.5,-114.5 284.5,-114.5"/>
<text text-anchor="middle" x="356.5" y="-121.5" font-family="Helvetica,sans-Serif" font-size="10.00">Ogre::D3D9RenderSystem</text>
</a>
</g>
</g>
<!-- Node1&#45;&gt;Node4 -->
<g id="edge3" class="edge">
<title>Node1&#45;&gt;Node4</title>
<path fill="none" stroke="midnightblue" d="M239.78,-97.82C263.46,-103.18 291.09,-109.43 313.41,-114.48"/>
<polygon fill="midnightblue" stroke="midnightblue" points="240.42,-94.38 229.89,-95.59 238.87,-101.21 240.42,-94.38"/>
</g>
<!-- Node5 -->
<g id="node5" class="node">
<title>Node5</title>
<g id="a_node5"><a xlink:href="class_ogre_1_1_metal_render_system.html" target="_top" xlink:title=" ">
<polygon fill="none" stroke="black" points="284,-76.5 284,-95.5 429,-95.5 429,-76.5 284,-76.5"/>
<text text-anchor="middle" x="356.5" y="-83.5" font-family="Helvetica,sans-Serif" font-size="10.00">Ogre::MetalRenderSystem</text>
</a>
</g>
</g>
<!-- Node1&#45;&gt;Node5 -->
<g id="edge4" class="edge">
<title>Node1&#45;&gt;Node5</title>
<path fill="none" stroke="midnightblue" d="M255.38,-86C264.78,-86 274.46,-86 283.92,-86"/>
<polygon fill="midnightblue" stroke="midnightblue" points="255.32,-82.5 245.32,-86 255.32,-89.5 255.32,-82.5"/>
</g>
<!-- Node6 -->
<g id="node6" class="node">
<title>Node6</title>
<g id="a_node6"><a xlink:href="class_ogre_1_1_tiny_render_system.html" target="_top" xlink:title="Software rasterizer Implementation as a rendering system.">
<polygon fill="none" stroke="black" points="288,-38.5 288,-57.5 425,-57.5 425,-38.5 288,-38.5"/>
<text text-anchor="middle" x="356.5" y="-45.5" font-family="Helvetica,sans-Serif" font-size="10.00">Ogre::TinyRenderSystem</text>
</a>
</g>
</g>
<!-- Node1&#45;&gt;Node6 -->
<g id="edge5" class="edge">
<title>Node1&#45;&gt;Node6</title>
<path fill="none" stroke="midnightblue" d="M239.78,-74.18C263.46,-68.82 291.09,-62.57 313.41,-57.52"/>
<polygon fill="midnightblue" stroke="midnightblue" points="238.87,-70.79 229.89,-76.41 240.42,-77.62 238.87,-70.79"/>
</g>
<!-- Node7 -->
<g id="node7" class="node">
<title>Node7</title>
<g id="a_node7"><a xlink:href="class_ogre_1_1_vulkan_render_system.html" target="_top" xlink:title=" ">
<polygon fill="none" stroke="black" points="281,-0.5 281,-19.5 432,-19.5 432,-0.5 281,-0.5"/>
<text text-anchor="middle" x="356.5" y="-7.5" font-family="Helvetica,sans-Serif" font-size="10.00">Ogre::VulkanRenderSystem</text>
</a>
</g>
</g>
<!-- Node1&#45;&gt;Node7 -->
<g id="edge6" class="edge">
<title>Node1&#45;&gt;Node7</title>
<path fill="none" stroke="midnightblue" d="M208.66,-70.57C226.99,-57.83 254.65,-40.1 281,-29 289.86,-25.27 299.63,-22.14 309.09,-19.56"/>
<polygon fill="midnightblue" stroke="midnightblue" points="206.59,-67.74 200.45,-76.37 210.64,-73.45 206.59,-67.74"/>
</g>
<!-- Node2 -->
<g id="node2" class="node">
<title>Node2</title>
<g id="a_node2"><a xlink:title=" ">
<polygon fill="none" stroke="#bfbfbf" points="0,-76.5 0,-95.5 92,-95.5 92,-76.5 0,-76.5"/>
<text text-anchor="middle" x="46" y="-83.5" font-family="Helvetica,sans-Serif" font-size="10.00">RenderSysAlloc</text>
</a>
</g>
</g>
<!-- Node2&#45;&gt;Node1 -->
<g id="edge1" class="edge">
<title>Node2&#45;&gt;Node1</title>
<path fill="none" stroke="midnightblue" d="M102.41,-86C110.8,-86 119.48,-86 127.92,-86"/>
<polygon fill="midnightblue" stroke="midnightblue" points="102.35,-82.5 92.35,-86 102.35,-89.5 102.35,-82.5"/>
</g>
</g>
</svg>
