<?xml version="1.0" encoding="UTF-8" standalone="no"?>
<!DOCTYPE svg PUBLIC "-//W3C//DTD SVG 1.1//EN"
 "http://www.w3.org/Graphics/SVG/1.1/DTD/svg11.dtd">
<!-- Generated by graphviz version 2.43.0 (0)
 -->
<!-- Title: Ogre::StringInterface Pages: 1 -->
<svg width="916pt" height="894pt"
 viewBox="0.00 0.00 916.00 893.50" xmlns="http://www.w3.org/2000/svg" xmlns:xlink="http://www.w3.org/1999/xlink">
<g id="graph0" class="graph" transform="scale(1 1) rotate(0) translate(4 889.5)">
<title>Ogre::StringInterface</title>
<!-- Node1 -->
<g id="node1" class="node">
<title>Node1</title>
<g id="a_node1"><a xlink:title="Class defining the common interface which classes can use to present a reflection&#45;style,...">
<polygon fill="#bfbfbf" stroke="black" points="0,-380.5 0,-399.5 118,-399.5 118,-380.5 0,-380.5"/>
<text text-anchor="middle" x="59" y="-387.5" font-family="Helvetica,sans-Serif" font-size="10.00">Ogre::StringInterface</text>
</a>
</g>
</g>
<!-- Node2 -->
<g id="node2" class="node">
<title>Node2</title>
<g id="a_node2"><a xlink:href="class_ogre_1_1_external_texture_source.html" target="_top" xlink:title="IMPORTANT: Plugins must override default dictionary name! Base class that texture plugins derive from...">
<polygon fill="none" stroke="black" points="158.5,-756.5 158.5,-775.5 313.5,-775.5 313.5,-756.5 158.5,-756.5"/>
<text text-anchor="middle" x="236" y="-763.5" font-family="Helvetica,sans-Serif" font-size="10.00">Ogre::ExternalTextureSource</text>
</a>
</g>
</g>
<!-- Node1&#45;&gt;Node2 -->
<g id="edge1" class="edge">
<title>Node1&#45;&gt;Node2</title>
<path fill="none" stroke="midnightblue" d="M62.53,-409.88C71.58,-477.75 104.4,-698.72 154,-747 157.93,-750.83 162.48,-753.94 167.38,-756.46"/>
<polygon fill="midnightblue" stroke="midnightblue" points="65.97,-409.17 61.2,-399.71 59.03,-410.07 65.97,-409.17"/>
</g>
<!-- Node3 -->
<g id="node3" class="node">
<title>Node3</title>
<g id="a_node3"><a xlink:href="class_ogre_1_1_overlay_element.html" target="_top" xlink:title="Abstract definition of a 2D element to be displayed in an Overlay.">
<polygon fill="none" stroke="black" points="173.5,-718.5 173.5,-737.5 298.5,-737.5 298.5,-718.5 173.5,-718.5"/>
<text text-anchor="middle" x="236" y="-725.5" font-family="Helvetica,sans-Serif" font-size="10.00">Ogre::OverlayElement</text>
</a>
</g>
</g>
<!-- Node1&#45;&gt;Node3 -->
<g id="edge2" class="edge">
<title>Node1&#45;&gt;Node3</title>
<path fill="none" stroke="midnightblue" d="M67.08,-409.09C81.51,-447.26 116.17,-535.29 154,-605 178.03,-649.27 213.04,-698.24 227.9,-718.47"/>
<polygon fill="midnightblue" stroke="midnightblue" points="70.35,-407.84 63.56,-399.7 63.8,-410.3 70.35,-407.84"/>
</g>
<!-- Node8 -->
<g id="node8" class="node">
<title>Node8</title>
<g id="a_node8"><a xlink:href="class_ogre_1_1_particle_affector.html" target="_top" xlink:title="Abstract class defining the interface to be implemented by particle affectors.">
<polygon fill="none" stroke="black" points="175.5,-576.5 175.5,-595.5 296.5,-595.5 296.5,-576.5 175.5,-576.5"/>
<text text-anchor="middle" x="236" y="-583.5" font-family="Helvetica,sans-Serif" font-size="10.00">Ogre::ParticleAffector</text>
</a>
</g>
</g>
<!-- Node1&#45;&gt;Node8 -->
<g id="edge7" class="edge">
<title>Node1&#45;&gt;Node8</title>
<path fill="none" stroke="midnightblue" d="M75.48,-407.33C111.18,-447.32 198.38,-544.99 226.27,-576.22"/>
<polygon fill="midnightblue" stroke="midnightblue" points="77.95,-404.85 68.68,-399.72 72.73,-409.51 77.95,-404.85"/>
</g>
<!-- Node19 -->
<g id="node19" class="node">
<title>Node19</title>
<g id="a_node19"><a xlink:href="class_ogre_1_1_particle_emitter.html" target="_top" xlink:title="Abstract class defining the interface to be implemented by particle emitters.">
<polygon fill="none" stroke="black" points="176.5,-380.5 176.5,-399.5 295.5,-399.5 295.5,-380.5 176.5,-380.5"/>
<text text-anchor="middle" x="236" y="-387.5" font-family="Helvetica,sans-Serif" font-size="10.00">Ogre::ParticleEmitter</text>
</a>
</g>
</g>
<!-- Node1&#45;&gt;Node19 -->
<g id="edge18" class="edge">
<title>Node1&#45;&gt;Node19</title>
<path fill="none" stroke="midnightblue" d="M128.52,-390C144.34,-390 161.03,-390 176.39,-390"/>
<polygon fill="midnightblue" stroke="midnightblue" points="128.27,-386.5 118.27,-390 128.27,-393.5 128.27,-386.5"/>
</g>
<!-- Node27 -->
<g id="node27" class="node">
<title>Node27</title>
<g id="a_node27"><a xlink:href="class_ogre_1_1_particle_system.html" target="_top" xlink:title="Class defining particle system based special effects.">
<polygon fill="none" stroke="black" points="176.5,-342.5 176.5,-361.5 295.5,-361.5 295.5,-342.5 176.5,-342.5"/>
<text text-anchor="middle" x="236" y="-349.5" font-family="Helvetica,sans-Serif" font-size="10.00">Ogre::ParticleSystem</text>
</a>
</g>
</g>
<!-- Node1&#45;&gt;Node27 -->
<g id="edge26" class="edge">
<title>Node1&#45;&gt;Node27</title>
<path fill="none" stroke="midnightblue" d="M114.12,-378.25C138.87,-372.87 167.8,-366.59 191.16,-361.52"/>
<polygon fill="midnightblue" stroke="midnightblue" points="113.19,-374.87 104.16,-380.41 114.67,-381.71 113.19,-374.87"/>
</g>
<!-- Node28 -->
<g id="node28" class="node">
<title>Node28</title>
<g id="a_node28"><a xlink:href="class_ogre_1_1_particle_system_renderer.html" target="_top" xlink:title="Abstract class defining the interface required to be implemented by classes which provide rendering c...">
<polygon fill="none" stroke="black" points="154,-304.5 154,-323.5 318,-323.5 318,-304.5 154,-304.5"/>
<text text-anchor="middle" x="236" y="-311.5" font-family="Helvetica,sans-Serif" font-size="10.00">Ogre::ParticleSystemRenderer</text>
</a>
</g>
</g>
<!-- Node1&#45;&gt;Node28 -->
<g id="edge27" class="edge">
<title>Node1&#45;&gt;Node28</title>
<path fill="none" stroke="midnightblue" d="M81.23,-374.44C99.64,-361.63 127.43,-343.85 154,-333 163.23,-329.23 173.36,-326.11 183.25,-323.57"/>
<polygon fill="midnightblue" stroke="midnightblue" points="79.12,-371.64 72.99,-380.28 83.17,-377.35 79.12,-371.64"/>
</g>
<!-- Node30 -->
<g id="node30" class="node">
<title>Node30</title>
<g id="a_node30"><a xlink:href="class_ogre_1_1_resource.html" target="_top" xlink:title="Abstract class representing a loadable resource.">
<polygon fill="none" stroke="black" points="190.5,-152.5 190.5,-171.5 281.5,-171.5 281.5,-152.5 190.5,-152.5"/>
<text text-anchor="middle" x="236" y="-159.5" font-family="Helvetica,sans-Serif" font-size="10.00">Ogre::Resource</text>
</a>
</g>
</g>
<!-- Node1&#45;&gt;Node30 -->
<g id="edge29" class="edge">
<title>Node1&#45;&gt;Node30</title>
<path fill="none" stroke="midnightblue" d="M73.48,-372.44C108.39,-326.95 200.94,-206.38 227.67,-171.55"/>
<polygon fill="midnightblue" stroke="midnightblue" points="70.61,-370.43 67.3,-380.49 76.16,-374.69 70.61,-370.43"/>
</g>
<!-- Node4 -->
<g id="node4" class="node">
<title>Node4</title>
<g id="a_node4"><a xlink:href="class_ogre_1_1_overlay_container.html" target="_top" xlink:title="A 2D element which contains other OverlayElement instances.">
<polygon fill="none" stroke="black" points="373.5,-860.5 373.5,-879.5 504.5,-879.5 504.5,-860.5 373.5,-860.5"/>
<text text-anchor="middle" x="439" y="-867.5" font-family="Helvetica,sans-Serif" font-size="10.00">Ogre::OverlayContainer</text>
</a>
</g>
</g>
<!-- Node3&#45;&gt;Node4 -->
<g id="edge3" class="edge">
<title>Node3&#45;&gt;Node4</title>
<path fill="none" stroke="midnightblue" d="M307.99,-739.83C311.58,-741.87 314.95,-744.25 318,-747 354.32,-779.76 317.55,-818.38 354,-851 359.57,-855.99 366.17,-859.75 373.18,-862.58"/>
<polygon fill="midnightblue" stroke="midnightblue" points="309.24,-736.54 298.71,-735.38 306.22,-742.86 309.24,-736.54"/>
</g>
<!-- Node7 -->
<g id="node7" class="node">
<title>Node7</title>
<g id="a_node7"><a xlink:href="class_ogre_1_1_text_area_overlay_element.html" target="_top" xlink:title="This class implements an overlay element which contains simple unformatted text.">
<polygon fill="none" stroke="black" points="355.5,-822.5 355.5,-841.5 522.5,-841.5 522.5,-822.5 355.5,-822.5"/>
<text text-anchor="middle" x="439" y="-829.5" font-family="Helvetica,sans-Serif" font-size="10.00">Ogre::TextAreaOverlayElement</text>
</a>
</g>
</g>
<!-- Node3&#45;&gt;Node7 -->
<g id="edge6" class="edge">
<title>Node3&#45;&gt;Node7</title>
<path fill="none" stroke="midnightblue" d="M308.21,-740.83C311.66,-742.63 314.95,-744.68 318,-747 344.58,-767.25 327.34,-792.86 354,-813 359.13,-816.88 364.91,-819.98 370.97,-822.48"/>
<polygon fill="midnightblue" stroke="midnightblue" points="309.33,-737.5 298.78,-736.61 306.48,-743.89 309.33,-737.5"/>
</g>
<!-- Node5 -->
<g id="node5" class="node">
<title>Node5</title>
<g id="a_node5"><a xlink:href="class_ogre_1_1_panel_overlay_element.html" target="_top" xlink:title="OverlayElement representing a flat, single&#45;material (or transparent) panel which can contain other el...">
<polygon fill="none" stroke="black" points="561.5,-860.5 561.5,-879.5 713.5,-879.5 713.5,-860.5 561.5,-860.5"/>
<text text-anchor="middle" x="637.5" y="-867.5" font-family="Helvetica,sans-Serif" font-size="10.00">Ogre::PanelOverlayElement</text>
</a>
</g>
</g>
<!-- Node4&#45;&gt;Node5 -->
<g id="edge4" class="edge">
<title>Node4&#45;&gt;Node5</title>
<path fill="none" stroke="midnightblue" d="M514.97,-870C530.14,-870 546.09,-870 561.27,-870"/>
<polygon fill="midnightblue" stroke="midnightblue" points="514.61,-866.5 504.61,-870 514.61,-873.5 514.61,-866.5"/>
</g>
<!-- Node6 -->
<g id="node6" class="node">
<title>Node6</title>
<g id="a_node6"><a xlink:href="class_ogre_1_1_border_panel_overlay_element.html" target="_top" xlink:title="A specialisation of the PanelOverlayElement to provide a panel with a border.">
<polygon fill="none" stroke="black" points="758,-855 758,-885 901,-885 901,-855 758,-855"/>
<text text-anchor="start" x="766" y="-873" font-family="Helvetica,sans-Serif" font-size="10.00">Ogre::BorderPanelOverlay</text>
<text text-anchor="middle" x="829.5" y="-862" font-family="Helvetica,sans-Serif" font-size="10.00">Element</text>
</a>
</g>
</g>
<!-- Node5&#45;&gt;Node6 -->
<g id="edge5" class="edge">
<title>Node5&#45;&gt;Node6</title>
<path fill="none" stroke="midnightblue" d="M723.62,-870C735.1,-870 746.78,-870 757.97,-870"/>
<polygon fill="midnightblue" stroke="midnightblue" points="723.59,-866.5 713.59,-870 723.59,-873.5 723.59,-866.5"/>
</g>
<!-- Node9 -->
<g id="node9" class="node">
<title>Node9</title>
<g id="a_node9"><a xlink:href="class_ogre_1_1_colour_fader_affector.html" target="_top" xlink:title="This affector modifies the colour of particles in flight.">
<polygon fill="none" stroke="black" points="367.5,-784.5 367.5,-803.5 510.5,-803.5 510.5,-784.5 367.5,-784.5"/>
<text text-anchor="middle" x="439" y="-791.5" font-family="Helvetica,sans-Serif" font-size="10.00">Ogre::ColourFaderAffector</text>
</a>
</g>
</g>
<!-- Node8&#45;&gt;Node9 -->
<g id="edge8" class="edge">
<title>Node8&#45;&gt;Node9</title>
<path fill="none" stroke="midnightblue" d="M249.58,-604.07C265.93,-627.79 295.11,-670.88 318,-709 335.2,-737.64 327.34,-754.86 354,-775 359.13,-778.88 364.91,-781.98 370.97,-784.48"/>
<polygon fill="midnightblue" stroke="midnightblue" points="252.36,-601.94 243.79,-595.71 246.61,-605.92 252.36,-601.94"/>
</g>
<!-- Node10 -->
<g id="node10" class="node">
<title>Node10</title>
<g id="a_node10"><a xlink:href="class_ogre_1_1_colour_fader_affector2.html" target="_top" xlink:title=" ">
<polygon fill="none" stroke="black" points="364.5,-746.5 364.5,-765.5 513.5,-765.5 513.5,-746.5 364.5,-746.5"/>
<text text-anchor="middle" x="439" y="-753.5" font-family="Helvetica,sans-Serif" font-size="10.00">Ogre::ColourFaderAffector2</text>
</a>
</g>
</g>
<!-- Node8&#45;&gt;Node10 -->
<g id="edge9" class="edge">
<title>Node8&#45;&gt;Node10</title>
<path fill="none" stroke="midnightblue" d="M246.09,-604.91C262.72,-637.36 301.24,-703.41 354,-737 360.05,-740.85 366.79,-743.93 373.74,-746.39"/>
<polygon fill="midnightblue" stroke="midnightblue" points="249.06,-603.03 241.47,-595.64 242.8,-606.15 249.06,-603.03"/>
</g>
<!-- Node11 -->
<g id="node11" class="node">
<title>Node11</title>
<g id="a_node11"><a xlink:href="class_ogre_1_1_colour_image_affector.html" target="_top" xlink:title=" ">
<polygon fill="none" stroke="black" points="366,-708.5 366,-727.5 512,-727.5 512,-708.5 366,-708.5"/>
<text text-anchor="middle" x="439" y="-715.5" font-family="Helvetica,sans-Serif" font-size="10.00">Ogre::ColourImageAffector</text>
</a>
</g>
</g>
<!-- Node8&#45;&gt;Node11 -->
<g id="edge10" class="edge">
<title>Node8&#45;&gt;Node11</title>
<path fill="none" stroke="midnightblue" d="M250.05,-603.66C269.69,-628.89 309.33,-674.87 354,-699 361.24,-702.91 369.24,-706.01 377.35,-708.48"/>
<polygon fill="midnightblue" stroke="midnightblue" points="252.81,-601.5 243.97,-595.67 247.24,-605.75 252.81,-601.5"/>
</g>
<!-- Node12 -->
<g id="node12" class="node">
<title>Node12</title>
<g id="a_node12"><a xlink:href="class_ogre_1_1_colour_interpolator_affector.html" target="_top" xlink:title=" ">
<polygon fill="none" stroke="black" points="372,-659 372,-689 506,-689 506,-659 372,-659"/>
<text text-anchor="start" x="380" y="-677" font-family="Helvetica,sans-Serif" font-size="10.00">Ogre::ColourInterpolator</text>
<text text-anchor="middle" x="439" y="-666" font-family="Helvetica,sans-Serif" font-size="10.00">Affector</text>
</a>
</g>
</g>
<!-- Node8&#45;&gt;Node12 -->
<g id="edge11" class="edge">
<title>Node8&#45;&gt;Node12</title>
<path fill="none" stroke="midnightblue" d="M261.19,-600.92C284.36,-614.76 320.64,-635.22 354,-649 362.72,-652.6 372.14,-655.92 381.42,-658.89"/>
<polygon fill="midnightblue" stroke="midnightblue" points="262.77,-597.79 252.4,-595.62 259.15,-603.78 262.77,-597.79"/>
</g>
<!-- Node13 -->
<g id="node13" class="node">
<title>Node13</title>
<g id="a_node13"><a xlink:href="class_ogre_1_1_deflector_plane_affector.html" target="_top" xlink:title="This affector defines a plane which deflects particles which collide with it.">
<polygon fill="none" stroke="black" points="361,-620.5 361,-639.5 517,-639.5 517,-620.5 361,-620.5"/>
<text text-anchor="middle" x="439" y="-627.5" font-family="Helvetica,sans-Serif" font-size="10.00">Ogre::DeflectorPlaneAffector</text>
</a>
</g>
</g>
<!-- Node8&#45;&gt;Node13 -->
<g id="edge12" class="edge">
<title>Node8&#45;&gt;Node13</title>
<path fill="none" stroke="midnightblue" d="M290.41,-597.69C322.93,-604.81 363.94,-613.79 394.47,-620.47"/>
<polygon fill="midnightblue" stroke="midnightblue" points="291.13,-594.27 280.61,-595.55 289.63,-601.1 291.13,-594.27"/>
</g>
<!-- Node14 -->
<g id="node14" class="node">
<title>Node14</title>
<g id="a_node14"><a xlink:href="class_ogre_1_1_direction_randomiser_affector.html" target="_top" xlink:title="This affector applies randomness to the movement of the particles.">
<polygon fill="none" stroke="black" points="364.5,-571 364.5,-601 513.5,-601 513.5,-571 364.5,-571"/>
<text text-anchor="start" x="372.5" y="-589" font-family="Helvetica,sans-Serif" font-size="10.00">Ogre::DirectionRandomiser</text>
<text text-anchor="middle" x="439" y="-578" font-family="Helvetica,sans-Serif" font-size="10.00">Affector</text>
</a>
</g>
</g>
<!-- Node8&#45;&gt;Node14 -->
<g id="edge13" class="edge">
<title>Node8&#45;&gt;Node14</title>
<path fill="none" stroke="midnightblue" d="M306.88,-586C325.42,-586 345.49,-586 364.23,-586"/>
<polygon fill="midnightblue" stroke="midnightblue" points="306.76,-582.5 296.76,-586 306.76,-589.5 306.76,-582.5"/>
</g>
<!-- Node15 -->
<g id="node15" class="node">
<title>Node15</title>
<g id="a_node15"><a xlink:href="class_ogre_1_1_linear_force_affector.html" target="_top" xlink:title="This affector applies a force vector to all particles to modify their trajectory.">
<polygon fill="none" stroke="black" points="369,-532.5 369,-551.5 509,-551.5 509,-532.5 369,-532.5"/>
<text text-anchor="middle" x="439" y="-539.5" font-family="Helvetica,sans-Serif" font-size="10.00">Ogre::LinearForceAffector</text>
</a>
</g>
</g>
<!-- Node8&#45;&gt;Node15 -->
<g id="edge14" class="edge">
<title>Node8&#45;&gt;Node15</title>
<path fill="none" stroke="midnightblue" d="M290.41,-574.31C322.93,-567.19 363.94,-558.21 394.47,-551.53"/>
<polygon fill="midnightblue" stroke="midnightblue" points="289.63,-570.9 280.61,-576.45 291.13,-577.73 289.63,-570.9"/>
</g>
<!-- Node16 -->
<g id="node16" class="node">
<title>Node16</title>
<g id="a_node16"><a xlink:href="class_ogre_1_1_rotation_affector.html" target="_top" xlink:title="This affector rotates particles in flight.">
<polygon fill="none" stroke="black" points="376.5,-494.5 376.5,-513.5 501.5,-513.5 501.5,-494.5 376.5,-494.5"/>
<text text-anchor="middle" x="439" y="-501.5" font-family="Helvetica,sans-Serif" font-size="10.00">Ogre::RotationAffector</text>
</a>
</g>
</g>
<!-- Node8&#45;&gt;Node16 -->
<g id="edge15" class="edge">
<title>Node8&#45;&gt;Node16</title>
<path fill="none" stroke="midnightblue" d="M260.21,-571.04C283.2,-556.84 319.82,-535.8 354,-523 363.94,-519.28 374.83,-516.16 385.38,-513.6"/>
<polygon fill="midnightblue" stroke="midnightblue" points="258.14,-568.21 251.53,-576.49 261.86,-574.14 258.14,-568.21"/>
</g>
<!-- Node17 -->
<g id="node17" class="node">
<title>Node17</title>
<g id="a_node17"><a xlink:href="class_ogre_1_1_scale_affector.html" target="_top" xlink:title="This affector scales particles in flight.">
<polygon fill="none" stroke="black" points="384,-456.5 384,-475.5 494,-475.5 494,-456.5 384,-456.5"/>
<text text-anchor="middle" x="439" y="-463.5" font-family="Helvetica,sans-Serif" font-size="10.00">Ogre::ScaleAffector</text>
</a>
</g>
</g>
<!-- Node8&#45;&gt;Node17 -->
<g id="edge16" class="edge">
<title>Node8&#45;&gt;Node17</title>
<path fill="none" stroke="midnightblue" d="M251.66,-568.94C272.19,-546.19 311.75,-506.32 354,-485 363.21,-480.35 373.56,-476.83 383.76,-474.16"/>
<polygon fill="midnightblue" stroke="midnightblue" points="249,-566.67 244.99,-576.48 254.24,-571.31 249,-566.67"/>
</g>
<!-- Node18 -->
<g id="node18" class="node">
<title>Node18</title>
<g id="a_node18"><a xlink:href="class_ogre_1_1_texture_animator_affector.html" target="_top" xlink:title="This affector makes it possible to have an animated texture for each individual particle.">
<polygon fill="none" stroke="black" points="356.5,-418.5 356.5,-437.5 521.5,-437.5 521.5,-418.5 356.5,-418.5"/>
<text text-anchor="middle" x="439" y="-425.5" font-family="Helvetica,sans-Serif" font-size="10.00">Ogre::TextureAnimatorAffector</text>
</a>
</g>
</g>
<!-- Node8&#45;&gt;Node18 -->
<g id="edge17" class="edge">
<title>Node8&#45;&gt;Node18</title>
<path fill="none" stroke="midnightblue" d="M247.23,-567.34C264.84,-537.04 303.89,-477.5 354,-447 360.39,-443.11 367.48,-440.02 374.77,-437.56"/>
<polygon fill="midnightblue" stroke="midnightblue" points="243.97,-565.98 242.09,-576.4 250.06,-569.43 243.97,-565.98"/>
</g>
<!-- Node20 -->
<g id="node20" class="node">
<title>Node20</title>
<g id="a_node20"><a xlink:href="class_ogre_1_1_area_emitter.html" target="_top" xlink:title="Particle emitter which emits particles randomly from points inside an area (box, sphere,...">
<polygon fill="none" stroke="black" points="387,-380.5 387,-399.5 491,-399.5 491,-380.5 387,-380.5"/>
<text text-anchor="middle" x="439" y="-387.5" font-family="Helvetica,sans-Serif" font-size="10.00">Ogre::AreaEmitter</text>
</a>
</g>
</g>
<!-- Node19&#45;&gt;Node20 -->
<g id="edge19" class="edge">
<title>Node19&#45;&gt;Node20</title>
<path fill="none" stroke="midnightblue" d="M305.68,-390C332.25,-390 362.13,-390 386.76,-390"/>
<polygon fill="midnightblue" stroke="midnightblue" points="305.68,-386.5 295.68,-390 305.68,-393.5 305.68,-386.5"/>
</g>
<!-- Node26 -->
<g id="node26" class="node">
<title>Node26</title>
<g id="a_node26"><a xlink:href="class_ogre_1_1_point_emitter.html" target="_top" xlink:title="This emitter emits particles from a single point, which is it’s position.">
<polygon fill="none" stroke="black" points="385.5,-342.5 385.5,-361.5 492.5,-361.5 492.5,-342.5 385.5,-342.5"/>
<text text-anchor="middle" x="439" y="-349.5" font-family="Helvetica,sans-Serif" font-size="10.00">Ogre::PointEmitter</text>
</a>
</g>
</g>
<!-- Node19&#45;&gt;Node26 -->
<g id="edge25" class="edge">
<title>Node19&#45;&gt;Node26</title>
<path fill="none" stroke="midnightblue" d="M297.4,-378.58C326.16,-373.14 360.16,-366.72 387.52,-361.54"/>
<polygon fill="midnightblue" stroke="midnightblue" points="296.64,-375.16 287.46,-380.46 297.94,-382.04 296.64,-375.16"/>
</g>
<!-- Node21 -->
<g id="node21" class="node">
<title>Node21</title>
<g id="a_node21"><a xlink:href="class_ogre_1_1_box_emitter.html" target="_top" xlink:title="This emitter emits particles from a random location within a 3&#45;dimensional box.">
<polygon fill="none" stroke="black" points="587,-437.5 587,-456.5 688,-456.5 688,-437.5 587,-437.5"/>
<text text-anchor="middle" x="637.5" y="-444.5" font-family="Helvetica,sans-Serif" font-size="10.00">Ogre::BoxEmitter</text>
</a>
</g>
</g>
<!-- Node20&#45;&gt;Node21 -->
<g id="edge20" class="edge">
<title>Node20&#45;&gt;Node21</title>
<path fill="none" stroke="midnightblue" d="M501.1,-401.83C508.9,-403.92 516.7,-406.3 524,-409 540.97,-415.27 543.1,-421.55 560,-428 569.59,-431.66 580.13,-434.8 590.23,-437.42"/>
<polygon fill="midnightblue" stroke="midnightblue" points="501.82,-398.4 491.27,-399.34 500.1,-405.18 501.82,-398.4"/>
</g>
<!-- Node22 -->
<g id="node22" class="node">
<title>Node22</title>
<g id="a_node22"><a xlink:href="class_ogre_1_1_cylinder_emitter.html" target="_top" xlink:title="This emitter emits particles in a random direction from within a cylinder area, where the cylinder is...">
<polygon fill="none" stroke="black" points="576.5,-399.5 576.5,-418.5 698.5,-418.5 698.5,-399.5 576.5,-399.5"/>
<text text-anchor="middle" x="637.5" y="-406.5" font-family="Helvetica,sans-Serif" font-size="10.00">Ogre::CylinderEmitter</text>
</a>
</g>
</g>
<!-- Node20&#45;&gt;Node22 -->
<g id="edge21" class="edge">
<title>Node20&#45;&gt;Node22</title>
<path fill="none" stroke="midnightblue" d="M501.13,-395.91C525.04,-398.22 552.39,-400.87 576.22,-403.17"/>
<polygon fill="midnightblue" stroke="midnightblue" points="501.41,-392.42 491.12,-394.94 500.73,-399.39 501.41,-392.42"/>
</g>
<!-- Node23 -->
<g id="node23" class="node">
<title>Node23</title>
<g id="a_node23"><a xlink:href="class_ogre_1_1_ellipsoid_emitter.html" target="_top" xlink:title="Particle emitter which emits particles randomly from points inside an ellipsoid.">
<polygon fill="none" stroke="black" points="576,-361.5 576,-380.5 699,-380.5 699,-361.5 576,-361.5"/>
<text text-anchor="middle" x="637.5" y="-368.5" font-family="Helvetica,sans-Serif" font-size="10.00">Ogre::EllipsoidEmitter</text>
</a>
</g>
</g>
<!-- Node20&#45;&gt;Node23 -->
<g id="edge22" class="edge">
<title>Node20&#45;&gt;Node23</title>
<path fill="none" stroke="midnightblue" d="M501.09,-384.09C524.89,-381.79 552.1,-379.16 575.86,-376.86"/>
<polygon fill="midnightblue" stroke="midnightblue" points="500.73,-380.61 491.12,-385.06 501.41,-387.58 500.73,-380.61"/>
</g>
<!-- Node25 -->
<g id="node25" class="node">
<title>Node25</title>
<g id="a_node25"><a xlink:href="class_ogre_1_1_ring_emitter.html" target="_top" xlink:title="Particle emitter which emits particles randomly from points inside a ring (e.g.">
<polygon fill="none" stroke="black" points="585.5,-323.5 585.5,-342.5 689.5,-342.5 689.5,-323.5 585.5,-323.5"/>
<text text-anchor="middle" x="637.5" y="-330.5" font-family="Helvetica,sans-Serif" font-size="10.00">Ogre::RingEmitter</text>
</a>
</g>
</g>
<!-- Node20&#45;&gt;Node25 -->
<g id="edge24" class="edge">
<title>Node20&#45;&gt;Node25</title>
<path fill="none" stroke="midnightblue" d="M501.1,-378.17C508.9,-376.08 516.7,-373.7 524,-371 540.97,-364.73 543.1,-358.45 560,-352 569.59,-348.34 580.13,-345.2 590.23,-342.58"/>
<polygon fill="midnightblue" stroke="midnightblue" points="500.1,-374.82 491.27,-380.66 501.82,-381.6 500.1,-374.82"/>
</g>
<!-- Node24 -->
<g id="node24" class="node">
<title>Node24</title>
<g id="a_node24"><a xlink:href="class_ogre_1_1_hollow_ellipsoid_emitter.html" target="_top" xlink:title="Particle emitter which emits particles randomly from points inside a hollow ellipsoid.">
<polygon fill="none" stroke="black" points="751,-361.5 751,-380.5 908,-380.5 908,-361.5 751,-361.5"/>
<text text-anchor="middle" x="829.5" y="-368.5" font-family="Helvetica,sans-Serif" font-size="10.00">Ogre::HollowEllipsoidEmitter</text>
</a>
</g>
</g>
<!-- Node23&#45;&gt;Node24 -->
<g id="edge23" class="edge">
<title>Node23&#45;&gt;Node24</title>
<path fill="none" stroke="midnightblue" d="M709.31,-371C722.81,-371 737.01,-371 750.72,-371"/>
<polygon fill="midnightblue" stroke="midnightblue" points="709.14,-367.5 699.14,-371 709.14,-374.5 709.14,-367.5"/>
</g>
<!-- Node29 -->
<g id="node29" class="node">
<title>Node29</title>
<g id="a_node29"><a xlink:href="class_ogre_1_1_billboard_particle_renderer.html" target="_top" xlink:title="Specialisation of ParticleSystemRenderer to render particles using a BillboardSet.">
<polygon fill="none" stroke="black" points="354,-304.5 354,-323.5 524,-323.5 524,-304.5 354,-304.5"/>
<text text-anchor="middle" x="439" y="-311.5" font-family="Helvetica,sans-Serif" font-size="10.00">Ogre::BillboardParticleRenderer</text>
</a>
</g>
</g>
<!-- Node28&#45;&gt;Node29 -->
<g id="edge28" class="edge">
<title>Node28&#45;&gt;Node29</title>
<path fill="none" stroke="midnightblue" d="M328.18,-314C336.74,-314 345.4,-314 353.9,-314"/>
<polygon fill="midnightblue" stroke="midnightblue" points="328.18,-310.5 318.18,-314 328.17,-317.5 328.18,-310.5"/>
</g>
<!-- Node31 -->
<g id="node31" class="node">
<title>Node31</title>
<g id="a_node31"><a xlink:href="class_ogre_1_1_bsp_level.html" target="_top" xlink:title="Holds all the data associated with a Binary Space Parition (BSP) based indoor level.">
<polygon fill="none" stroke="black" points="394,-266.5 394,-285.5 484,-285.5 484,-266.5 394,-266.5"/>
<text text-anchor="middle" x="439" y="-273.5" font-family="Helvetica,sans-Serif" font-size="10.00">Ogre::BspLevel</text>
</a>
</g>
</g>
<!-- Node30&#45;&gt;Node31 -->
<g id="edge30" class="edge">
<title>Node30&#45;&gt;Node31</title>
<path fill="none" stroke="midnightblue" d="M252.79,-178.95C273.81,-200.45 313.1,-237.13 354,-257 366.37,-263.01 380.7,-267.16 393.98,-270"/>
<polygon fill="midnightblue" stroke="midnightblue" points="255.11,-176.31 245.67,-171.52 250.06,-181.16 255.11,-176.31"/>
</g>
<!-- Node32 -->
<g id="node32" class="node">
<title>Node32</title>
<g id="a_node32"><a xlink:href="class_ogre_1_1_compositor.html" target="_top" xlink:title="Class representing a Compositor object.">
<polygon fill="none" stroke="black" points="388,-228.5 388,-247.5 490,-247.5 490,-228.5 388,-228.5"/>
<text text-anchor="middle" x="439" y="-235.5" font-family="Helvetica,sans-Serif" font-size="10.00">Ogre::Compositor</text>
</a>
</g>
</g>
<!-- Node30&#45;&gt;Node32 -->
<g id="edge31" class="edge">
<title>Node30&#45;&gt;Node32</title>
<path fill="none" stroke="midnightblue" d="M262.37,-176.49C285.59,-189.23 321.21,-207.48 354,-219 364.72,-222.77 376.48,-225.97 387.71,-228.62"/>
<polygon fill="midnightblue" stroke="midnightblue" points="263.96,-173.37 253.52,-171.57 260.56,-179.49 263.96,-173.37"/>
</g>
<!-- Node33 -->
<g id="node33" class="node">
<title>Node33</title>
<g id="a_node33"><a xlink:href="class_ogre_1_1_font.html" target="_top" xlink:title="Class representing a font in the system.">
<polygon fill="none" stroke="black" points="405.5,-190.5 405.5,-209.5 472.5,-209.5 472.5,-190.5 405.5,-190.5"/>
<text text-anchor="middle" x="439" y="-197.5" font-family="Helvetica,sans-Serif" font-size="10.00">Ogre::Font</text>
</a>
</g>
</g>
<!-- Node30&#45;&gt;Node33 -->
<g id="edge32" class="edge">
<title>Node30&#45;&gt;Node33</title>
<path fill="none" stroke="midnightblue" d="M291.58,-172.32C327.99,-179.2 374.64,-188.02 405.38,-193.83"/>
<polygon fill="midnightblue" stroke="midnightblue" points="292.08,-168.85 281.61,-170.43 290.78,-175.73 292.08,-168.85"/>
</g>
<!-- Node34 -->
<g id="node34" class="node">
<title>Node34</title>
<g id="a_node34"><a xlink:href="class_ogre_1_1_gpu_program.html" target="_top" xlink:title="Defines a program which runs on the GPU such as a vertex or fragment program.">
<polygon fill="none" stroke="black" points="385.5,-152.5 385.5,-171.5 492.5,-171.5 492.5,-152.5 385.5,-152.5"/>
<text text-anchor="middle" x="439" y="-159.5" font-family="Helvetica,sans-Serif" font-size="10.00">Ogre::GpuProgram</text>
</a>
</g>
</g>
<!-- Node30&#45;&gt;Node34 -->
<g id="edge33" class="edge">
<title>Node30&#45;&gt;Node34</title>
<path fill="none" stroke="midnightblue" d="M291.62,-162C320.77,-162 356.48,-162 385.33,-162"/>
<polygon fill="midnightblue" stroke="midnightblue" points="291.61,-158.5 281.61,-162 291.61,-165.5 291.61,-158.5"/>
</g>
<!-- Node38 -->
<g id="node38" class="node">
<title>Node38</title>
<g id="a_node38"><a xlink:href="class_ogre_1_1_material.html" target="_top" xlink:title="Class encapsulates rendering properties of an object.">
<polygon fill="none" stroke="black" points="396,-114.5 396,-133.5 482,-133.5 482,-114.5 396,-114.5"/>
<text text-anchor="middle" x="439" y="-121.5" font-family="Helvetica,sans-Serif" font-size="10.00">Ogre::Material</text>
</a>
</g>
</g>
<!-- Node30&#45;&gt;Node38 -->
<g id="edge37" class="edge">
<title>Node30&#45;&gt;Node38</title>
<path fill="none" stroke="midnightblue" d="M291.52,-151.69C324.37,-145.48 365.59,-137.69 395.92,-131.96"/>
<polygon fill="midnightblue" stroke="midnightblue" points="290.78,-148.27 281.61,-153.57 292.08,-155.15 290.78,-148.27"/>
</g>
<!-- Node39 -->
<g id="node39" class="node">
<title>Node39</title>
<g id="a_node39"><a xlink:href="class_ogre_1_1_mesh.html" target="_top" xlink:title="Resource holding data about 3D mesh.">
<polygon fill="none" stroke="black" points="403,-76.5 403,-95.5 475,-95.5 475,-76.5 403,-76.5"/>
<text text-anchor="middle" x="439" y="-83.5" font-family="Helvetica,sans-Serif" font-size="10.00">Ogre::Mesh</text>
</a>
</g>
</g>
<!-- Node30&#45;&gt;Node39 -->
<g id="edge38" class="edge">
<title>Node30&#45;&gt;Node39</title>
<path fill="none" stroke="midnightblue" d="M262.37,-147.51C285.59,-134.77 321.21,-116.52 354,-105 369.66,-99.5 387.53,-95.2 402.75,-92.09"/>
<polygon fill="midnightblue" stroke="midnightblue" points="260.56,-144.51 253.52,-152.43 263.96,-150.63 260.56,-144.51"/>
</g>
<!-- Node41 -->
<g id="node41" class="node">
<title>Node41</title>
<g id="a_node41"><a xlink:href="class_ogre_1_1_skeleton.html" target="_top" xlink:title="A collection of Bone objects used to animate a skinned mesh.">
<polygon fill="none" stroke="black" points="395,-38.5 395,-57.5 483,-57.5 483,-38.5 395,-38.5"/>
<text text-anchor="middle" x="439" y="-45.5" font-family="Helvetica,sans-Serif" font-size="10.00">Ogre::Skeleton</text>
</a>
</g>
</g>
<!-- Node30&#45;&gt;Node41 -->
<g id="edge40" class="edge">
<title>Node30&#45;&gt;Node41</title>
<path fill="none" stroke="midnightblue" d="M252.79,-145.05C273.81,-123.55 313.1,-86.87 354,-67 366.64,-60.86 381.33,-56.67 394.85,-53.82"/>
<polygon fill="midnightblue" stroke="midnightblue" points="250.06,-142.84 245.67,-152.48 255.11,-147.69 250.06,-142.84"/>
</g>
<!-- Node43 -->
<g id="node43" class="node">
<title>Node43</title>
<g id="a_node43"><a xlink:href="class_ogre_1_1_texture.html" target="_top" xlink:title="Abstract class representing a Texture resource.">
<polygon fill="none" stroke="black" points="398,-0.5 398,-19.5 480,-19.5 480,-0.5 398,-0.5"/>
<text text-anchor="middle" x="439" y="-7.5" font-family="Helvetica,sans-Serif" font-size="10.00">Ogre::Texture</text>
</a>
</g>
</g>
<!-- Node30&#45;&gt;Node43 -->
<g id="edge42" class="edge">
<title>Node30&#45;&gt;Node43</title>
<path fill="none" stroke="midnightblue" d="M247.7,-143.72C265.73,-114.62 305.06,-58.06 354,-29 367.11,-21.21 383.11,-16.61 397.61,-13.9"/>
<polygon fill="midnightblue" stroke="midnightblue" points="244.59,-142.09 242.41,-152.46 250.58,-145.72 244.59,-142.09"/>
</g>
<!-- Node35 -->
<g id="node35" class="node">
<title>Node35</title>
<g id="a_node35"><a xlink:href="class_ogre_1_1_high_level_gpu_program.html" target="_top" xlink:title="Abstract base class representing a high&#45;level program (a vertex or fragment program).">
<polygon fill="none" stroke="black" points="560,-152.5 560,-171.5 715,-171.5 715,-152.5 560,-152.5"/>
<text text-anchor="middle" x="637.5" y="-159.5" font-family="Helvetica,sans-Serif" font-size="10.00">Ogre::HighLevelGpuProgram</text>
</a>
</g>
</g>
<!-- Node34&#45;&gt;Node35 -->
<g id="edge34" class="edge">
<title>Node34&#45;&gt;Node35</title>
<path fill="none" stroke="midnightblue" d="M502.79,-162C520.88,-162 540.83,-162 559.68,-162"/>
<polygon fill="midnightblue" stroke="midnightblue" points="502.66,-158.5 492.66,-162 502.66,-165.5 502.66,-158.5"/>
</g>
<!-- Node36 -->
<g id="node36" class="node">
<title>Node36</title>
<g id="a_node36"><a xlink:href="class_ogre_1_1_cg_program.html" target="_top" xlink:title="Specialisation of HighLevelGpuProgram to provide support for nVidia&#39;s CG language.">
<polygon fill="none" stroke="black" points="779.5,-171.5 779.5,-190.5 879.5,-190.5 879.5,-171.5 779.5,-171.5"/>
<text text-anchor="middle" x="829.5" y="-178.5" font-family="Helvetica,sans-Serif" font-size="10.00">Ogre::CgProgram</text>
</a>
</g>
</g>
<!-- Node35&#45;&gt;Node36 -->
<g id="edge35" class="edge">
<title>Node35&#45;&gt;Node36</title>
<path fill="none" stroke="midnightblue" d="M725.19,-170.67C743.77,-172.53 762.78,-174.43 779.34,-176.08"/>
<polygon fill="midnightblue" stroke="midnightblue" points="725.53,-167.19 715.23,-169.67 724.83,-174.15 725.53,-167.19"/>
</g>
<!-- Node37 -->
<g id="node37" class="node">
<title>Node37</title>
<g id="a_node37"><a xlink:href="class_ogre_1_1_g_l_s_lang_program.html" target="_top" xlink:title="Specialisation of HighLevelGpuProgram to provide support for the GLSLang compiler by Khronos.">
<polygon fill="none" stroke="black" points="765,-133.5 765,-152.5 894,-152.5 894,-133.5 765,-133.5"/>
<text text-anchor="middle" x="829.5" y="-140.5" font-family="Helvetica,sans-Serif" font-size="10.00">Ogre::GLSLangProgram</text>
</a>
</g>
</g>
<!-- Node35&#45;&gt;Node37 -->
<g id="edge36" class="edge">
<title>Node35&#45;&gt;Node37</title>
<path fill="none" stroke="midnightblue" d="M725.35,-153.31C738.66,-151.98 752.19,-150.63 764.87,-149.36"/>
<polygon fill="midnightblue" stroke="midnightblue" points="724.83,-149.85 715.23,-154.33 725.53,-156.81 724.83,-149.85"/>
</g>
<!-- Node40 -->
<g id="node40" class="node">
<title>Node40</title>
<g id="a_node40"><a xlink:href="class_ogre_1_1_patch_mesh.html" target="_top" xlink:title="Patch specialisation of Mesh.">
<polygon fill="none" stroke="black" points="588,-76.5 588,-95.5 687,-95.5 687,-76.5 588,-76.5"/>
<text text-anchor="middle" x="637.5" y="-83.5" font-family="Helvetica,sans-Serif" font-size="10.00">Ogre::PatchMesh</text>
</a>
</g>
</g>
<!-- Node39&#45;&gt;Node40 -->
<g id="edge39" class="edge">
<title>Node39&#45;&gt;Node40</title>
<path fill="none" stroke="midnightblue" d="M485.52,-86C516.11,-86 556.39,-86 587.65,-86"/>
<polygon fill="midnightblue" stroke="midnightblue" points="485.13,-82.5 475.13,-86 485.13,-89.5 485.13,-82.5"/>
</g>
<!-- Node42 -->
<g id="node42" class="node">
<title>Node42</title>
<g id="a_node42"><a xlink:href="class_ogre_1_1_skeleton_instance.html" target="_top" xlink:title="A SkeletonInstance is a single instance of a Skeleton used by a world object.">
<polygon fill="none" stroke="black" points="573,-38.5 573,-57.5 702,-57.5 702,-38.5 573,-38.5"/>
<text text-anchor="middle" x="637.5" y="-45.5" font-family="Helvetica,sans-Serif" font-size="10.00">Ogre::SkeletonInstance</text>
</a>
</g>
</g>
<!-- Node41&#45;&gt;Node42 -->
<g id="edge41" class="edge">
<title>Node41&#45;&gt;Node42</title>
<path fill="none" stroke="midnightblue" d="M493.34,-48C517.9,-48 547.25,-48 572.95,-48"/>
<polygon fill="midnightblue" stroke="midnightblue" points="493.12,-44.5 483.12,-48 493.12,-51.5 493.12,-44.5"/>
</g>
</g>
</svg>
