<?xml version="1.0" encoding="UTF-8" standalone="no"?>
<!DOCTYPE svg PUBLIC "-//W3C//DTD SVG 1.1//EN"
 "http://www.w3.org/Graphics/SVG/1.1/DTD/svg11.dtd">
<!-- Generated by graphviz version 2.43.0 (0)
 -->
<!-- Title: Ogre::PCZSceneManager Pages: 1 -->
<svg width="383pt" height="140pt"
 viewBox="0.00 0.00 383.00 140.00" xmlns="http://www.w3.org/2000/svg" xmlns:xlink="http://www.w3.org/1999/xlink">
<g id="graph0" class="graph" transform="scale(1 1) rotate(0) translate(4 136)">
<title>Ogre::PCZSceneManager</title>
<!-- Node1 -->
<g id="node1" class="node">
<title>Node1</title>
<g id="a_node1"><a xlink:title="Specialized SceneManager that uses Portal&#45;Connected&#45;Zones to divide the scene spatially.">
<polygon fill="#bfbfbf" stroke="black" points="148,-0.5 148,-19.5 285,-19.5 285,-0.5 148,-0.5"/>
<text text-anchor="middle" x="216.5" y="-7.5" font-family="Helvetica,sans-Serif" font-size="10.00">Ogre::PCZSceneManager</text>
</a>
</g>
</g>
<!-- Node2 -->
<g id="node2" class="node">
<title>Node2</title>
<g id="a_node2"><a xlink:href="class_ogre_1_1_scene_manager.html" target="_top" xlink:title="Manages the organisation and rendering of a &#39;scene&#39;: a collection of objects and potentially world ge...">
<polygon fill="none" stroke="black" points="79.5,-56.5 79.5,-75.5 197.5,-75.5 197.5,-56.5 79.5,-56.5"/>
<text text-anchor="middle" x="138.5" y="-63.5" font-family="Helvetica,sans-Serif" font-size="10.00">Ogre::SceneManager</text>
</a>
</g>
</g>
<!-- Node2&#45;&gt;Node1 -->
<g id="edge1" class="edge">
<title>Node2&#45;&gt;Node1</title>
<path fill="none" stroke="midnightblue" d="M159.27,-50.62C173.52,-40.76 191.96,-27.99 204,-19.65"/>
<polygon fill="midnightblue" stroke="midnightblue" points="157.26,-47.75 151.03,-56.32 161.25,-53.51 157.26,-47.75"/>
</g>
<!-- Node3 -->
<g id="node3" class="node">
<title>Node3</title>
<g id="a_node3"><a xlink:href="class_ogre_1_1_animation_container.html" target="_top" xlink:title="An animation container interface, which allows generic access to sibling animations.">
<polygon fill="none" stroke="black" points="0,-112.5 0,-131.5 143,-131.5 143,-112.5 0,-112.5"/>
<text text-anchor="middle" x="71.5" y="-119.5" font-family="Helvetica,sans-Serif" font-size="10.00">Ogre::AnimationContainer</text>
</a>
</g>
</g>
<!-- Node3&#45;&gt;Node2 -->
<g id="edge2" class="edge">
<title>Node3&#45;&gt;Node2</title>
<path fill="none" stroke="midnightblue" d="M90.33,-105.82C102.34,-96.15 117.47,-83.95 127.54,-75.83"/>
<polygon fill="midnightblue" stroke="midnightblue" points="87.85,-103.32 82.26,-112.32 92.25,-108.77 87.85,-103.32"/>
</g>
<!-- Node4 -->
<g id="node4" class="node">
<title>Node4</title>
<g id="a_node4"><a xlink:title=" ">
<polygon fill="none" stroke="#bfbfbf" points="161,-112.5 161,-131.5 250,-131.5 250,-112.5 161,-112.5"/>
<text text-anchor="middle" x="205.5" y="-119.5" font-family="Helvetica,sans-Serif" font-size="10.00">SceneMgtAlloc</text>
</a>
</g>
</g>
<!-- Node4&#45;&gt;Node2 -->
<g id="edge3" class="edge">
<title>Node4&#45;&gt;Node2</title>
<path fill="none" stroke="midnightblue" d="M186.67,-105.82C174.66,-96.15 159.53,-83.95 149.46,-75.83"/>
<polygon fill="midnightblue" stroke="midnightblue" points="184.75,-108.77 194.74,-112.32 189.15,-103.32 184.75,-108.77"/>
</g>
<!-- Node5 -->
<g id="node5" class="node">
<title>Node5</title>
<g id="a_node5"><a xlink:href="struct_ogre_1_1_shadow_texture_listener.html" target="_top" xlink:title=" ">
<polygon fill="none" stroke="black" points="216,-56.5 216,-75.5 375,-75.5 375,-56.5 216,-56.5"/>
<text text-anchor="middle" x="295.5" y="-63.5" font-family="Helvetica,sans-Serif" font-size="10.00">Ogre::ShadowTextureListener</text>
</a>
</g>
</g>
<!-- Node5&#45;&gt;Node1 -->
<g id="edge4" class="edge">
<title>Node5&#45;&gt;Node1</title>
<path fill="none" stroke="midnightblue" d="M274.47,-50.62C260.03,-40.76 241.36,-27.99 229.16,-19.65"/>
<polygon fill="midnightblue" stroke="midnightblue" points="272.58,-53.57 282.81,-56.32 276.53,-47.79 272.58,-53.57"/>
</g>
</g>
</svg>
