<?xml version="1.0" encoding="UTF-8" standalone="no"?>
<!DOCTYPE svg PUBLIC "-//W3C//DTD SVG 1.1//EN"
 "http://www.w3.org/Graphics/SVG/1.1/DTD/svg11.dtd">
<!-- Generated by graphviz version 2.43.0 (0)
 -->
<!-- Title: Ogre::HardwareBufferManagerBase Pages: 1 -->
<svg width="352pt" height="218pt"
 viewBox="0.00 0.00 351.50 218.00" xmlns="http://www.w3.org/2000/svg" xmlns:xlink="http://www.w3.org/1999/xlink">
<g id="graph0" class="graph" transform="scale(1 1) rotate(0) translate(4 214)">
<title>Ogre::HardwareBufferManagerBase</title>
<!-- Node1 -->
<g id="node1" class="node">
<title>Node1</title>
<g id="a_node1"><a xlink:title="Base definition of a hardware buffer manager.">
<polygon fill="#bfbfbf" stroke="black" points="74.5,-134.5 74.5,-153.5 264.5,-153.5 264.5,-134.5 74.5,-134.5"/>
<text text-anchor="middle" x="169.5" y="-141.5" font-family="Helvetica,sans-Serif" font-size="10.00">Ogre::HardwareBufferManagerBase</text>
</a>
</g>
</g>
<!-- Node3 -->
<g id="node3" class="node">
<title>Node3</title>
<g id="a_node3"><a xlink:href="class_ogre_1_1_default_hardware_buffer_manager_base.html" target="_top" xlink:title="Specialisation of HardwareBufferManagerBase to emulate hardware buffers.">
<polygon fill="none" stroke="black" points="0,-67.5 0,-97.5 159,-97.5 159,-67.5 0,-67.5"/>
<text text-anchor="start" x="8" y="-85.5" font-family="Helvetica,sans-Serif" font-size="10.00">Ogre::DefaultHardwareBuffer</text>
<text text-anchor="middle" x="79.5" y="-74.5" font-family="Helvetica,sans-Serif" font-size="10.00">ManagerBase</text>
</a>
</g>
</g>
<!-- Node1&#45;&gt;Node3 -->
<g id="edge2" class="edge">
<title>Node1&#45;&gt;Node3</title>
<path fill="none" stroke="midnightblue" d="M147.93,-128.74C133.62,-119.28 114.94,-106.93 100.71,-97.52"/>
<polygon fill="midnightblue" stroke="midnightblue" points="146.33,-131.88 156.61,-134.48 150.19,-126.04 146.33,-131.88"/>
</g>
<!-- Node4 -->
<g id="node4" class="node">
<title>Node4</title>
<g id="a_node4"><a xlink:href="class_ogre_1_1_hardware_buffer_manager.html" target="_top" xlink:title="Singleton wrapper for hardware buffer manager.">
<polygon fill="none" stroke="black" points="177.5,-73 177.5,-92 343.5,-92 343.5,-73 177.5,-73"/>
<text text-anchor="middle" x="260.5" y="-80" font-family="Helvetica,sans-Serif" font-size="10.00">Ogre::HardwareBufferManager</text>
</a>
</g>
</g>
<!-- Node1&#45;&gt;Node4 -->
<g id="edge3" class="edge">
<title>Node1&#45;&gt;Node4</title>
<path fill="none" stroke="midnightblue" d="M191.02,-128.93C208.56,-117.46 232.77,-101.63 247.49,-92.01"/>
<polygon fill="midnightblue" stroke="midnightblue" points="188.99,-126.07 182.54,-134.48 192.82,-131.93 188.99,-126.07"/>
</g>
<!-- Node2 -->
<g id="node2" class="node">
<title>Node2</title>
<g id="a_node2"><a xlink:title=" ">
<polygon fill="none" stroke="#bfbfbf" points="134,-190.5 134,-209.5 205,-209.5 205,-190.5 134,-190.5"/>
<text text-anchor="middle" x="169.5" y="-197.5" font-family="Helvetica,sans-Serif" font-size="10.00">BufferAlloc</text>
</a>
</g>
</g>
<!-- Node2&#45;&gt;Node1 -->
<g id="edge1" class="edge">
<title>Node2&#45;&gt;Node1</title>
<path fill="none" stroke="midnightblue" d="M169.5,-179.8C169.5,-170.91 169.5,-160.78 169.5,-153.75"/>
<polygon fill="midnightblue" stroke="midnightblue" points="166,-180.08 169.5,-190.08 173,-180.08 166,-180.08"/>
</g>
<!-- Node5 -->
<g id="node5" class="node">
<title>Node5</title>
<g id="a_node5"><a xlink:href="class_ogre_1_1_default_hardware_buffer_manager.html" target="_top" xlink:title="DefaultHardwareBufferManager as a Singleton.">
<polygon fill="none" stroke="black" points="181,-0.5 181,-30.5 340,-30.5 340,-0.5 181,-0.5"/>
<text text-anchor="start" x="189" y="-18.5" font-family="Helvetica,sans-Serif" font-size="10.00">Ogre::DefaultHardwareBuffer</text>
<text text-anchor="middle" x="260.5" y="-7.5" font-family="Helvetica,sans-Serif" font-size="10.00">Manager</text>
</a>
</g>
</g>
<!-- Node4&#45;&gt;Node5 -->
<g id="edge4" class="edge">
<title>Node4&#45;&gt;Node5</title>
<path fill="none" stroke="midnightblue" d="M260.5,-62.41C260.5,-52.22 260.5,-39.9 260.5,-30.59"/>
<polygon fill="midnightblue" stroke="midnightblue" points="257,-62.73 260.5,-72.73 264,-62.73 257,-62.73"/>
</g>
</g>
</svg>
