<?xml version="1.0" encoding="UTF-8" standalone="no"?>
<!DOCTYPE svg PUBLIC "-//W3C//DTD SVG 1.1//EN"
 "http://www.w3.org/Graphics/SVG/1.1/DTD/svg11.dtd">
<!-- Generated by graphviz version 2.43.0 (0)
 -->
<!-- Title: Ogre::ScriptLoader Pages: 1 -->
<svg width="694pt" height="256pt"
 viewBox="0.00 0.00 694.00 256.00" xmlns="http://www.w3.org/2000/svg" xmlns:xlink="http://www.w3.org/1999/xlink">
<g id="graph0" class="graph" transform="scale(1 1) rotate(0) translate(4 252)">
<title>Ogre::ScriptLoader</title>
<!-- Node1 -->
<g id="node1" class="node">
<title>Node1</title>
<g id="a_node1"><a xlink:title="Abstract class defining the interface used by classes which wish to perform script loading to define ...">
<polygon fill="#bfbfbf" stroke="black" points="0,-152.5 0,-171.5 107,-171.5 107,-152.5 0,-152.5"/>
<text text-anchor="middle" x="53.5" y="-159.5" font-family="Helvetica,sans-Serif" font-size="10.00">Ogre::ScriptLoader</text>
</a>
</g>
</g>
<!-- Node2 -->
<g id="node2" class="node">
<title>Node2</title>
<g id="a_node2"><a xlink:href="class_ogre_1_1_cg_fx_script_loader.html" target="_top" xlink:title="Manages Overlay objects, parsing them from .overlay files and storing a lookup library of them.">
<polygon fill="none" stroke="black" points="158,-228.5 158,-247.5 289,-247.5 289,-228.5 158,-228.5"/>
<text text-anchor="middle" x="223.5" y="-235.5" font-family="Helvetica,sans-Serif" font-size="10.00">Ogre::CgFxScriptLoader</text>
</a>
</g>
</g>
<!-- Node1&#45;&gt;Node2 -->
<g id="edge1" class="edge">
<title>Node1&#45;&gt;Node2</title>
<path fill="none" stroke="midnightblue" d="M74.53,-177.72C91.78,-190.55 117.81,-208.25 143,-219 151.88,-222.79 161.64,-225.9 171.21,-228.44"/>
<polygon fill="midnightblue" stroke="midnightblue" points="76.44,-174.78 66.36,-171.52 72.21,-180.35 76.44,-174.78"/>
</g>
<!-- Node3 -->
<g id="node3" class="node">
<title>Node3</title>
<g id="a_node3"><a xlink:href="class_ogre_1_1_overlay_manager.html" target="_top" xlink:title="Manages Overlay objects, parsing them from .overlay files and storing a lookup library of them.">
<polygon fill="none" stroke="black" points="160,-190.5 160,-209.5 287,-209.5 287,-190.5 160,-190.5"/>
<text text-anchor="middle" x="223.5" y="-197.5" font-family="Helvetica,sans-Serif" font-size="10.00">Ogre::OverlayManager</text>
</a>
</g>
</g>
<!-- Node1&#45;&gt;Node3 -->
<g id="edge2" class="edge">
<title>Node1&#45;&gt;Node3</title>
<path fill="none" stroke="midnightblue" d="M106.78,-173.82C130.46,-179.18 158.09,-185.43 180.41,-190.48"/>
<polygon fill="midnightblue" stroke="midnightblue" points="107.42,-170.38 96.89,-171.59 105.87,-177.21 107.42,-170.38"/>
</g>
<!-- Node4 -->
<g id="node4" class="node">
<title>Node4</title>
<g id="a_node4"><a xlink:href="class_ogre_1_1_quake3_shader_manager.html" target="_top" xlink:title="Class for managing Quake3 custom shaders.">
<polygon fill="none" stroke="black" points="144,-152.5 144,-171.5 303,-171.5 303,-152.5 144,-152.5"/>
<text text-anchor="middle" x="223.5" y="-159.5" font-family="Helvetica,sans-Serif" font-size="10.00">Ogre::Quake3ShaderManager</text>
</a>
</g>
</g>
<!-- Node1&#45;&gt;Node4 -->
<g id="edge3" class="edge">
<title>Node1&#45;&gt;Node4</title>
<path fill="none" stroke="midnightblue" d="M117.22,-162C125.9,-162 134.91,-162 143.84,-162"/>
<polygon fill="midnightblue" stroke="midnightblue" points="117.2,-158.5 107.2,-162 117.2,-165.5 117.2,-158.5"/>
</g>
<!-- Node5 -->
<g id="node5" class="node">
<title>Node5</title>
<g id="a_node5"><a xlink:href="class_ogre_1_1_resource_manager.html" target="_top" xlink:title="Defines a generic resource handler.">
<polygon fill="none" stroke="black" points="156.5,-114.5 156.5,-133.5 290.5,-133.5 290.5,-114.5 156.5,-114.5"/>
<text text-anchor="middle" x="223.5" y="-121.5" font-family="Helvetica,sans-Serif" font-size="10.00">Ogre::ResourceManager</text>
</a>
</g>
</g>
<!-- Node1&#45;&gt;Node5 -->
<g id="edge4" class="edge">
<title>Node1&#45;&gt;Node5</title>
<path fill="none" stroke="midnightblue" d="M106.78,-150.18C130.46,-144.82 158.09,-138.57 180.41,-133.52"/>
<polygon fill="midnightblue" stroke="midnightblue" points="105.87,-146.79 96.89,-152.41 107.42,-153.62 105.87,-146.79"/>
</g>
<!-- Node14 -->
<g id="node14" class="node">
<title>Node14</title>
<g id="a_node14"><a xlink:href="class_ogre_1_1_script_compiler_manager.html" target="_top" xlink:title="Manages threaded compilation of scripts.">
<polygon fill="none" stroke="black" points="143,-76.5 143,-95.5 304,-95.5 304,-76.5 143,-76.5"/>
<text text-anchor="middle" x="223.5" y="-83.5" font-family="Helvetica,sans-Serif" font-size="10.00">Ogre::ScriptCompilerManager</text>
</a>
</g>
</g>
<!-- Node1&#45;&gt;Node14 -->
<g id="edge13" class="edge">
<title>Node1&#45;&gt;Node14</title>
<path fill="none" stroke="midnightblue" d="M74.53,-146.28C91.78,-133.45 117.81,-115.75 143,-105 151.88,-101.21 161.64,-98.1 171.21,-95.56"/>
<polygon fill="midnightblue" stroke="midnightblue" points="72.21,-143.65 66.36,-152.48 76.44,-149.22 72.21,-143.65"/>
</g>
<!-- Node6 -->
<g id="node6" class="node">
<title>Node6</title>
<g id="a_node6"><a xlink:href="class_ogre_1_1_compositor_manager.html" target="_top" xlink:title="Class for managing Compositor settings for Ogre.">
<polygon fill="none" stroke="black" points="342,-228.5 342,-247.5 487,-247.5 487,-228.5 342,-228.5"/>
<text text-anchor="middle" x="414.5" y="-235.5" font-family="Helvetica,sans-Serif" font-size="10.00">Ogre::CompositorManager</text>
</a>
</g>
</g>
<!-- Node5&#45;&gt;Node6 -->
<g id="edge5" class="edge">
<title>Node5&#45;&gt;Node6</title>
<path fill="none" stroke="midnightblue" d="M297.44,-138.38C299.73,-139.78 301.93,-141.32 304,-143 333.03,-166.55 311.19,-195.19 340,-219 344.67,-222.86 350.04,-225.95 355.7,-228.42"/>
<polygon fill="midnightblue" stroke="midnightblue" points="298.67,-135.08 288.18,-133.59 295.46,-141.29 298.67,-135.08"/>
</g>
<!-- Node7 -->
<g id="node7" class="node">
<title>Node7</title>
<g id="a_node7"><a xlink:href="class_ogre_1_1_font_manager.html" target="_top" xlink:title="Manages Font resources, parsing .fontdef files and generally organising them.">
<polygon fill="none" stroke="black" points="359.5,-190.5 359.5,-209.5 469.5,-209.5 469.5,-190.5 359.5,-190.5"/>
<text text-anchor="middle" x="414.5" y="-197.5" font-family="Helvetica,sans-Serif" font-size="10.00">Ogre::FontManager</text>
</a>
</g>
</g>
<!-- Node5&#45;&gt;Node7 -->
<g id="edge6" class="edge">
<title>Node5&#45;&gt;Node7</title>
<path fill="none" stroke="midnightblue" d="M291.63,-137C295.93,-138.76 300.09,-140.74 304,-143 324.15,-154.63 319.96,-169.19 340,-181 346.59,-184.88 353.96,-187.98 361.43,-190.45"/>
<polygon fill="midnightblue" stroke="midnightblue" points="292.66,-133.65 282.07,-133.53 290.27,-140.23 292.66,-133.65"/>
</g>
<!-- Node8 -->
<g id="node8" class="node">
<title>Node8</title>
<g id="a_node8"><a xlink:href="class_ogre_1_1_gpu_program_manager.html" target="_top" xlink:title="This ResourceManager manages GPU shader programs.">
<polygon fill="none" stroke="black" points="340,-152.5 340,-171.5 489,-171.5 489,-152.5 340,-152.5"/>
<text text-anchor="middle" x="414.5" y="-159.5" font-family="Helvetica,sans-Serif" font-size="10.00">Ogre::GpuProgramManager</text>
</a>
</g>
</g>
<!-- Node5&#45;&gt;Node8 -->
<g id="edge7" class="edge">
<title>Node5&#45;&gt;Node8</title>
<path fill="none" stroke="midnightblue" d="M282.24,-135.61C309.12,-141.01 340.7,-147.36 366.15,-152.48"/>
<polygon fill="midnightblue" stroke="midnightblue" points="282.69,-132.13 272.19,-133.59 281.31,-138.99 282.69,-132.13"/>
</g>
<!-- Node9 -->
<g id="node9" class="node">
<title>Node9</title>
<g id="a_node9"><a xlink:href="class_ogre_1_1_material_manager.html" target="_top" xlink:title="Class for managing Material settings for Ogre.">
<polygon fill="none" stroke="black" points="350,-114.5 350,-133.5 479,-133.5 479,-114.5 350,-114.5"/>
<text text-anchor="middle" x="414.5" y="-121.5" font-family="Helvetica,sans-Serif" font-size="10.00">Ogre::MaterialManager</text>
</a>
</g>
</g>
<!-- Node5&#45;&gt;Node9 -->
<g id="edge8" class="edge">
<title>Node5&#45;&gt;Node9</title>
<path fill="none" stroke="midnightblue" d="M300.67,-124C317.03,-124 334.16,-124 349.98,-124"/>
<polygon fill="midnightblue" stroke="midnightblue" points="300.6,-120.5 290.6,-124 300.6,-127.5 300.6,-120.5"/>
</g>
<!-- Node10 -->
<g id="node10" class="node">
<title>Node10</title>
<g id="a_node10"><a xlink:href="class_ogre_1_1_mesh_manager.html" target="_top" xlink:title="Handles the management of mesh resources.">
<polygon fill="none" stroke="black" points="357,-76.5 357,-95.5 472,-95.5 472,-76.5 357,-76.5"/>
<text text-anchor="middle" x="414.5" y="-83.5" font-family="Helvetica,sans-Serif" font-size="10.00">Ogre::MeshManager</text>
</a>
</g>
</g>
<!-- Node5&#45;&gt;Node10 -->
<g id="edge9" class="edge">
<title>Node5&#45;&gt;Node10</title>
<path fill="none" stroke="midnightblue" d="M282.24,-112.39C309.12,-106.99 340.7,-100.64 366.15,-95.52"/>
<polygon fill="midnightblue" stroke="midnightblue" points="281.31,-109.01 272.19,-114.41 282.69,-115.87 281.31,-109.01"/>
</g>
<!-- Node11 -->
<g id="node11" class="node">
<title>Node11</title>
<g id="a_node11"><a xlink:href="class_ogre_1_1_skeleton_manager.html" target="_top" xlink:title="Handles the management of skeleton resources.">
<polygon fill="none" stroke="black" points="349,-38.5 349,-57.5 480,-57.5 480,-38.5 349,-38.5"/>
<text text-anchor="middle" x="414.5" y="-45.5" font-family="Helvetica,sans-Serif" font-size="10.00">Ogre::SkeletonManager</text>
</a>
</g>
</g>
<!-- Node5&#45;&gt;Node11 -->
<g id="edge10" class="edge">
<title>Node5&#45;&gt;Node11</title>
<path fill="none" stroke="midnightblue" d="M291.63,-111C295.93,-109.24 300.09,-107.26 304,-105 324.15,-93.37 319.96,-78.81 340,-67 346.59,-63.12 353.96,-60.02 361.43,-57.55"/>
<polygon fill="midnightblue" stroke="midnightblue" points="290.27,-107.77 282.07,-114.47 292.66,-114.35 290.27,-107.77"/>
</g>
<!-- Node12 -->
<g id="node12" class="node">
<title>Node12</title>
<g id="a_node12"><a xlink:href="class_ogre_1_1_texture_manager.html" target="_top" xlink:title="Class for loading &amp; managing textures.">
<polygon fill="none" stroke="black" points="352,-0.5 352,-19.5 477,-19.5 477,-0.5 352,-0.5"/>
<text text-anchor="middle" x="414.5" y="-7.5" font-family="Helvetica,sans-Serif" font-size="10.00">Ogre::TextureManager</text>
</a>
</g>
</g>
<!-- Node5&#45;&gt;Node12 -->
<g id="edge11" class="edge">
<title>Node5&#45;&gt;Node12</title>
<path fill="none" stroke="midnightblue" d="M297.44,-109.62C299.73,-108.22 301.93,-106.68 304,-105 333.03,-81.45 311.19,-52.81 340,-29 344.67,-25.14 350.04,-22.05 355.7,-19.58"/>
<polygon fill="midnightblue" stroke="midnightblue" points="295.46,-106.71 288.18,-114.41 298.67,-112.92 295.46,-106.71"/>
</g>
<!-- Node13 -->
<g id="node13" class="node">
<title>Node13</title>
<g id="a_node13"><a xlink:href="class_ogre_1_1_default_texture_manager.html" target="_top" xlink:title="Specialisation of TextureManager for offline processing. Cannot be used with an active RenderSystem.">
<polygon fill="none" stroke="black" points="525,-0.5 525,-19.5 686,-19.5 686,-0.5 525,-0.5"/>
<text text-anchor="middle" x="605.5" y="-7.5" font-family="Helvetica,sans-Serif" font-size="10.00">Ogre::DefaultTextureManager</text>
</a>
</g>
</g>
<!-- Node12&#45;&gt;Node13 -->
<g id="edge12" class="edge">
<title>Node12&#45;&gt;Node13</title>
<path fill="none" stroke="midnightblue" d="M487.26,-10C499.5,-10 512.28,-10 524.71,-10"/>
<polygon fill="midnightblue" stroke="midnightblue" points="487.12,-6.5 477.12,-10 487.12,-13.5 487.12,-6.5"/>
</g>
</g>
</svg>
