<?xml version="1.0" encoding="UTF-8" standalone="no"?>
<!DOCTYPE svg PUBLIC "-//W3C//DTD SVG 1.1//EN"
 "http://www.w3.org/Graphics/SVG/1.1/DTD/svg11.dtd">
<!-- Generated by graphviz version 2.43.0 (0)
 -->
<!-- Title: Ogre::Plugin Pages: 1 -->
<svg width="393pt" height="332pt"
 viewBox="0.00 0.00 393.00 332.00" xmlns="http://www.w3.org/2000/svg" xmlns:xlink="http://www.w3.org/1999/xlink">
<g id="graph0" class="graph" transform="scale(1 1) rotate(0) translate(4 328)">
<title>Ogre::Plugin</title>
<!-- Node1 -->
<g id="node1" class="node">
<title>Node1</title>
<g id="a_node1"><a xlink:title="Class defining a generic OGRE plugin.">
<polygon fill="#bfbfbf" stroke="black" points="107,-152.5 107,-171.5 183,-171.5 183,-152.5 107,-152.5"/>
<text text-anchor="middle" x="145" y="-159.5" font-family="Helvetica,sans-Serif" font-size="10.00">Ogre::Plugin</text>
</a>
</g>
</g>
<!-- Node3 -->
<g id="node3" class="node">
<title>Node3</title>
<g id="a_node3"><a xlink:href="class_ogre_1_1_assimp_plugin.html" target="_top" xlink:title=" ">
<polygon fill="none" stroke="black" points="246,-304.5 246,-323.5 358,-323.5 358,-304.5 246,-304.5"/>
<text text-anchor="middle" x="302" y="-311.5" font-family="Helvetica,sans-Serif" font-size="10.00">Ogre::AssimpPlugin</text>
</a>
</g>
</g>
<!-- Node1&#45;&gt;Node3 -->
<g id="edge2" class="edge">
<title>Node1&#45;&gt;Node3</title>
<path fill="none" stroke="midnightblue" d="M151.23,-181.77C160.06,-211.18 180.83,-266.09 219,-295 226.8,-300.91 236.14,-305.03 245.67,-307.89"/>
<polygon fill="midnightblue" stroke="midnightblue" points="154.51,-180.52 148.41,-171.85 147.78,-182.43 154.51,-180.52"/>
</g>
<!-- Node4 -->
<g id="node4" class="node">
<title>Node4</title>
<g id="a_node4"><a xlink:href="class_ogre_1_1_bsp_scene_manager_plugin.html" target="_top" xlink:title="Plugin instance for BSPSceneManager.">
<polygon fill="none" stroke="black" points="219,-266.5 219,-285.5 385,-285.5 385,-266.5 219,-266.5"/>
<text text-anchor="middle" x="302" y="-273.5" font-family="Helvetica,sans-Serif" font-size="10.00">Ogre::BspSceneManagerPlugin</text>
</a>
</g>
</g>
<!-- Node1&#45;&gt;Node4 -->
<g id="edge3" class="edge">
<title>Node1&#45;&gt;Node4</title>
<path fill="none" stroke="midnightblue" d="M155.12,-180.5C166.84,-202.27 189.27,-237.87 219,-257 225.02,-260.87 231.74,-263.96 238.67,-266.42"/>
<polygon fill="midnightblue" stroke="midnightblue" points="158.21,-178.85 150.5,-171.57 151.99,-182.06 158.21,-178.85"/>
</g>
<!-- Node5 -->
<g id="node5" class="node">
<title>Node5</title>
<g id="a_node5"><a xlink:href="class_ogre_1_1_cg_plugin.html" target="_top" xlink:title="Plugin instance for Cg Program Manager.">
<polygon fill="none" stroke="black" points="257.5,-228.5 257.5,-247.5 346.5,-247.5 346.5,-228.5 257.5,-228.5"/>
<text text-anchor="middle" x="302" y="-235.5" font-family="Helvetica,sans-Serif" font-size="10.00">Ogre::CgPlugin</text>
</a>
</g>
</g>
<!-- Node1&#45;&gt;Node5 -->
<g id="edge4" class="edge">
<title>Node1&#45;&gt;Node5</title>
<path fill="none" stroke="midnightblue" d="M162.8,-178.63C176.73,-191.51 197.65,-208.81 219,-219 230.87,-224.67 244.53,-228.7 257.25,-231.54"/>
<polygon fill="midnightblue" stroke="midnightblue" points="165.11,-176 155.45,-171.65 160.29,-181.07 165.11,-176"/>
</g>
<!-- Node6 -->
<g id="node6" class="node">
<title>Node6</title>
<g id="a_node6"><a xlink:href="class_ogre_1_1_dot_scene_plugin.html" target="_top" xlink:title=" ">
<polygon fill="none" stroke="black" points="241,-190.5 241,-209.5 363,-209.5 363,-190.5 241,-190.5"/>
<text text-anchor="middle" x="302" y="-197.5" font-family="Helvetica,sans-Serif" font-size="10.00">Ogre::DotScenePlugin</text>
</a>
</g>
</g>
<!-- Node1&#45;&gt;Node6 -->
<g id="edge5" class="edge">
<title>Node1&#45;&gt;Node6</title>
<path fill="none" stroke="midnightblue" d="M191.89,-174.15C200.87,-176.47 210.22,-178.84 219,-181 231.91,-184.18 246.01,-187.49 258.81,-190.45"/>
<polygon fill="midnightblue" stroke="midnightblue" points="192.53,-170.69 181.97,-171.57 190.77,-177.47 192.53,-170.69"/>
</g>
<!-- Node7 -->
<g id="node7" class="node">
<title>Node7</title>
<g id="a_node7"><a xlink:href="class_ogre_1_1_g_l_s_lang_plugin.html" target="_top" xlink:title="Plugin instance for Cg Program Manager.">
<polygon fill="none" stroke="black" points="243,-152.5 243,-171.5 361,-171.5 361,-152.5 243,-152.5"/>
<text text-anchor="middle" x="302" y="-159.5" font-family="Helvetica,sans-Serif" font-size="10.00">Ogre::GLSLangPlugin</text>
</a>
</g>
</g>
<!-- Node1&#45;&gt;Node7 -->
<g id="edge6" class="edge">
<title>Node1&#45;&gt;Node7</title>
<path fill="none" stroke="midnightblue" d="M193.13,-162C208.85,-162 226.54,-162 242.99,-162"/>
<polygon fill="midnightblue" stroke="midnightblue" points="193.13,-158.5 183.13,-162 193.13,-165.5 193.13,-158.5"/>
</g>
<!-- Node8 -->
<g id="node8" class="node">
<title>Node8</title>
<g id="a_node8"><a xlink:href="class_ogre_1_1_octree_plugin.html" target="_top" xlink:title="Plugin instance for Octree Manager.">
<polygon fill="none" stroke="black" points="248,-114.5 248,-133.5 356,-133.5 356,-114.5 248,-114.5"/>
<text text-anchor="middle" x="302" y="-121.5" font-family="Helvetica,sans-Serif" font-size="10.00">Ogre::OctreePlugin</text>
</a>
</g>
</g>
<!-- Node1&#45;&gt;Node8 -->
<g id="edge7" class="edge">
<title>Node1&#45;&gt;Node8</title>
<path fill="none" stroke="midnightblue" d="M191.89,-149.85C200.87,-147.53 210.22,-145.16 219,-143 231.91,-139.82 246.01,-136.51 258.81,-133.55"/>
<polygon fill="midnightblue" stroke="midnightblue" points="190.77,-146.53 181.97,-152.43 192.53,-153.31 190.77,-146.53"/>
</g>
<!-- Node9 -->
<g id="node9" class="node">
<title>Node9</title>
<g id="a_node9"><a xlink:href="class_ogre_1_1_octree_zone_plugin.html" target="_top" xlink:title="Plugin instance for OctreeZone.">
<polygon fill="none" stroke="black" points="235.5,-76.5 235.5,-95.5 368.5,-95.5 368.5,-76.5 235.5,-76.5"/>
<text text-anchor="middle" x="302" y="-83.5" font-family="Helvetica,sans-Serif" font-size="10.00">Ogre::OctreeZonePlugin</text>
</a>
</g>
</g>
<!-- Node1&#45;&gt;Node9 -->
<g id="edge8" class="edge">
<title>Node1&#45;&gt;Node9</title>
<path fill="none" stroke="midnightblue" d="M162.8,-145.37C176.73,-132.49 197.65,-115.19 219,-105 227.04,-101.16 235.91,-98.07 244.75,-95.59"/>
<polygon fill="midnightblue" stroke="midnightblue" points="160.29,-142.93 155.45,-152.35 165.11,-148 160.29,-142.93"/>
</g>
<!-- Node10 -->
<g id="node10" class="node">
<title>Node10</title>
<g id="a_node10"><a xlink:href="class_ogre_1_1_p_c_z_plugin.html" target="_top" xlink:title="Plugin instance for PCZ Manager.">
<polygon fill="none" stroke="black" points="254.5,-38.5 254.5,-57.5 349.5,-57.5 349.5,-38.5 254.5,-38.5"/>
<text text-anchor="middle" x="302" y="-45.5" font-family="Helvetica,sans-Serif" font-size="10.00">Ogre::PCZPlugin</text>
</a>
</g>
</g>
<!-- Node1&#45;&gt;Node10 -->
<g id="edge9" class="edge">
<title>Node1&#45;&gt;Node10</title>
<path fill="none" stroke="midnightblue" d="M155.12,-143.5C166.84,-121.73 189.27,-86.13 219,-67 229.45,-60.28 242,-55.93 254.1,-53.11"/>
<polygon fill="midnightblue" stroke="midnightblue" points="151.99,-141.94 150.5,-152.43 158.21,-145.15 151.99,-141.94"/>
</g>
<!-- Node11 -->
<g id="node11" class="node">
<title>Node11</title>
<g id="a_node11"><a xlink:href="class_ogre_1_1_particle_f_x_plugin.html" target="_top" xlink:title="Plugin instance for ParticleFX Manager.">
<polygon fill="none" stroke="black" points="239.5,-0.5 239.5,-19.5 364.5,-19.5 364.5,-0.5 239.5,-0.5"/>
<text text-anchor="middle" x="302" y="-7.5" font-family="Helvetica,sans-Serif" font-size="10.00">Ogre::ParticleFXPlugin</text>
</a>
</g>
</g>
<!-- Node1&#45;&gt;Node11 -->
<g id="edge10" class="edge">
<title>Node1&#45;&gt;Node11</title>
<path fill="none" stroke="midnightblue" d="M151.23,-142.23C160.06,-112.82 180.83,-57.91 219,-29 225.06,-24.41 232.04,-20.9 239.31,-18.23"/>
<polygon fill="midnightblue" stroke="midnightblue" points="147.78,-141.57 148.41,-152.15 154.51,-143.48 147.78,-141.57"/>
</g>
<!-- Node2 -->
<g id="node2" class="node">
<title>Node2</title>
<g id="a_node2"><a xlink:title=" ">
<polygon fill="none" stroke="#bfbfbf" points="0,-152.5 0,-171.5 71,-171.5 71,-152.5 0,-152.5"/>
<text text-anchor="middle" x="35.5" y="-159.5" font-family="Helvetica,sans-Serif" font-size="10.00">PluginAlloc</text>
</a>
</g>
</g>
<!-- Node2&#45;&gt;Node1 -->
<g id="edge1" class="edge">
<title>Node2&#45;&gt;Node1</title>
<path fill="none" stroke="midnightblue" d="M81.28,-162C89.79,-162 98.62,-162 106.86,-162"/>
<polygon fill="midnightblue" stroke="midnightblue" points="81.11,-158.5 71.11,-162 81.11,-165.5 81.11,-158.5"/>
</g>
</g>
</svg>
