<?xml version="1.0" encoding="UTF-8" standalone="no"?>
<!DOCTYPE svg PUBLIC "-//W3C//DTD SVG 1.1//EN"
 "http://www.w3.org/Graphics/SVG/1.1/DTD/svg11.dtd">
<!-- Generated by graphviz version 2.43.0 (0)
 -->
<!-- Title: Graphical Class Hierarchy Pages: 1 -->
<svg width="285pt" height="142pt"
 viewBox="0.00 0.00 285.00 142.00" xmlns="http://www.w3.org/2000/svg" xmlns:xlink="http://www.w3.org/1999/xlink">
<g id="graph0" class="graph" transform="scale(1 1) rotate(0) translate(4 138)">
<title>Graphical Class Hierarchy</title>
<!-- Node908 -->
<g id="node1" class="node">
<title>Node908</title>
<g id="a_node1"><a xlink:title=" ">
<polygon fill="none" stroke="#bfbfbf" points="0,-57.5 0,-76.5 96,-76.5 96,-57.5 0,-57.5"/>
<text text-anchor="middle" x="48" y="-64.5" font-family="Helvetica,sans-Serif" font-size="10.00">VertexDataAlloc</text>
</a>
</g>
</g>
<!-- Node0 -->
<g id="node2" class="node">
<title>Node0</title>
<g id="a_node2"><a xlink:href="class_ogre_1_1_vertex_buffer_binding.html" target="_top" xlink:title="Records the state of all the vertex buffer bindings required to provide a vertex declaration with the...">
<polygon fill="none" stroke="black" points="132,-114.5 132,-133.5 277,-133.5 277,-114.5 132,-114.5"/>
<text text-anchor="middle" x="204.5" y="-121.5" font-family="Helvetica,sans-Serif" font-size="10.00">Ogre::VertexBufferBinding</text>
</a>
</g>
</g>
<!-- Node908&#45;&gt;Node0 -->
<g id="edge1" class="edge">
<title>Node908&#45;&gt;Node0</title>
<path fill="none" stroke="midnightblue" d="M76.67,-81.1C92.58,-88.84 113.1,-98.22 132,-105 141.79,-108.51 152.55,-111.71 162.67,-114.43"/>
<polygon fill="midnightblue" stroke="midnightblue" points="77.93,-77.82 67.41,-76.53 74.83,-84.09 77.93,-77.82"/>
</g>
<!-- Node910 -->
<g id="node3" class="node">
<title>Node910</title>
<g id="a_node3"><a xlink:href="class_ogre_1_1_vertex_data.html" target="_top" xlink:title="collects together all the vertex&#45;related information used to render geometry.">
<polygon fill="none" stroke="black" points="154,-76.5 154,-95.5 255,-95.5 255,-76.5 154,-76.5"/>
<text text-anchor="middle" x="204.5" y="-83.5" font-family="Helvetica,sans-Serif" font-size="10.00">Ogre::VertexData</text>
</a>
</g>
</g>
<!-- Node908&#45;&gt;Node910 -->
<g id="edge2" class="edge">
<title>Node908&#45;&gt;Node910</title>
<path fill="none" stroke="midnightblue" d="M106.28,-74.04C121.92,-75.97 138.74,-78.04 153.92,-79.9"/>
<polygon fill="midnightblue" stroke="midnightblue" points="106.55,-70.55 96.19,-72.8 105.69,-77.5 106.55,-70.55"/>
</g>
<!-- Node911 -->
<g id="node4" class="node">
<title>Node911</title>
<g id="a_node4"><a xlink:href="class_ogre_1_1_vertex_declaration.html" target="_top" xlink:title="This class declares the format of a set of vertex inputs, which can be issued to the rendering API th...">
<polygon fill="none" stroke="black" points="137.5,-38.5 137.5,-57.5 271.5,-57.5 271.5,-38.5 137.5,-38.5"/>
<text text-anchor="middle" x="204.5" y="-45.5" font-family="Helvetica,sans-Serif" font-size="10.00">Ogre::VertexDeclaration</text>
</a>
</g>
</g>
<!-- Node908&#45;&gt;Node911 -->
<g id="edge3" class="edge">
<title>Node908&#45;&gt;Node911</title>
<path fill="none" stroke="midnightblue" d="M106.13,-59.97C116.27,-58.73 126.9,-57.42 137.26,-56.15"/>
<polygon fill="midnightblue" stroke="midnightblue" points="105.69,-56.5 96.19,-61.2 106.55,-63.45 105.69,-56.5"/>
</g>
<!-- Node912 -->
<g id="node5" class="node">
<title>Node912</title>
<g id="a_node5"><a xlink:href="class_ogre_1_1_vertex_element.html" target="_top" xlink:title="This class declares the usage of a single vertex buffer as a component of a complete VertexDeclaratio...">
<polygon fill="none" stroke="black" points="145,-0.5 145,-19.5 264,-19.5 264,-0.5 145,-0.5"/>
<text text-anchor="middle" x="204.5" y="-7.5" font-family="Helvetica,sans-Serif" font-size="10.00">Ogre::VertexElement</text>
</a>
</g>
</g>
<!-- Node908&#45;&gt;Node912 -->
<g id="edge4" class="edge">
<title>Node908&#45;&gt;Node912</title>
<path fill="none" stroke="midnightblue" d="M76.67,-52.9C92.58,-45.16 113.1,-35.78 132,-29 141.79,-25.49 152.55,-22.29 162.67,-19.57"/>
<polygon fill="midnightblue" stroke="midnightblue" points="74.83,-49.91 67.41,-57.47 77.93,-56.18 74.83,-49.91"/>
</g>
</g>
</svg>
