<?xml version="1.0" encoding="UTF-8" standalone="no"?>
<!DOCTYPE svg PUBLIC "-//W3C//DTD SVG 1.1//EN"
 "http://www.w3.org/Graphics/SVG/1.1/DTD/svg11.dtd">
<!-- Generated by graphviz version 2.43.0 (0)
 -->
<!-- Title: Graphical Class Hierarchy Pages: 1 -->
<svg width="702pt" height="264pt"
 viewBox="0.00 0.00 702.00 263.50" xmlns="http://www.w3.org/2000/svg" xmlns:xlink="http://www.w3.org/1999/xlink">
<g id="graph0" class="graph" transform="scale(1 1) rotate(0) translate(4 259.5)">
<title>Graphical Class Hierarchy</title>
<!-- Node57 -->
<g id="node1" class="node">
<title>Node57</title>
<g id="a_node1"><a xlink:title=" ">
<polygon fill="none" stroke="#bfbfbf" points="0,-88 0,-107 71,-107 71,-88 0,-88"/>
<text text-anchor="middle" x="35.5" y="-95" font-family="Helvetica,sans-Serif" font-size="10.00">BufferAlloc</text>
</a>
</g>
</g>
<!-- Node0 -->
<g id="node2" class="node">
<title>Node0</title>
<g id="a_node2"><a xlink:href="class_ogre_1_1_hardware_buffer.html" target="_top" xlink:title="Abstract class defining common features of hardware buffers.">
<polygon fill="none" stroke="black" points="140.5,-160 140.5,-179 263.5,-179 263.5,-160 140.5,-160"/>
<text text-anchor="middle" x="202" y="-167" font-family="Helvetica,sans-Serif" font-size="10.00">Ogre::HardwareBuffer</text>
</a>
</g>
</g>
<!-- Node57&#45;&gt;Node0 -->
<g id="edge1" class="edge">
<title>Node57&#45;&gt;Node0</title>
<path fill="none" stroke="midnightblue" d="M67.84,-111.22C100.4,-125.47 150.51,-147.4 179.07,-159.9"/>
<polygon fill="midnightblue" stroke="midnightblue" points="68.91,-107.86 58.34,-107.06 66.1,-114.28 68.91,-107.86"/>
</g>
<!-- Node63 -->
<g id="node7" class="node">
<title>Node63</title>
<g id="a_node7"><a xlink:href="class_ogre_1_1_hardware_buffer_manager_base.html" target="_top" xlink:title="Base definition of a hardware buffer manager.">
<polygon fill="none" stroke="black" points="107,-88 107,-107 297,-107 297,-88 107,-88"/>
<text text-anchor="middle" x="202" y="-95" font-family="Helvetica,sans-Serif" font-size="10.00">Ogre::HardwareBufferManagerBase</text>
</a>
</g>
</g>
<!-- Node57&#45;&gt;Node63 -->
<g id="edge6" class="edge">
<title>Node57&#45;&gt;Node63</title>
<path fill="none" stroke="midnightblue" d="M81.54,-97.5C89.55,-97.5 98.16,-97.5 106.96,-97.5"/>
<polygon fill="midnightblue" stroke="midnightblue" points="81.39,-94 71.39,-97.5 81.39,-101 81.39,-94"/>
</g>
<!-- Node67 -->
<g id="node11" class="node">
<title>Node67</title>
<g id="a_node11"><a xlink:href="class_ogre_1_1_vertex_cache_profiler.html" target="_top" xlink:title="Vertex cache profiler.">
<polygon fill="none" stroke="black" points="130.5,-50 130.5,-69 273.5,-69 273.5,-50 130.5,-50"/>
<text text-anchor="middle" x="202" y="-57" font-family="Helvetica,sans-Serif" font-size="10.00">Ogre::VertexCacheProfiler</text>
</a>
</g>
</g>
<!-- Node57&#45;&gt;Node67 -->
<g id="edge10" class="edge">
<title>Node57&#45;&gt;Node67</title>
<path fill="none" stroke="midnightblue" d="M79.94,-85.33C88.86,-82.96 98.21,-80.57 107,-78.5 121.1,-75.18 136.47,-71.92 150.62,-69.07"/>
<polygon fill="midnightblue" stroke="midnightblue" points="78.84,-82 70.1,-87.98 80.66,-88.76 78.84,-82"/>
</g>
<!-- Node1 -->
<g id="node3" class="node">
<title>Node1</title>
<g id="a_node3"><a xlink:href="class_ogre_1_1_default_hardware_buffer.html" target="_top" xlink:title="Specialisation of HardwareBuffer for emulation.">
<polygon fill="none" stroke="black" points="336.5,-236 336.5,-255 495.5,-255 495.5,-236 336.5,-236"/>
<text text-anchor="middle" x="416" y="-243" font-family="Helvetica,sans-Serif" font-size="10.00">Ogre::DefaultHardwareBuffer</text>
</a>
</g>
</g>
<!-- Node0&#45;&gt;Node1 -->
<g id="edge2" class="edge">
<title>Node0&#45;&gt;Node1</title>
<path fill="none" stroke="midnightblue" d="M231.17,-183.67C257.1,-196.28 296.91,-214.52 333,-226.5 343.82,-230.09 355.66,-233.26 366.89,-235.92"/>
<polygon fill="midnightblue" stroke="midnightblue" points="232.46,-180.41 221.94,-179.14 229.38,-186.69 232.46,-180.41"/>
</g>
<!-- Node2 -->
<g id="node4" class="node">
<title>Node2</title>
<g id="a_node4"><a xlink:href="class_ogre_1_1_hardware_index_buffer.html" target="_top" xlink:title="Specialisation of HardwareBuffer for vertex index buffers, still abstract.">
<polygon fill="none" stroke="black" points="341,-198 341,-217 491,-217 491,-198 341,-198"/>
<text text-anchor="middle" x="416" y="-205" font-family="Helvetica,sans-Serif" font-size="10.00">Ogre::HardwareIndexBuffer</text>
</a>
</g>
</g>
<!-- Node0&#45;&gt;Node2 -->
<g id="edge3" class="edge">
<title>Node0&#45;&gt;Node2</title>
<path fill="none" stroke="midnightblue" d="M266.3,-180.85C296.72,-186.3 332.77,-192.76 361.76,-197.96"/>
<polygon fill="midnightblue" stroke="midnightblue" points="266.68,-177.36 256.22,-179.04 265.45,-184.25 266.68,-177.36"/>
</g>
<!-- Node3 -->
<g id="node5" class="node">
<title>Node3</title>
<g id="a_node5"><a xlink:href="class_ogre_1_1_hardware_pixel_buffer.html" target="_top" xlink:title="Specialisation of HardwareBuffer for a pixel buffer.">
<polygon fill="none" stroke="black" points="342.5,-160 342.5,-179 489.5,-179 489.5,-160 342.5,-160"/>
<text text-anchor="middle" x="416" y="-167" font-family="Helvetica,sans-Serif" font-size="10.00">Ogre::HardwarePixelBuffer</text>
</a>
</g>
</g>
<!-- Node0&#45;&gt;Node3 -->
<g id="edge4" class="edge">
<title>Node0&#45;&gt;Node3</title>
<path fill="none" stroke="midnightblue" d="M273.99,-169.5C295.94,-169.5 320.15,-169.5 342.22,-169.5"/>
<polygon fill="midnightblue" stroke="midnightblue" points="273.75,-166 263.75,-169.5 273.75,-173 273.75,-166"/>
</g>
<!-- Node4 -->
<g id="node6" class="node">
<title>Node4</title>
<g id="a_node6"><a xlink:href="class_ogre_1_1_hardware_vertex_buffer.html" target="_top" xlink:title="Specialisation of HardwareBuffer for a vertex buffer.">
<polygon fill="none" stroke="black" points="338.5,-122 338.5,-141 493.5,-141 493.5,-122 338.5,-122"/>
<text text-anchor="middle" x="416" y="-129" font-family="Helvetica,sans-Serif" font-size="10.00">Ogre::HardwareVertexBuffer</text>
</a>
</g>
</g>
<!-- Node0&#45;&gt;Node4 -->
<g id="edge5" class="edge">
<title>Node0&#45;&gt;Node4</title>
<path fill="none" stroke="midnightblue" d="M266.3,-158.15C296.72,-152.7 332.77,-146.24 361.76,-141.04"/>
<polygon fill="midnightblue" stroke="midnightblue" points="265.45,-154.75 256.22,-159.96 266.68,-161.64 265.45,-154.75"/>
</g>
<!-- Node64 -->
<g id="node8" class="node">
<title>Node64</title>
<g id="a_node8"><a xlink:href="class_ogre_1_1_default_hardware_buffer_manager_base.html" target="_top" xlink:title="Specialisation of HardwareBufferManagerBase to emulate hardware buffers.">
<polygon fill="none" stroke="black" points="336.5,-72.5 336.5,-102.5 495.5,-102.5 495.5,-72.5 336.5,-72.5"/>
<text text-anchor="start" x="344.5" y="-90.5" font-family="Helvetica,sans-Serif" font-size="10.00">Ogre::DefaultHardwareBuffer</text>
<text text-anchor="middle" x="416" y="-79.5" font-family="Helvetica,sans-Serif" font-size="10.00">ManagerBase</text>
</a>
</g>
</g>
<!-- Node63&#45;&gt;Node64 -->
<g id="edge7" class="edge">
<title>Node63&#45;&gt;Node64</title>
<path fill="none" stroke="midnightblue" d="M307.35,-92.58C317.09,-92.12 326.84,-91.66 336.29,-91.21"/>
<polygon fill="midnightblue" stroke="midnightblue" points="307.04,-89.09 297.22,-93.06 307.37,-96.08 307.04,-89.09"/>
</g>
<!-- Node65 -->
<g id="node9" class="node">
<title>Node65</title>
<g id="a_node9"><a xlink:href="class_ogre_1_1_hardware_buffer_manager.html" target="_top" xlink:title="Singleton wrapper for hardware buffer manager.">
<polygon fill="none" stroke="black" points="333,-25 333,-44 499,-44 499,-25 333,-25"/>
<text text-anchor="middle" x="416" y="-32" font-family="Helvetica,sans-Serif" font-size="10.00">Ogre::HardwareBufferManager</text>
</a>
</g>
</g>
<!-- Node63&#45;&gt;Node65 -->
<g id="edge8" class="edge">
<title>Node63&#45;&gt;Node65</title>
<path fill="none" stroke="midnightblue" d="M269.61,-85.72C278.89,-83.59 288.23,-81.18 297,-78.5 313.57,-73.43 316.82,-69.73 333,-63.5 350.76,-56.67 370.9,-49.53 386.78,-44.05"/>
<polygon fill="midnightblue" stroke="midnightblue" points="268.63,-82.35 259.62,-87.92 270.14,-89.19 268.63,-82.35"/>
</g>
<!-- Node66 -->
<g id="node10" class="node">
<title>Node66</title>
<g id="a_node10"><a xlink:href="class_ogre_1_1_default_hardware_buffer_manager.html" target="_top" xlink:title="DefaultHardwareBufferManager as a Singleton.">
<polygon fill="none" stroke="black" points="535,-19.5 535,-49.5 694,-49.5 694,-19.5 535,-19.5"/>
<text text-anchor="start" x="543" y="-37.5" font-family="Helvetica,sans-Serif" font-size="10.00">Ogre::DefaultHardwareBuffer</text>
<text text-anchor="middle" x="614.5" y="-26.5" font-family="Helvetica,sans-Serif" font-size="10.00">Manager</text>
</a>
</g>
</g>
<!-- Node65&#45;&gt;Node66 -->
<g id="edge9" class="edge">
<title>Node65&#45;&gt;Node66</title>
<path fill="none" stroke="midnightblue" d="M509.47,-34.5C517.93,-34.5 526.45,-34.5 534.78,-34.5"/>
<polygon fill="midnightblue" stroke="midnightblue" points="509.2,-31 499.2,-34.5 509.2,-38 509.2,-31"/>
</g>
<!-- Node816 -->
<g id="node12" class="node">
<title>Node816</title>
<g id="a_node12"><a xlink:href="class_ogre_1_1_singleton.html" target="_top" xlink:title=" ">
<polygon fill="none" stroke="black" points="127,-0.5 127,-30.5 277,-30.5 277,-0.5 127,-0.5"/>
<text text-anchor="start" x="135" y="-18.5" font-family="Helvetica,sans-Serif" font-size="10.00">Ogre::Singleton&lt; Hardware</text>
<text text-anchor="middle" x="202" y="-7.5" font-family="Helvetica,sans-Serif" font-size="10.00">BufferManager &gt;</text>
</a>
</g>
</g>
<!-- Node816&#45;&gt;Node65 -->
<g id="edge11" class="edge">
<title>Node816&#45;&gt;Node65</title>
<path fill="none" stroke="midnightblue" d="M287.42,-23.07C302.41,-24.41 318.01,-25.81 332.94,-27.15"/>
<polygon fill="midnightblue" stroke="midnightblue" points="287.42,-19.55 277.15,-22.15 286.79,-26.52 287.42,-19.55"/>
</g>
</g>
</svg>
