<?xml version="1.0" encoding="UTF-8" standalone="no"?>
<!DOCTYPE svg PUBLIC "-//W3C//DTD SVG 1.1//EN"
 "http://www.w3.org/Graphics/SVG/1.1/DTD/svg11.dtd">
<!-- Generated by graphviz version 2.43.0 (0)
 -->
<!-- Title: Graphical Class Hierarchy Pages: 1 -->
<svg width="293pt" height="1133pt"
 viewBox="0.00 0.00 293.00 1133.00" xmlns="http://www.w3.org/2000/svg" xmlns:xlink="http://www.w3.org/1999/xlink">
<g id="graph0" class="graph" transform="scale(1 1) rotate(0) translate(4 1129)">
<title>Graphical Class Hierarchy</title>
<!-- Node915 -->
<g id="node1" class="node">
<title>Node915</title>
<g id="a_node1"><a xlink:title=" ">
<polygon fill="none" stroke="#bfbfbf" points="0,-541.5 0,-560.5 68,-560.5 68,-541.5 0,-541.5"/>
<text text-anchor="middle" x="34" y="-548.5" font-family="Helvetica,sans-Serif" font-size="10.00">shared_ptr</text>
</a>
</g>
</g>
<!-- Node0 -->
<g id="node2" class="node">
<title>Node0</title>
<g id="a_node2"><a xlink:href="class_ogre_1_1_shared_ptr.html" target="_top" xlink:title=" ">
<polygon fill="none" stroke="black" points="114.5,-1105.5 114.5,-1124.5 274.5,-1124.5 274.5,-1105.5 114.5,-1105.5"/>
<text text-anchor="middle" x="194.5" y="-1112.5" font-family="Helvetica,sans-Serif" font-size="10.00">Ogre::SharedPtr&lt; BspLevel &gt;</text>
</a>
</g>
</g>
<!-- Node915&#45;&gt;Node0 -->
<g id="edge1" class="edge">
<title>Node915&#45;&gt;Node0</title>
<path fill="none" stroke="midnightblue" d="M34.57,-570.8C33.09,-659.26 31.69,-1017.41 104,-1096 107.44,-1099.74 111.42,-1102.84 115.75,-1105.41"/>
<polygon fill="midnightblue" stroke="midnightblue" points="38.08,-570.63 34.77,-560.56 31.08,-570.5 38.08,-570.63"/>
</g>
<!-- Node917 -->
<g id="node3" class="node">
<title>Node917</title>
<g id="a_node3"><a xlink:href="class_ogre_1_1_shared_ptr.html" target="_top" xlink:title=" ">
<polygon fill="none" stroke="black" points="130.5,-1045.5 130.5,-1086.5 258.5,-1086.5 258.5,-1045.5 130.5,-1045.5"/>
<text text-anchor="start" x="138.5" y="-1074.5" font-family="Helvetica,sans-Serif" font-size="10.00">Ogre::SharedPtr&lt; Ogre</text>
<text text-anchor="start" x="138.5" y="-1063.5" font-family="Helvetica,sans-Serif" font-size="10.00">::ControllerFunction</text>
<text text-anchor="middle" x="194.5" y="-1052.5" font-family="Helvetica,sans-Serif" font-size="10.00">&lt; T &gt; &gt;</text>
</a>
</g>
</g>
<!-- Node915&#45;&gt;Node917 -->
<g id="edge2" class="edge">
<title>Node915&#45;&gt;Node917</title>
<path fill="none" stroke="midnightblue" d="M35.14,-570.99C36.09,-653.12 43.7,-963.58 104,-1036 110.92,-1044.31 120.22,-1050.33 130.22,-1054.69"/>
<polygon fill="midnightblue" stroke="midnightblue" points="38.63,-570.56 35.04,-560.59 31.63,-570.62 38.63,-570.56"/>
</g>
<!-- Node918 -->
<g id="node4" class="node">
<title>Node918</title>
<g id="a_node4"><a xlink:href="class_ogre_1_1_shared_ptr.html" target="_top" xlink:title=" ">
<polygon fill="none" stroke="black" points="122,-996 122,-1026 267,-1026 267,-996 122,-996"/>
<text text-anchor="start" x="130" y="-1014" font-family="Helvetica,sans-Serif" font-size="10.00">Ogre::SharedPtr&lt; Abstract</text>
<text text-anchor="middle" x="194.5" y="-1003" font-family="Helvetica,sans-Serif" font-size="10.00">NodeList &gt;</text>
</a>
</g>
</g>
<!-- Node915&#45;&gt;Node918 -->
<g id="edge3" class="edge">
<title>Node915&#45;&gt;Node918</title>
<path fill="none" stroke="midnightblue" d="M35.37,-571.02C37.21,-648.08 47.67,-924.42 104,-987 108.95,-992.5 115.01,-996.8 121.62,-1000.15"/>
<polygon fill="midnightblue" stroke="midnightblue" points="38.86,-570.7 35.15,-560.78 31.87,-570.85 38.86,-570.7"/>
</g>
<!-- Node919 -->
<g id="node5" class="node">
<title>Node919</title>
<g id="a_node5"><a xlink:href="class_ogre_1_1_shared_ptr.html" target="_top" xlink:title=" ">
<polygon fill="none" stroke="black" points="110.5,-947 110.5,-977 278.5,-977 278.5,-947 110.5,-947"/>
<text text-anchor="start" x="118.5" y="-965" font-family="Helvetica,sans-Serif" font-size="10.00">Ogre::SharedPtr&lt; MemoryData</text>
<text text-anchor="middle" x="194.5" y="-954" font-family="Helvetica,sans-Serif" font-size="10.00">Stream &gt;</text>
</a>
</g>
</g>
<!-- Node915&#45;&gt;Node919 -->
<g id="edge4" class="edge">
<title>Node915&#45;&gt;Node919</title>
<path fill="none" stroke="midnightblue" d="M35.84,-570.95C39.23,-642.12 54.23,-882.24 104,-937 107.47,-940.82 111.47,-944.08 115.82,-946.85"/>
<polygon fill="midnightblue" stroke="midnightblue" points="39.32,-570.53 35.38,-560.69 32.33,-570.84 39.32,-570.53"/>
</g>
<!-- Node920 -->
<g id="node6" class="node">
<title>Node920</title>
<g id="a_node6"><a xlink:href="class_ogre_1_1_shared_ptr.html" target="_top" xlink:title=" ">
<polygon fill="none" stroke="black" points="107.5,-908.5 107.5,-927.5 281.5,-927.5 281.5,-908.5 107.5,-908.5"/>
<text text-anchor="middle" x="194.5" y="-915.5" font-family="Helvetica,sans-Serif" font-size="10.00">Ogre::SharedPtr&lt; DataStream &gt;</text>
</a>
</g>
</g>
<!-- Node915&#45;&gt;Node920 -->
<g id="edge5" class="edge">
<title>Node915&#45;&gt;Node920</title>
<path fill="none" stroke="midnightblue" d="M36.13,-570.8C40.35,-637.39 57.38,-851.75 104,-899 107.68,-902.73 111.9,-905.82 116.46,-908.36"/>
<polygon fill="midnightblue" stroke="midnightblue" points="39.62,-570.55 35.53,-560.78 32.64,-570.98 39.62,-570.55"/>
</g>
<!-- Node921 -->
<g id="node7" class="node">
<title>Node921</title>
<g id="a_node7"><a xlink:href="class_ogre_1_1_shared_ptr.html" target="_top" xlink:title=" ">
<polygon fill="none" stroke="black" points="119,-859 119,-889 270,-889 270,-859 119,-859"/>
<text text-anchor="start" x="127" y="-877" font-family="Helvetica,sans-Serif" font-size="10.00">Ogre::SharedPtr&lt; Animable</text>
<text text-anchor="middle" x="194.5" y="-866" font-family="Helvetica,sans-Serif" font-size="10.00">Value &gt;</text>
</a>
</g>
</g>
<!-- Node915&#45;&gt;Node921 -->
<g id="edge6" class="edge">
<title>Node915&#45;&gt;Node921</title>
<path fill="none" stroke="midnightblue" d="M36.91,-570.59C43.13,-630.45 64.72,-809.31 104,-850 108.36,-854.51 113.46,-858.21 118.99,-861.23"/>
<polygon fill="midnightblue" stroke="midnightblue" points="40.39,-570.17 35.9,-560.57 33.42,-570.87 40.39,-570.17"/>
</g>
<!-- Node922 -->
<g id="node8" class="node">
<title>Node922</title>
<g id="a_node8"><a xlink:href="class_ogre_1_1_shared_ptr.html" target="_top" xlink:title=" ">
<polygon fill="none" stroke="black" points="118.5,-810 118.5,-840 270.5,-840 270.5,-810 118.5,-810"/>
<text text-anchor="start" x="126.5" y="-828" font-family="Helvetica,sans-Serif" font-size="10.00">Ogre::SharedPtr&lt; Hardware</text>
<text text-anchor="middle" x="194.5" y="-817" font-family="Helvetica,sans-Serif" font-size="10.00">VertexBuffer &gt;</text>
</a>
</g>
</g>
<!-- Node915&#45;&gt;Node922 -->
<g id="edge7" class="edge">
<title>Node915&#45;&gt;Node922</title>
<path fill="none" stroke="midnightblue" d="M34.37,-570.78C34.02,-617.54 39.89,-735.76 104,-800 108.22,-804.23 113.08,-807.75 118.33,-810.69"/>
<polygon fill="midnightblue" stroke="midnightblue" points="37.87,-570.81 34.56,-560.74 30.87,-570.68 37.87,-570.81"/>
</g>
<!-- Node923 -->
<g id="node9" class="node">
<title>Node923</title>
<g id="a_node9"><a xlink:href="class_ogre_1_1_shared_ptr.html" target="_top" xlink:title=" ">
<polygon fill="none" stroke="black" points="106.5,-771.5 106.5,-790.5 282.5,-790.5 282.5,-771.5 106.5,-771.5"/>
<text text-anchor="middle" x="194.5" y="-778.5" font-family="Helvetica,sans-Serif" font-size="10.00">Ogre::SharedPtr&lt; GpuProgram &gt;</text>
</a>
</g>
</g>
<!-- Node915&#45;&gt;Node923 -->
<g id="edge8" class="edge">
<title>Node915&#45;&gt;Node923</title>
<path fill="none" stroke="midnightblue" d="M35.28,-570.82C37.02,-612.81 47.28,-711.04 104,-762 108.25,-765.82 113.08,-768.94 118.24,-771.49"/>
<polygon fill="midnightblue" stroke="midnightblue" points="38.78,-570.66 34.99,-560.77 31.78,-570.87 38.78,-570.66"/>
</g>
<!-- Node924 -->
<g id="node10" class="node">
<title>Node924</title>
<g id="a_node10"><a xlink:href="class_ogre_1_1_shared_ptr.html" target="_top" xlink:title=" ">
<polygon fill="none" stroke="black" points="118.5,-722 118.5,-752 270.5,-752 270.5,-722 118.5,-722"/>
<text text-anchor="start" x="126.5" y="-740" font-family="Helvetica,sans-Serif" font-size="10.00">Ogre::SharedPtr&lt; Controller</text>
<text text-anchor="middle" x="194.5" y="-729" font-family="Helvetica,sans-Serif" font-size="10.00">Value&lt; float &gt; &gt;</text>
</a>
</g>
</g>
<!-- Node915&#45;&gt;Node924 -->
<g id="edge9" class="edge">
<title>Node915&#45;&gt;Node924</title>
<path fill="none" stroke="midnightblue" d="M37.85,-570.71C43.82,-604.67 60.83,-674.2 104,-712 108.37,-715.83 113.28,-719.07 118.49,-721.82"/>
<polygon fill="midnightblue" stroke="midnightblue" points="41.28,-569.97 36.23,-560.65 34.37,-571.08 41.28,-569.97"/>
</g>
<!-- Node925 -->
<g id="node11" class="node">
<title>Node925</title>
<g id="a_node11"><a xlink:href="class_ogre_1_1_shared_ptr.html" target="_top" xlink:title=" ">
<polygon fill="none" stroke="black" points="118.5,-683.5 118.5,-702.5 270.5,-702.5 270.5,-683.5 118.5,-683.5"/>
<text text-anchor="middle" x="194.5" y="-690.5" font-family="Helvetica,sans-Serif" font-size="10.00">Ogre::SharedPtr&lt; Texture &gt;</text>
</a>
</g>
</g>
<!-- Node915&#45;&gt;Node925 -->
<g id="edge10" class="edge">
<title>Node915&#45;&gt;Node925</title>
<path fill="none" stroke="midnightblue" d="M40.36,-570.54C48.98,-598.12 68.66,-647.99 104,-674 109.25,-677.86 115.11,-680.97 121.25,-683.47"/>
<polygon fill="midnightblue" stroke="midnightblue" points="43.69,-569.45 37.5,-560.85 36.97,-571.43 43.69,-569.45"/>
</g>
<!-- Node926 -->
<g id="node12" class="node">
<title>Node926</title>
<g id="a_node12"><a xlink:href="class_ogre_1_1_shared_ptr.html" target="_top" xlink:title=" ">
<polygon fill="none" stroke="black" points="115.5,-634 115.5,-664 273.5,-664 273.5,-634 115.5,-634"/>
<text text-anchor="start" x="123.5" y="-652" font-family="Helvetica,sans-Serif" font-size="10.00">Ogre::SharedPtr&lt; GpuShared</text>
<text text-anchor="middle" x="194.5" y="-641" font-family="Helvetica,sans-Serif" font-size="10.00">Parameters &gt;</text>
</a>
</g>
</g>
<!-- Node915&#45;&gt;Node926 -->
<g id="edge11" class="edge">
<title>Node915&#45;&gt;Node926</title>
<path fill="none" stroke="midnightblue" d="M47.19,-569.02C59.56,-585.93 80.25,-610.72 104,-625 109.65,-628.4 115.79,-631.32 122.11,-633.84"/>
<polygon fill="midnightblue" stroke="midnightblue" points="49.83,-566.69 41.2,-560.54 44.11,-570.73 49.83,-566.69"/>
</g>
<!-- Node927 -->
<g id="node13" class="node">
<title>Node927</title>
<g id="a_node13"><a xlink:href="class_ogre_1_1_shared_ptr.html" target="_top" xlink:title=" ">
<polygon fill="none" stroke="black" points="115,-585 115,-615 274,-615 274,-585 115,-585"/>
<text text-anchor="start" x="123" y="-603" font-family="Helvetica,sans-Serif" font-size="10.00">Ogre::SharedPtr&lt; GpuNamed</text>
<text text-anchor="middle" x="194.5" y="-592" font-family="Helvetica,sans-Serif" font-size="10.00">Constants &gt;</text>
</a>
</g>
</g>
<!-- Node915&#45;&gt;Node927 -->
<g id="edge12" class="edge">
<title>Node915&#45;&gt;Node927</title>
<path fill="none" stroke="midnightblue" d="M69.41,-564.12C80.39,-568.13 92.65,-572.43 104,-576 113.82,-579.09 124.33,-582.13 134.56,-584.96"/>
<polygon fill="midnightblue" stroke="midnightblue" points="70.33,-560.73 59.74,-560.54 67.9,-567.3 70.33,-560.73"/>
</g>
<!-- Node928 -->
<g id="node14" class="node">
<title>Node928</title>
<g id="a_node14"><a xlink:href="class_ogre_1_1_shared_ptr.html" target="_top" xlink:title=" ">
<polygon fill="none" stroke="black" points="118.5,-536 118.5,-566 270.5,-566 270.5,-536 118.5,-536"/>
<text text-anchor="start" x="126.5" y="-554" font-family="Helvetica,sans-Serif" font-size="10.00">Ogre::SharedPtr&lt; Controller</text>
<text text-anchor="middle" x="194.5" y="-543" font-family="Helvetica,sans-Serif" font-size="10.00">Function&lt; float &gt; &gt;</text>
</a>
</g>
</g>
<!-- Node915&#45;&gt;Node928 -->
<g id="edge13" class="edge">
<title>Node915&#45;&gt;Node928</title>
<path fill="none" stroke="midnightblue" d="M78.24,-551C90.62,-551 104.49,-551 118.2,-551"/>
<polygon fill="midnightblue" stroke="midnightblue" points="78.23,-547.5 68.23,-551 78.23,-554.5 78.23,-547.5"/>
</g>
<!-- Node929 -->
<g id="node15" class="node">
<title>Node929</title>
<g id="a_node15"><a xlink:href="class_ogre_1_1_shared_ptr.html" target="_top" xlink:title=" ">
<polygon fill="none" stroke="black" points="116.5,-497.5 116.5,-516.5 272.5,-516.5 272.5,-497.5 116.5,-497.5"/>
<text text-anchor="middle" x="194.5" y="-504.5" font-family="Helvetica,sans-Serif" font-size="10.00">Ogre::SharedPtr&lt; Material &gt;</text>
</a>
</g>
</g>
<!-- Node915&#45;&gt;Node929 -->
<g id="edge14" class="edge">
<title>Node915&#45;&gt;Node929</title>
<path fill="none" stroke="midnightblue" d="M69.9,-537.99C80.74,-534.18 92.79,-530.19 104,-527 117.48,-523.16 132.26,-519.6 145.87,-516.58"/>
<polygon fill="midnightblue" stroke="midnightblue" points="68.58,-534.74 60.34,-541.4 70.93,-541.34 68.58,-534.74"/>
</g>
<!-- Node930 -->
<g id="node16" class="node">
<title>Node930</title>
<g id="a_node16"><a xlink:href="class_ogre_1_1_shared_ptr.html" target="_top" xlink:title=" ">
<polygon fill="none" stroke="black" points="125.5,-448 125.5,-478 263.5,-478 263.5,-448 125.5,-448"/>
<text text-anchor="start" x="133.5" y="-466" font-family="Helvetica,sans-Serif" font-size="10.00">Ogre::SharedPtr&lt; Ogre</text>
<text text-anchor="middle" x="194.5" y="-455" font-family="Helvetica,sans-Serif" font-size="10.00">::ControllerValue&lt; T &gt; &gt;</text>
</a>
</g>
</g>
<!-- Node915&#45;&gt;Node930 -->
<g id="edge15" class="edge">
<title>Node915&#45;&gt;Node930</title>
<path fill="none" stroke="midnightblue" d="M49.63,-533.74C62.56,-519.52 82.65,-499.83 104,-488 110.91,-484.17 118.46,-480.89 126.14,-478.09"/>
<polygon fill="midnightblue" stroke="midnightblue" points="46.88,-531.57 42.88,-541.38 52.12,-536.2 46.88,-531.57"/>
</g>
<!-- Node931 -->
<g id="node17" class="node">
<title>Node931</title>
<g id="a_node17"><a xlink:href="class_ogre_1_1_shared_ptr.html" target="_top" xlink:title=" ">
<polygon fill="none" stroke="black" points="118.5,-399 118.5,-429 270.5,-429 270.5,-399 118.5,-399"/>
<text text-anchor="start" x="126.5" y="-417" font-family="Helvetica,sans-Serif" font-size="10.00">Ogre::SharedPtr&lt; Hardware</text>
<text text-anchor="middle" x="194.5" y="-406" font-family="Helvetica,sans-Serif" font-size="10.00">Buffer &gt;</text>
</a>
</g>
</g>
<!-- Node915&#45;&gt;Node931 -->
<g id="edge16" class="edge">
<title>Node915&#45;&gt;Node931</title>
<path fill="none" stroke="midnightblue" d="M41.76,-531.68C51.55,-506.55 72.07,-463.04 104,-439 109.15,-435.12 114.88,-431.84 120.88,-429.07"/>
<polygon fill="midnightblue" stroke="midnightblue" points="38.42,-530.62 38.22,-541.21 44.99,-533.06 38.42,-530.62"/>
</g>
<!-- Node932 -->
<g id="node18" class="node">
<title>Node932</title>
<g id="a_node18"><a xlink:href="class_ogre_1_1_shared_ptr.html" target="_top" xlink:title=" ">
<polygon fill="none" stroke="black" points="115.5,-350 115.5,-380 273.5,-380 273.5,-350 115.5,-350"/>
<text text-anchor="start" x="123.5" y="-368" font-family="Helvetica,sans-Serif" font-size="10.00">Ogre::SharedPtr&lt; GpuLogical</text>
<text text-anchor="middle" x="194.5" y="-357" font-family="Helvetica,sans-Serif" font-size="10.00">BufferStruct &gt;</text>
</a>
</g>
</g>
<!-- Node915&#45;&gt;Node932 -->
<g id="edge17" class="edge">
<title>Node915&#45;&gt;Node932</title>
<path fill="none" stroke="midnightblue" d="M37.85,-531.29C43.82,-497.33 60.83,-427.8 104,-390 108.37,-386.17 113.28,-382.93 118.49,-380.18"/>
<polygon fill="midnightblue" stroke="midnightblue" points="34.37,-530.92 36.23,-541.35 41.28,-532.03 34.37,-530.92"/>
</g>
<!-- Node933 -->
<g id="node19" class="node">
<title>Node933</title>
<g id="a_node19"><a xlink:href="class_ogre_1_1_shared_ptr.html" target="_top" xlink:title=" ">
<polygon fill="none" stroke="black" points="104,-301 104,-331 285,-331 285,-301 104,-301"/>
<text text-anchor="start" x="112" y="-319" font-family="Helvetica,sans-Serif" font-size="10.00">Ogre::SharedPtr&lt; ShadowCamera</text>
<text text-anchor="middle" x="194.5" y="-308" font-family="Helvetica,sans-Serif" font-size="10.00">Setup &gt;</text>
</a>
</g>
</g>
<!-- Node915&#45;&gt;Node933 -->
<g id="edge18" class="edge">
<title>Node915&#45;&gt;Node933</title>
<path fill="none" stroke="midnightblue" d="M35.58,-531.28C37.9,-489.86 49.23,-393.36 104,-341 108.08,-337.1 112.72,-333.8 117.69,-331"/>
<polygon fill="midnightblue" stroke="midnightblue" points="32.08,-531.27 35.14,-541.42 39.07,-531.58 32.08,-531.27"/>
</g>
<!-- Node934 -->
<g id="node20" class="node">
<title>Node934</title>
<g id="a_node20"><a xlink:href="class_ogre_1_1_shared_ptr.html" target="_top" xlink:title=" ">
<polygon fill="none" stroke="black" points="126,-262.5 126,-281.5 263,-281.5 263,-262.5 126,-262.5"/>
<text text-anchor="middle" x="194.5" y="-269.5" font-family="Helvetica,sans-Serif" font-size="10.00">Ogre::SharedPtr&lt; Font &gt;</text>
</a>
</g>
</g>
<!-- Node915&#45;&gt;Node934 -->
<g id="edge19" class="edge">
<title>Node915&#45;&gt;Node934</title>
<path fill="none" stroke="midnightblue" d="M37.61,-531.15C45.21,-476.5 68.98,-325.63 104,-292 110.2,-286.04 117.77,-281.71 125.85,-278.58"/>
<polygon fill="midnightblue" stroke="midnightblue" points="34.12,-530.9 36.24,-541.28 41.05,-531.84 34.12,-530.9"/>
</g>
<!-- Node935 -->
<g id="node21" class="node">
<title>Node935</title>
<g id="a_node21"><a xlink:href="class_ogre_1_1_shared_ptr.html" target="_top" xlink:title=" ">
<polygon fill="none" stroke="black" points="126,-213 126,-243 263,-243 263,-213 126,-213"/>
<text text-anchor="start" x="134" y="-231" font-family="Helvetica,sans-Serif" font-size="10.00">Ogre::SharedPtr&lt; Terrain</text>
<text text-anchor="middle" x="194.5" y="-220" font-family="Helvetica,sans-Serif" font-size="10.00">MaterialGenerator &gt;</text>
</a>
</g>
</g>
<!-- Node915&#45;&gt;Node935 -->
<g id="edge20" class="edge">
<title>Node915&#45;&gt;Node935</title>
<path fill="none" stroke="midnightblue" d="M36.94,-531.49C43.24,-471.88 65.04,-293.75 104,-253 110.13,-246.59 117.76,-241.78 125.96,-238.17"/>
<polygon fill="midnightblue" stroke="midnightblue" points="33.45,-531.16 35.91,-541.47 40.42,-531.88 33.45,-531.16"/>
</g>
<!-- Node936 -->
<g id="node22" class="node">
<title>Node936</title>
<g id="a_node22"><a xlink:href="class_ogre_1_1_shared_ptr.html" target="_top" xlink:title=" ">
<polygon fill="none" stroke="black" points="112,-164 112,-194 277,-194 277,-164 112,-164"/>
<text text-anchor="start" x="120" y="-182" font-family="Helvetica,sans-Serif" font-size="10.00">Ogre::SharedPtr&lt; GpuProgram</text>
<text text-anchor="middle" x="194.5" y="-171" font-family="Helvetica,sans-Serif" font-size="10.00">Parameters &gt;</text>
</a>
</g>
</g>
<!-- Node915&#45;&gt;Node936 -->
<g id="edge21" class="edge">
<title>Node915&#45;&gt;Node936</title>
<path fill="none" stroke="midnightblue" d="M36.28,-530.96C40.94,-464.43 59.1,-252.45 104,-204 107.51,-200.21 111.54,-196.98 115.91,-194.23"/>
<polygon fill="midnightblue" stroke="midnightblue" points="32.77,-531.09 35.59,-541.3 39.75,-531.56 32.77,-531.09"/>
</g>
<!-- Node937 -->
<g id="node23" class="node">
<title>Node937</title>
<g id="a_node23"><a xlink:href="class_ogre_1_1_shared_ptr.html" target="_top" xlink:title=" ">
<polygon fill="none" stroke="black" points="116,-115 116,-145 273,-145 273,-115 116,-115"/>
<text text-anchor="start" x="124" y="-133" font-family="Helvetica,sans-Serif" font-size="10.00">Ogre::SharedPtr&lt; SubRender</text>
<text text-anchor="middle" x="194.5" y="-122" font-family="Helvetica,sans-Serif" font-size="10.00">StateAccessor &gt;</text>
</a>
</g>
</g>
<!-- Node915&#45;&gt;Node937 -->
<g id="edge22" class="edge">
<title>Node915&#45;&gt;Node937</title>
<path fill="none" stroke="midnightblue" d="M35.74,-531.01C38.83,-458.62 52.99,-211.37 104,-155 107.46,-151.17 111.46,-147.91 115.8,-145.13"/>
<polygon fill="midnightblue" stroke="midnightblue" points="32.23,-531.28 35.32,-541.42 39.22,-531.57 32.23,-531.28"/>
</g>
<!-- Node938 -->
<g id="node24" class="node">
<title>Node938</title>
<g id="a_node24"><a xlink:href="class_ogre_1_1_shared_ptr.html" target="_top" xlink:title=" ">
<polygon fill="none" stroke="black" points="123.5,-76.5 123.5,-95.5 265.5,-95.5 265.5,-76.5 123.5,-76.5"/>
<text text-anchor="middle" x="194.5" y="-83.5" font-family="Helvetica,sans-Serif" font-size="10.00">Ogre::SharedPtr&lt; Mesh &gt;</text>
</a>
</g>
</g>
<!-- Node915&#45;&gt;Node938 -->
<g id="edge23" class="edge">
<title>Node915&#45;&gt;Node938</title>
<path fill="none" stroke="midnightblue" d="M35.22,-531.01C36.5,-452.81 45.18,-168.84 104,-106 109.44,-100.19 116.17,-95.88 123.48,-92.72"/>
<polygon fill="midnightblue" stroke="midnightblue" points="31.72,-531.32 35.08,-541.37 38.71,-531.42 31.72,-531.32"/>
</g>
<!-- Node939 -->
<g id="node25" class="node">
<title>Node939</title>
<g id="a_node25"><a xlink:href="class_ogre_1_1_shared_ptr.html" target="_top" xlink:title=" ">
<polygon fill="none" stroke="black" points="115.5,-38.5 115.5,-57.5 273.5,-57.5 273.5,-38.5 115.5,-38.5"/>
<text text-anchor="middle" x="194.5" y="-45.5" font-family="Helvetica,sans-Serif" font-size="10.00">Ogre::SharedPtr&lt; Skeleton &gt;</text>
</a>
</g>
</g>
<!-- Node915&#45;&gt;Node939 -->
<g id="edge24" class="edge">
<title>Node915&#45;&gt;Node939</title>
<path fill="none" stroke="midnightblue" d="M34.92,-530.85C35.04,-448.13 39.78,-135.71 104,-67 107.47,-63.29 111.47,-60.2 115.82,-57.65"/>
<polygon fill="midnightblue" stroke="midnightblue" points="31.42,-531.34 34.93,-541.34 38.42,-531.33 31.42,-531.34"/>
</g>
<!-- Node940 -->
<g id="node26" class="node">
<title>Node940</title>
<g id="a_node26"><a xlink:href="class_ogre_1_1_shared_ptr.html" target="_top" xlink:title=" ">
<polygon fill="none" stroke="black" points="133.5,-0.5 133.5,-19.5 255.5,-19.5 255.5,-0.5 133.5,-0.5"/>
<text text-anchor="middle" x="194.5" y="-7.5" font-family="Helvetica,sans-Serif" font-size="10.00">Ogre::SharedPtr&lt; T &gt;</text>
</a>
</g>
</g>
<!-- Node915&#45;&gt;Node940 -->
<g id="edge25" class="edge">
<title>Node915&#45;&gt;Node940</title>
<path fill="none" stroke="midnightblue" d="M34.7,-531.22C33.8,-445.11 34.71,-103.9 104,-29 111.77,-20.6 122.24,-15.43 133.29,-12.33"/>
<polygon fill="midnightblue" stroke="midnightblue" points="31.2,-531.47 34.83,-541.43 38.2,-531.38 31.2,-531.47"/>
</g>
</g>
</svg>
