<?xml version="1.0" encoding="UTF-8" standalone="no"?>
<!DOCTYPE svg PUBLIC "-//W3C//DTD SVG 1.1//EN"
 "http://www.w3.org/Graphics/SVG/1.1/DTD/svg11.dtd">
<!-- Generated by graphviz version 2.43.0 (0)
 -->
<!-- Title: Graphical Class Hierarchy Pages: 1 -->
<svg width="342pt" height="2001pt"
 viewBox="0.00 0.00 342.00 2000.50" xmlns="http://www.w3.org/2000/svg" xmlns:xlink="http://www.w3.org/1999/xlink">
<g id="graph0" class="graph" transform="scale(1 1) rotate(0) translate(4 1996.5)">
<title>Graphical Class Hierarchy</title>
<!-- Node368 -->
<g id="node1" class="node">
<title>Node368</title>
<g id="a_node1"><a xlink:title=" ">
<polygon fill="none" stroke="#bfbfbf" points="0,-1008.5 0,-1027.5 128,-1027.5 128,-1008.5 0,-1008.5"/>
<text text-anchor="middle" x="64" y="-1015.5" font-family="Helvetica,sans-Serif" font-size="10.00">Ogre::ParamCommand</text>
</a>
</g>
</g>
<!-- Node0 -->
<g id="node2" class="node">
<title>Node0</title>
<g id="a_node2"><a xlink:href="class_ogre_1_1_area_emitter_1_1_cmd_depth.html" target="_top" xlink:title="Command object for area emitter size (see ParamCommand).">
<polygon fill="none" stroke="black" points="194,-1962 194,-1992 304,-1992 304,-1962 194,-1962"/>
<text text-anchor="start" x="202" y="-1980" font-family="Helvetica,sans-Serif" font-size="10.00">Ogre::AreaEmitter::</text>
<text text-anchor="middle" x="249" y="-1969" font-family="Helvetica,sans-Serif" font-size="10.00">CmdDepth</text>
</a>
</g>
</g>
<!-- Node368&#45;&gt;Node0 -->
<g id="edge1" class="edge">
<title>Node368&#45;&gt;Node0</title>
<path fill="none" stroke="midnightblue" d="M65.79,-1037.96C71.07,-1167.01 102.89,-1880.3 164,-1953 171.61,-1962.06 182.38,-1967.82 193.68,-1971.46"/>
<polygon fill="midnightblue" stroke="midnightblue" points="69.27,-1037.47 65.37,-1027.62 62.28,-1037.75 69.27,-1037.47"/>
</g>
<!-- Node370 -->
<g id="node3" class="node">
<title>Node370</title>
<g id="a_node3"><a xlink:href="class_ogre_1_1_area_emitter_1_1_cmd_height.html" target="_top" xlink:title="Command object for area emitter size (see ParamCommand).">
<polygon fill="none" stroke="black" points="194,-1913 194,-1943 304,-1943 304,-1913 194,-1913"/>
<text text-anchor="start" x="202" y="-1931" font-family="Helvetica,sans-Serif" font-size="10.00">Ogre::AreaEmitter::</text>
<text text-anchor="middle" x="249" y="-1920" font-family="Helvetica,sans-Serif" font-size="10.00">CmdHeight</text>
</a>
</g>
</g>
<!-- Node368&#45;&gt;Node370 -->
<g id="edge2" class="edge">
<title>Node368&#45;&gt;Node370</title>
<path fill="none" stroke="midnightblue" d="M65.9,-1037.69C71.75,-1162.04 105.98,-1835.38 164,-1904 171.64,-1913.03 182.42,-1918.79 193.72,-1922.43"/>
<polygon fill="midnightblue" stroke="midnightblue" points="69.4,-1037.51 65.44,-1027.69 62.4,-1037.84 69.4,-1037.51"/>
</g>
<!-- Node371 -->
<g id="node4" class="node">
<title>Node371</title>
<g id="a_node4"><a xlink:href="class_ogre_1_1_area_emitter_1_1_cmd_width.html" target="_top" xlink:title="Command object for area emitter size (see ParamCommand).">
<polygon fill="none" stroke="black" points="194,-1864 194,-1894 304,-1894 304,-1864 194,-1864"/>
<text text-anchor="start" x="202" y="-1882" font-family="Helvetica,sans-Serif" font-size="10.00">Ogre::AreaEmitter::</text>
<text text-anchor="middle" x="249" y="-1871" font-family="Helvetica,sans-Serif" font-size="10.00">CmdWidth</text>
</a>
</g>
</g>
<!-- Node368&#45;&gt;Node371 -->
<g id="edge3" class="edge">
<title>Node368&#45;&gt;Node371</title>
<path fill="none" stroke="midnightblue" d="M66.05,-1037.68C72.61,-1157.8 109.52,-1789.28 164,-1854 171.64,-1863.08 182.43,-1868.95 193.73,-1872.72"/>
<polygon fill="midnightblue" stroke="midnightblue" points="69.54,-1037.48 65.51,-1027.69 62.55,-1037.86 69.54,-1037.48"/>
</g>
<!-- Node372 -->
<g id="node5" class="node">
<title>Node372</title>
<g id="a_node5"><a xlink:href="class_ogre_1_1_cg_program_1_1_cmd_args.html" target="_top" xlink:title="Command object for setting compilation arguments.">
<polygon fill="none" stroke="black" points="174,-1825.5 174,-1844.5 324,-1844.5 324,-1825.5 174,-1825.5"/>
<text text-anchor="middle" x="249" y="-1832.5" font-family="Helvetica,sans-Serif" font-size="10.00">Ogre::CgProgram::CmdArgs</text>
</a>
</g>
</g>
<!-- Node368&#45;&gt;Node372 -->
<g id="edge4" class="edge">
<title>Node368&#45;&gt;Node372</title>
<path fill="none" stroke="midnightblue" d="M66.09,-1037.55C72.8,-1154.29 109.87,-1756.23 164,-1816 167.41,-1819.77 171.4,-1822.87 175.75,-1825.42"/>
<polygon fill="midnightblue" stroke="midnightblue" points="69.59,-1037.33 65.53,-1027.54 62.6,-1037.72 69.59,-1037.33"/>
</g>
<!-- Node373 -->
<g id="node6" class="node">
<title>Node373</title>
<g id="a_node6"><a xlink:href="class_ogre_1_1_cg_program_1_1_cmd_profiles.html" target="_top" xlink:title="Command object for setting profiles.">
<polygon fill="none" stroke="black" points="166.5,-1787.5 166.5,-1806.5 331.5,-1806.5 331.5,-1787.5 166.5,-1787.5"/>
<text text-anchor="middle" x="249" y="-1794.5" font-family="Helvetica,sans-Serif" font-size="10.00">Ogre::CgProgram::CmdProfiles</text>
</a>
</g>
</g>
<!-- Node368&#45;&gt;Node373 -->
<g id="edge5" class="edge">
<title>Node368&#45;&gt;Node373</title>
<path fill="none" stroke="midnightblue" d="M64.65,-1037.61C63.14,-1145.42 61.32,-1665.31 164,-1778 167.42,-1781.76 171.42,-1784.85 175.78,-1787.39"/>
<polygon fill="midnightblue" stroke="midnightblue" points="68.15,-1037.56 64.81,-1027.5 61.15,-1037.45 68.15,-1037.56"/>
</g>
<!-- Node374 -->
<g id="node7" class="node">
<title>Node374</title>
<g id="a_node7"><a xlink:href="class_ogre_1_1_colour_fader_affector2_1_1_cmd_alpha_adjust1.html" target="_top" xlink:title="Command object for alpha adjust (see ParamCommand).">
<polygon fill="none" stroke="black" points="174.5,-1738 174.5,-1768 323.5,-1768 323.5,-1738 174.5,-1738"/>
<text text-anchor="start" x="182.5" y="-1756" font-family="Helvetica,sans-Serif" font-size="10.00">Ogre::ColourFaderAffector2</text>
<text text-anchor="middle" x="249" y="-1745" font-family="Helvetica,sans-Serif" font-size="10.00">::CmdAlphaAdjust1</text>
</a>
</g>
</g>
<!-- Node368&#45;&gt;Node374 -->
<g id="edge6" class="edge">
<title>Node368&#45;&gt;Node374</title>
<path fill="none" stroke="midnightblue" d="M64.95,-1037.87C65.09,-1141.76 70.83,-1621.78 164,-1729 166.98,-1732.43 170.42,-1735.39 174.17,-1737.94"/>
<polygon fill="midnightblue" stroke="midnightblue" points="68.45,-1037.81 64.95,-1027.81 61.45,-1037.81 68.45,-1037.81"/>
</g>
<!-- Node375 -->
<g id="node8" class="node">
<title>Node375</title>
<g id="a_node8"><a xlink:href="class_ogre_1_1_colour_fader_affector2_1_1_cmd_alpha_adjust2.html" target="_top" xlink:title="Command object for alpha adjust (see ParamCommand).">
<polygon fill="none" stroke="black" points="174.5,-1689 174.5,-1719 323.5,-1719 323.5,-1689 174.5,-1689"/>
<text text-anchor="start" x="182.5" y="-1707" font-family="Helvetica,sans-Serif" font-size="10.00">Ogre::ColourFaderAffector2</text>
<text text-anchor="middle" x="249" y="-1696" font-family="Helvetica,sans-Serif" font-size="10.00">::CmdAlphaAdjust2</text>
</a>
</g>
</g>
<!-- Node368&#45;&gt;Node375 -->
<g id="edge7" class="edge">
<title>Node368&#45;&gt;Node375</title>
<path fill="none" stroke="midnightblue" d="M65.17,-1037.73C66.44,-1136.99 76.98,-1580.88 164,-1680 167,-1683.42 170.45,-1686.37 174.21,-1688.91"/>
<polygon fill="midnightblue" stroke="midnightblue" points="68.67,-1037.56 65.06,-1027.6 61.67,-1037.64 68.67,-1037.56"/>
</g>
<!-- Node376 -->
<g id="node9" class="node">
<title>Node376</title>
<g id="a_node9"><a xlink:href="class_ogre_1_1_colour_fader_affector2_1_1_cmd_blue_adjust1.html" target="_top" xlink:title="Command object for blue adjust (see ParamCommand).">
<polygon fill="none" stroke="black" points="174.5,-1640 174.5,-1670 323.5,-1670 323.5,-1640 174.5,-1640"/>
<text text-anchor="start" x="182.5" y="-1658" font-family="Helvetica,sans-Serif" font-size="10.00">Ogre::ColourFaderAffector2</text>
<text text-anchor="middle" x="249" y="-1647" font-family="Helvetica,sans-Serif" font-size="10.00">::CmdBlueAdjust1</text>
</a>
</g>
</g>
<!-- Node368&#45;&gt;Node376 -->
<g id="edge8" class="edge">
<title>Node368&#45;&gt;Node376</title>
<path fill="none" stroke="midnightblue" d="M65.44,-1038.05C67.94,-1133.38 83.25,-1540.09 164,-1631 167.02,-1634.4 170.49,-1637.34 174.26,-1639.87"/>
<polygon fill="midnightblue" stroke="midnightblue" points="68.93,-1037.7 65.19,-1027.79 61.94,-1037.87 68.93,-1037.7"/>
</g>
<!-- Node377 -->
<g id="node10" class="node">
<title>Node377</title>
<g id="a_node10"><a xlink:href="class_ogre_1_1_colour_fader_affector2_1_1_cmd_blue_adjust2.html" target="_top" xlink:title="Command object for blue adjust (see ParamCommand).">
<polygon fill="none" stroke="black" points="174.5,-1591 174.5,-1621 323.5,-1621 323.5,-1591 174.5,-1591"/>
<text text-anchor="start" x="182.5" y="-1609" font-family="Helvetica,sans-Serif" font-size="10.00">Ogre::ColourFaderAffector2</text>
<text text-anchor="middle" x="249" y="-1598" font-family="Helvetica,sans-Serif" font-size="10.00">::CmdBlueAdjust2</text>
</a>
</g>
</g>
<!-- Node368&#45;&gt;Node377 -->
<g id="edge9" class="edge">
<title>Node368&#45;&gt;Node377</title>
<path fill="none" stroke="midnightblue" d="M65.74,-1037.87C69.5,-1128.17 89.36,-1499.11 164,-1582 167.04,-1585.38 170.53,-1588.3 174.31,-1590.82"/>
<polygon fill="midnightblue" stroke="midnightblue" points="69.24,-1037.72 65.34,-1027.86 62.24,-1038 69.24,-1037.72"/>
</g>
<!-- Node378 -->
<g id="node11" class="node">
<title>Node378</title>
<g id="a_node11"><a xlink:href="class_ogre_1_1_colour_fader_affector2_1_1_cmd_green_adjust1.html" target="_top" xlink:title="Command object for green adjust (see ParamCommand).">
<polygon fill="none" stroke="black" points="174.5,-1542 174.5,-1572 323.5,-1572 323.5,-1542 174.5,-1542"/>
<text text-anchor="start" x="182.5" y="-1560" font-family="Helvetica,sans-Serif" font-size="10.00">Ogre::ColourFaderAffector2</text>
<text text-anchor="middle" x="249" y="-1549" font-family="Helvetica,sans-Serif" font-size="10.00">::CmdGreenAdjust1</text>
</a>
</g>
</g>
<!-- Node368&#45;&gt;Node378 -->
<g id="edge10" class="edge">
<title>Node368&#45;&gt;Node378</title>
<path fill="none" stroke="midnightblue" d="M66.11,-1038.01C71.26,-1123.63 95.53,-1458.2 164,-1533 167.07,-1536.36 170.58,-1539.26 174.37,-1541.76"/>
<polygon fill="midnightblue" stroke="midnightblue" points="69.59,-1037.61 65.52,-1027.83 62.61,-1038.02 69.59,-1037.61"/>
</g>
<!-- Node379 -->
<g id="node12" class="node">
<title>Node379</title>
<g id="a_node12"><a xlink:href="class_ogre_1_1_colour_fader_affector2_1_1_cmd_green_adjust2.html" target="_top" xlink:title="Command object for green adjust (see ParamCommand).">
<polygon fill="none" stroke="black" points="174.5,-1493 174.5,-1523 323.5,-1523 323.5,-1493 174.5,-1493"/>
<text text-anchor="start" x="182.5" y="-1511" font-family="Helvetica,sans-Serif" font-size="10.00">Ogre::ColourFaderAffector2</text>
<text text-anchor="middle" x="249" y="-1500" font-family="Helvetica,sans-Serif" font-size="10.00">::CmdGreenAdjust2</text>
</a>
</g>
</g>
<!-- Node368&#45;&gt;Node379 -->
<g id="edge11" class="edge">
<title>Node368&#45;&gt;Node379</title>
<path fill="none" stroke="midnightblue" d="M66.54,-1037.87C73.14,-1118.1 101.61,-1417.15 164,-1484 167.21,-1487.44 170.87,-1490.39 174.83,-1492.94"/>
<polygon fill="midnightblue" stroke="midnightblue" points="70.01,-1037.36 65.72,-1027.67 63.03,-1037.92 70.01,-1037.36"/>
</g>
<!-- Node380 -->
<g id="node13" class="node">
<title>Node380</title>
<g id="a_node13"><a xlink:href="class_ogre_1_1_colour_fader_affector2_1_1_cmd_red_adjust1.html" target="_top" xlink:title="Command object for red adjust (see ParamCommand).">
<polygon fill="none" stroke="black" points="174.5,-1444 174.5,-1474 323.5,-1474 323.5,-1444 174.5,-1444"/>
<text text-anchor="start" x="182.5" y="-1462" font-family="Helvetica,sans-Serif" font-size="10.00">Ogre::ColourFaderAffector2</text>
<text text-anchor="middle" x="249" y="-1451" font-family="Helvetica,sans-Serif" font-size="10.00">::CmdRedAdjust1</text>
</a>
</g>
</g>
<!-- Node368&#45;&gt;Node380 -->
<g id="edge12" class="edge">
<title>Node368&#45;&gt;Node380</title>
<path fill="none" stroke="midnightblue" d="M67.1,-1038.13C75.34,-1113.3 107.76,-1376.15 164,-1435 167.25,-1438.4 170.94,-1441.33 174.93,-1443.85"/>
<polygon fill="midnightblue" stroke="midnightblue" points="70.53,-1037.31 65.99,-1027.74 63.57,-1038.06 70.53,-1037.31"/>
</g>
<!-- Node381 -->
<g id="node14" class="node">
<title>Node381</title>
<g id="a_node14"><a xlink:href="class_ogre_1_1_colour_fader_affector2_1_1_cmd_red_adjust2.html" target="_top" xlink:title="Command object for red adjust (see ParamCommand).">
<polygon fill="none" stroke="black" points="174.5,-1395 174.5,-1425 323.5,-1425 323.5,-1395 174.5,-1395"/>
<text text-anchor="start" x="182.5" y="-1413" font-family="Helvetica,sans-Serif" font-size="10.00">Ogre::ColourFaderAffector2</text>
<text text-anchor="middle" x="249" y="-1402" font-family="Helvetica,sans-Serif" font-size="10.00">::CmdRedAdjust2</text>
</a>
</g>
</g>
<!-- Node368&#45;&gt;Node381 -->
<g id="edge13" class="edge">
<title>Node368&#45;&gt;Node381</title>
<path fill="none" stroke="midnightblue" d="M67.7,-1037.53C77.55,-1106.16 113.65,-1334.87 164,-1386 167.41,-1389.46 171.27,-1392.43 175.43,-1394.97"/>
<polygon fill="midnightblue" stroke="midnightblue" points="71.16,-1037.03 66.3,-1027.62 64.23,-1038.01 71.16,-1037.03"/>
</g>
<!-- Node382 -->
<g id="node15" class="node">
<title>Node382</title>
<g id="a_node15"><a xlink:href="class_ogre_1_1_colour_fader_affector2_1_1_cmd_state_change.html" target="_top" xlink:title="Command object for alpha adjust (see ParamCommand).">
<polygon fill="none" stroke="black" points="174.5,-1346 174.5,-1376 323.5,-1376 323.5,-1346 174.5,-1346"/>
<text text-anchor="start" x="182.5" y="-1364" font-family="Helvetica,sans-Serif" font-size="10.00">Ogre::ColourFaderAffector2</text>
<text text-anchor="middle" x="249" y="-1353" font-family="Helvetica,sans-Serif" font-size="10.00">::CmdStateChange</text>
</a>
</g>
</g>
<!-- Node368&#45;&gt;Node382 -->
<g id="edge14" class="edge">
<title>Node368&#45;&gt;Node382</title>
<path fill="none" stroke="midnightblue" d="M65.03,-1038.02C66.23,-1093.79 77.48,-1252.42 164,-1337 167.47,-1340.39 171.39,-1343.31 175.58,-1345.82"/>
<polygon fill="midnightblue" stroke="midnightblue" points="68.52,-1037.69 64.9,-1027.74 61.53,-1037.78 68.52,-1037.69"/>
</g>
<!-- Node383 -->
<g id="node16" class="node">
<title>Node383</title>
<g id="a_node16"><a xlink:href="class_ogre_1_1_colour_fader_affector_1_1_cmd_alpha_adjust.html" target="_top" xlink:title="Command object for alpha adjust (see ParamCommand).">
<polygon fill="none" stroke="black" points="177.5,-1297 177.5,-1327 320.5,-1327 320.5,-1297 177.5,-1297"/>
<text text-anchor="start" x="185.5" y="-1315" font-family="Helvetica,sans-Serif" font-size="10.00">Ogre::ColourFaderAffector</text>
<text text-anchor="middle" x="249" y="-1304" font-family="Helvetica,sans-Serif" font-size="10.00">::CmdAlphaAdjust</text>
</a>
</g>
</g>
<!-- Node368&#45;&gt;Node383 -->
<g id="edge15" class="edge">
<title>Node368&#45;&gt;Node383</title>
<path fill="none" stroke="midnightblue" d="M66.29,-1037.56C70.64,-1087.06 89.02,-1218.31 164,-1288 168,-1291.72 172.54,-1294.86 177.38,-1297.53"/>
<polygon fill="midnightblue" stroke="midnightblue" points="69.78,-1037.25 65.51,-1027.55 62.8,-1037.79 69.78,-1037.25"/>
</g>
<!-- Node384 -->
<g id="node17" class="node">
<title>Node384</title>
<g id="a_node17"><a xlink:href="class_ogre_1_1_colour_fader_affector_1_1_cmd_blue_adjust.html" target="_top" xlink:title="Command object for blue adjust (see ParamCommand).">
<polygon fill="none" stroke="black" points="177.5,-1248 177.5,-1278 320.5,-1278 320.5,-1248 177.5,-1248"/>
<text text-anchor="start" x="185.5" y="-1266" font-family="Helvetica,sans-Serif" font-size="10.00">Ogre::ColourFaderAffector</text>
<text text-anchor="middle" x="249" y="-1255" font-family="Helvetica,sans-Serif" font-size="10.00">::CmdBlueAdjust</text>
</a>
</g>
</g>
<!-- Node368&#45;&gt;Node384 -->
<g id="edge16" class="edge">
<title>Node368&#45;&gt;Node384</title>
<path fill="none" stroke="midnightblue" d="M68.11,-1037.71C75.97,-1080.85 100.71,-1184.16 164,-1239 168.01,-1242.48 172.5,-1245.45 177.25,-1248"/>
<polygon fill="midnightblue" stroke="midnightblue" points="71.53,-1036.93 66.39,-1027.66 64.63,-1038.11 71.53,-1036.93"/>
</g>
<!-- Node385 -->
<g id="node18" class="node">
<title>Node385</title>
<g id="a_node18"><a xlink:href="class_ogre_1_1_colour_fader_affector_1_1_cmd_green_adjust.html" target="_top" xlink:title="Command object for green adjust (see ParamCommand).">
<polygon fill="none" stroke="black" points="177.5,-1199 177.5,-1229 320.5,-1229 320.5,-1199 177.5,-1199"/>
<text text-anchor="start" x="185.5" y="-1217" font-family="Helvetica,sans-Serif" font-size="10.00">Ogre::ColourFaderAffector</text>
<text text-anchor="middle" x="249" y="-1206" font-family="Helvetica,sans-Serif" font-size="10.00">::CmdGreenAdjust</text>
</a>
</g>
</g>
<!-- Node368&#45;&gt;Node385 -->
<g id="edge17" class="edge">
<title>Node368&#45;&gt;Node385</title>
<path fill="none" stroke="midnightblue" d="M70.67,-1037.17C82.21,-1072.78 111.85,-1149.24 164,-1190 168.42,-1193.46 173.32,-1196.41 178.46,-1198.95"/>
<polygon fill="midnightblue" stroke="midnightblue" points="73.98,-1036.02 67.67,-1027.51 67.3,-1038.1 73.98,-1036.02"/>
</g>
<!-- Node386 -->
<g id="node19" class="node">
<title>Node386</title>
<g id="a_node19"><a xlink:href="class_ogre_1_1_colour_fader_affector_1_1_cmd_red_adjust.html" target="_top" xlink:title="Command object for red adjust (see ParamCommand).">
<polygon fill="none" stroke="black" points="177.5,-1150 177.5,-1180 320.5,-1180 320.5,-1150 177.5,-1150"/>
<text text-anchor="start" x="185.5" y="-1168" font-family="Helvetica,sans-Serif" font-size="10.00">Ogre::ColourFaderAffector</text>
<text text-anchor="middle" x="249" y="-1157" font-family="Helvetica,sans-Serif" font-size="10.00">::CmdRedAdjust</text>
</a>
</g>
</g>
<!-- Node368&#45;&gt;Node386 -->
<g id="edge18" class="edge">
<title>Node368&#45;&gt;Node386</title>
<path fill="none" stroke="midnightblue" d="M74.92,-1036.51C90.36,-1063.56 122.7,-1113.6 164,-1141 169.18,-1144.44 174.86,-1147.39 180.74,-1149.92"/>
<polygon fill="midnightblue" stroke="midnightblue" points="77.93,-1034.72 70.01,-1027.68 71.81,-1038.12 77.93,-1034.72"/>
</g>
<!-- Node387 -->
<g id="node20" class="node">
<title>Node387</title>
<g id="a_node20"><a xlink:href="class_ogre_1_1_colour_image_affector_1_1_cmd_image_adjust.html" target="_top" xlink:title="Command object for red adjust (see ParamCommand).">
<polygon fill="none" stroke="black" points="176,-1101 176,-1131 322,-1131 322,-1101 176,-1101"/>
<text text-anchor="start" x="184" y="-1119" font-family="Helvetica,sans-Serif" font-size="10.00">Ogre::ColourImageAffector</text>
<text text-anchor="middle" x="249" y="-1108" font-family="Helvetica,sans-Serif" font-size="10.00">::CmdImageAdjust</text>
</a>
</g>
</g>
<!-- Node368&#45;&gt;Node387 -->
<g id="edge19" class="edge">
<title>Node368&#45;&gt;Node387</title>
<path fill="none" stroke="midnightblue" d="M82.63,-1034.35C101.47,-1051.02 132.85,-1076.56 164,-1092 170.79,-1095.37 178.14,-1098.33 185.56,-1100.93"/>
<polygon fill="midnightblue" stroke="midnightblue" points="84.91,-1031.69 75.14,-1027.6 80.22,-1036.89 84.91,-1031.69"/>
</g>
<!-- Node388 -->
<g id="node21" class="node">
<title>Node388</title>
<g id="a_node21"><a xlink:href="class_ogre_1_1_colour_interpolator_affector_1_1_cmd_colour_adjust.html" target="_top" xlink:title="Command object for red adjust (see ParamCommand).">
<polygon fill="none" stroke="black" points="176,-1052 176,-1082 322,-1082 322,-1052 176,-1052"/>
<text text-anchor="start" x="184" y="-1070" font-family="Helvetica,sans-Serif" font-size="10.00">Ogre::ColourInterpolator</text>
<text text-anchor="middle" x="249" y="-1059" font-family="Helvetica,sans-Serif" font-size="10.00">Affector::CmdColourAdjust</text>
</a>
</g>
</g>
<!-- Node368&#45;&gt;Node388 -->
<g id="edge20" class="edge">
<title>Node368&#45;&gt;Node388</title>
<path fill="none" stroke="midnightblue" d="M110.52,-1030.19C135.14,-1036.78 165.76,-1044.98 191.84,-1051.96"/>
<polygon fill="midnightblue" stroke="midnightblue" points="111.28,-1026.77 100.72,-1027.56 109.47,-1033.53 111.28,-1026.77"/>
</g>
<!-- Node389 -->
<g id="node22" class="node">
<title>Node389</title>
<g id="a_node22"><a xlink:href="class_ogre_1_1_colour_interpolator_affector_1_1_cmd_time_adjust.html" target="_top" xlink:title="Command object for red adjust (see ParamCommand).">
<polygon fill="none" stroke="black" points="180,-1003 180,-1033 318,-1033 318,-1003 180,-1003"/>
<text text-anchor="start" x="188" y="-1021" font-family="Helvetica,sans-Serif" font-size="10.00">Ogre::ColourInterpolator</text>
<text text-anchor="middle" x="249" y="-1010" font-family="Helvetica,sans-Serif" font-size="10.00">Affector::CmdTimeAdjust</text>
</a>
</g>
</g>
<!-- Node368&#45;&gt;Node389 -->
<g id="edge21" class="edge">
<title>Node368&#45;&gt;Node389</title>
<path fill="none" stroke="midnightblue" d="M138.52,-1018C152.14,-1018 166.31,-1018 179.77,-1018"/>
<polygon fill="midnightblue" stroke="midnightblue" points="138.23,-1014.5 128.23,-1018 138.23,-1021.5 138.23,-1014.5"/>
</g>
<!-- Node390 -->
<g id="node23" class="node">
<title>Node390</title>
<g id="a_node23"><a xlink:href="class_ogre_1_1_deflector_plane_affector_1_1_cmd_bounce.html" target="_top" xlink:title="Command object for bounce (see ParamCommand).">
<polygon fill="none" stroke="black" points="171,-954 171,-984 327,-984 327,-954 171,-954"/>
<text text-anchor="start" x="179" y="-972" font-family="Helvetica,sans-Serif" font-size="10.00">Ogre::DeflectorPlaneAffector</text>
<text text-anchor="middle" x="249" y="-961" font-family="Helvetica,sans-Serif" font-size="10.00">::CmdBounce</text>
</a>
</g>
</g>
<!-- Node368&#45;&gt;Node390 -->
<g id="edge22" class="edge">
<title>Node368&#45;&gt;Node390</title>
<path fill="none" stroke="midnightblue" d="M110.52,-1005.81C135.14,-999.22 165.76,-991.02 191.84,-984.04"/>
<polygon fill="midnightblue" stroke="midnightblue" points="109.47,-1002.47 100.72,-1008.44 111.28,-1009.23 109.47,-1002.47"/>
</g>
<!-- Node391 -->
<g id="node24" class="node">
<title>Node391</title>
<g id="a_node24"><a xlink:href="class_ogre_1_1_deflector_plane_affector_1_1_cmd_plane_normal.html" target="_top" xlink:title="Command object for plane normal (see ParamCommand).">
<polygon fill="none" stroke="black" points="171,-905 171,-935 327,-935 327,-905 171,-905"/>
<text text-anchor="start" x="179" y="-923" font-family="Helvetica,sans-Serif" font-size="10.00">Ogre::DeflectorPlaneAffector</text>
<text text-anchor="middle" x="249" y="-912" font-family="Helvetica,sans-Serif" font-size="10.00">::CmdPlaneNormal</text>
</a>
</g>
</g>
<!-- Node368&#45;&gt;Node391 -->
<g id="edge23" class="edge">
<title>Node368&#45;&gt;Node391</title>
<path fill="none" stroke="midnightblue" d="M83.01,-1001.68C101.95,-985.3 133.2,-960.35 164,-945 171.49,-941.27 179.64,-937.98 187.82,-935.13"/>
<polygon fill="midnightblue" stroke="midnightblue" points="80.65,-999.1 75.46,-1008.34 85.28,-1004.35 80.65,-999.1"/>
</g>
<!-- Node392 -->
<g id="node25" class="node">
<title>Node392</title>
<g id="a_node25"><a xlink:href="class_ogre_1_1_deflector_plane_affector_1_1_cmd_plane_point.html" target="_top" xlink:title="Command object for plane point (see ParamCommand).">
<polygon fill="none" stroke="black" points="171,-856 171,-886 327,-886 327,-856 171,-856"/>
<text text-anchor="start" x="179" y="-874" font-family="Helvetica,sans-Serif" font-size="10.00">Ogre::DeflectorPlaneAffector</text>
<text text-anchor="middle" x="249" y="-863" font-family="Helvetica,sans-Serif" font-size="10.00">::CmdPlanePoint</text>
</a>
</g>
</g>
<!-- Node368&#45;&gt;Node392 -->
<g id="edge24" class="edge">
<title>Node368&#45;&gt;Node392</title>
<path fill="none" stroke="midnightblue" d="M75,-999.7C90.53,-972.95 123,-923.4 164,-896 169.82,-892.11 176.26,-888.81 182.91,-886.02"/>
<polygon fill="midnightblue" stroke="midnightblue" points="71.93,-998.01 70.05,-1008.43 78.02,-1001.45 71.93,-998.01"/>
</g>
<!-- Node393 -->
<g id="node26" class="node">
<title>Node393</title>
<g id="a_node26"><a xlink:href="class_ogre_1_1_direction_randomiser_affector_1_1_cmd_keep_velocity.html" target="_top" xlink:title="Command object for keep_velocity (see ParamCommand).">
<polygon fill="none" stroke="black" points="174.5,-807 174.5,-837 323.5,-837 323.5,-807 174.5,-807"/>
<text text-anchor="start" x="182.5" y="-825" font-family="Helvetica,sans-Serif" font-size="10.00">Ogre::DirectionRandomiser</text>
<text text-anchor="middle" x="249" y="-814" font-family="Helvetica,sans-Serif" font-size="10.00">Affector::CmdKeepVelocity</text>
</a>
</g>
</g>
<!-- Node368&#45;&gt;Node393 -->
<g id="edge25" class="edge">
<title>Node368&#45;&gt;Node393</title>
<path fill="none" stroke="midnightblue" d="M70.91,-998.49C82.69,-962.96 112.49,-887.61 164,-847 168.9,-843.14 174.38,-839.87 180.14,-837.11"/>
<polygon fill="midnightblue" stroke="midnightblue" points="67.54,-997.57 67.83,-1008.16 74.2,-999.7 67.54,-997.57"/>
</g>
<!-- Node394 -->
<g id="node27" class="node">
<title>Node394</title>
<g id="a_node27"><a xlink:href="class_ogre_1_1_direction_randomiser_affector_1_1_cmd_randomness.html" target="_top" xlink:title="Command object for randomness (see ParamCommand).">
<polygon fill="none" stroke="black" points="174.5,-758 174.5,-788 323.5,-788 323.5,-758 174.5,-758"/>
<text text-anchor="start" x="182.5" y="-776" font-family="Helvetica,sans-Serif" font-size="10.00">Ogre::DirectionRandomiser</text>
<text text-anchor="middle" x="249" y="-765" font-family="Helvetica,sans-Serif" font-size="10.00">Affector::CmdRandomness</text>
</a>
</g>
</g>
<!-- Node368&#45;&gt;Node394 -->
<g id="edge26" class="edge">
<title>Node368&#45;&gt;Node394</title>
<path fill="none" stroke="midnightblue" d="M68.18,-998.43C76.19,-955.58 101.2,-852.93 164,-798 168.47,-794.09 173.52,-790.8 178.88,-788.02"/>
<polygon fill="midnightblue" stroke="midnightblue" points="64.71,-997.95 66.43,-1008.4 71.61,-999.16 64.71,-997.95"/>
</g>
<!-- Node395 -->
<g id="node28" class="node">
<title>Node395</title>
<g id="a_node28"><a xlink:href="class_ogre_1_1_direction_randomiser_affector_1_1_cmd_scope.html" target="_top" xlink:title="Command object for scope (see ParamCommand).">
<polygon fill="none" stroke="black" points="174.5,-709 174.5,-739 323.5,-739 323.5,-709 174.5,-709"/>
<text text-anchor="start" x="182.5" y="-727" font-family="Helvetica,sans-Serif" font-size="10.00">Ogre::DirectionRandomiser</text>
<text text-anchor="middle" x="249" y="-716" font-family="Helvetica,sans-Serif" font-size="10.00">Affector::CmdScope</text>
</a>
</g>
</g>
<!-- Node368&#45;&gt;Node395 -->
<g id="edge27" class="edge">
<title>Node368&#45;&gt;Node395</title>
<path fill="none" stroke="midnightblue" d="M66.39,-998.22C70.96,-948.76 89.77,-818.67 164,-749 168.1,-745.15 172.78,-741.89 177.77,-739.13"/>
<polygon fill="midnightblue" stroke="midnightblue" points="62.9,-997.99 65.57,-1008.25 69.88,-998.57 62.9,-997.99"/>
</g>
<!-- Node396 -->
<g id="node29" class="node">
<title>Node396</title>
<g id="a_node29"><a xlink:href="class_ogre_1_1_hollow_ellipsoid_emitter_1_1_cmd_inner_x.html" target="_top" xlink:title="Command object for inner size (see ParamCommand).">
<polygon fill="none" stroke="black" points="170.5,-660 170.5,-690 327.5,-690 327.5,-660 170.5,-660"/>
<text text-anchor="start" x="178.5" y="-678" font-family="Helvetica,sans-Serif" font-size="10.00">Ogre::HollowEllipsoidEmitter</text>
<text text-anchor="middle" x="249" y="-667" font-family="Helvetica,sans-Serif" font-size="10.00">::CmdInnerX</text>
</a>
</g>
</g>
<!-- Node368&#45;&gt;Node396 -->
<g id="edge28" class="edge">
<title>Node368&#45;&gt;Node396</title>
<path fill="none" stroke="midnightblue" d="M65.1,-998.09C66.48,-942.62 78.15,-784.78 164,-700 167.9,-696.15 172.36,-692.89 177.15,-690.13"/>
<polygon fill="midnightblue" stroke="midnightblue" points="61.59,-998.26 64.94,-1008.32 68.59,-998.37 61.59,-998.26"/>
</g>
<!-- Node397 -->
<g id="node30" class="node">
<title>Node397</title>
<g id="a_node30"><a xlink:href="class_ogre_1_1_hollow_ellipsoid_emitter_1_1_cmd_inner_y.html" target="_top" xlink:title="Command object for inner size (see ParamCommand).">
<polygon fill="none" stroke="black" points="170.5,-611 170.5,-641 327.5,-641 327.5,-611 170.5,-611"/>
<text text-anchor="start" x="178.5" y="-629" font-family="Helvetica,sans-Serif" font-size="10.00">Ogre::HollowEllipsoidEmitter</text>
<text text-anchor="middle" x="249" y="-618" font-family="Helvetica,sans-Serif" font-size="10.00">::CmdInnerY</text>
</a>
</g>
</g>
<!-- Node368&#45;&gt;Node397 -->
<g id="edge29" class="edge">
<title>Node368&#45;&gt;Node397</title>
<path fill="none" stroke="midnightblue" d="M67.79,-998.12C77.82,-929.22 114.15,-702.16 164,-651 167.72,-647.19 171.99,-643.95 176.59,-641.2"/>
<polygon fill="midnightblue" stroke="midnightblue" points="64.26,-998.02 66.31,-1008.42 71.19,-999.02 64.26,-998.02"/>
</g>
<!-- Node398 -->
<g id="node31" class="node">
<title>Node398</title>
<g id="a_node31"><a xlink:href="class_ogre_1_1_hollow_ellipsoid_emitter_1_1_cmd_inner_z.html" target="_top" xlink:title="Command object for inner size (see ParamCommand).">
<polygon fill="none" stroke="black" points="170.5,-562 170.5,-592 327.5,-592 327.5,-562 170.5,-562"/>
<text text-anchor="start" x="178.5" y="-580" font-family="Helvetica,sans-Serif" font-size="10.00">Ogre::HollowEllipsoidEmitter</text>
<text text-anchor="middle" x="249" y="-569" font-family="Helvetica,sans-Serif" font-size="10.00">::CmdInnerZ</text>
</a>
</g>
</g>
<!-- Node368&#45;&gt;Node398 -->
<g id="edge30" class="edge">
<title>Node368&#45;&gt;Node398</title>
<path fill="none" stroke="midnightblue" d="M67.13,-997.93C75.46,-923.02 108.19,-661 164,-602 167.66,-598.13 171.89,-594.85 176.46,-592.08"/>
<polygon fill="midnightblue" stroke="midnightblue" points="63.6,-997.97 66,-1008.29 70.56,-998.73 63.6,-997.97"/>
</g>
<!-- Node399 -->
<g id="node32" class="node">
<title>Node399</title>
<g id="a_node32"><a xlink:href="class_ogre_1_1_linear_force_affector_1_1_cmd_force_app.html" target="_top" xlink:title="Command object for force application (see ParamCommand).">
<polygon fill="none" stroke="black" points="179,-513 179,-543 319,-543 319,-513 179,-513"/>
<text text-anchor="start" x="187" y="-531" font-family="Helvetica,sans-Serif" font-size="10.00">Ogre::LinearForceAffector</text>
<text text-anchor="middle" x="249" y="-520" font-family="Helvetica,sans-Serif" font-size="10.00">::CmdForceApp</text>
</a>
</g>
</g>
<!-- Node368&#45;&gt;Node399 -->
<g id="edge31" class="edge">
<title>Node368&#45;&gt;Node399</title>
<path fill="none" stroke="midnightblue" d="M66.56,-998.19C73.27,-918.2 102.09,-620.04 164,-553 168.23,-548.42 173.26,-544.66 178.73,-541.58"/>
<polygon fill="midnightblue" stroke="midnightblue" points="63.06,-998.11 65.73,-1008.36 70.04,-998.68 63.06,-998.11"/>
</g>
<!-- Node400 -->
<g id="node33" class="node">
<title>Node400</title>
<g id="a_node33"><a xlink:href="class_ogre_1_1_linear_force_affector_1_1_cmd_force_vector.html" target="_top" xlink:title="Command object for force vector (see ParamCommand).">
<polygon fill="none" stroke="black" points="179,-464 179,-494 319,-494 319,-464 179,-464"/>
<text text-anchor="start" x="187" y="-482" font-family="Helvetica,sans-Serif" font-size="10.00">Ogre::LinearForceAffector</text>
<text text-anchor="middle" x="249" y="-471" font-family="Helvetica,sans-Serif" font-size="10.00">::CmdForceVector</text>
</a>
</g>
</g>
<!-- Node368&#45;&gt;Node400 -->
<g id="edge32" class="edge">
<title>Node368&#45;&gt;Node400</title>
<path fill="none" stroke="midnightblue" d="M66.14,-998.05C71.4,-912.67 96.06,-579.03 164,-504 168.19,-499.38 173.19,-495.59 178.63,-492.5"/>
<polygon fill="midnightblue" stroke="midnightblue" points="62.63,-998.01 65.53,-1008.2 69.62,-998.42 62.63,-998.01"/>
</g>
<!-- Node401 -->
<g id="node34" class="node">
<title>Node401</title>
<g id="a_node34"><a xlink:href="class_ogre_1_1_ring_emitter_1_1_cmd_inner_x.html" target="_top" xlink:title="Command object for inner size (see ParamCommand).">
<polygon fill="none" stroke="black" points="194,-415 194,-445 304,-445 304,-415 194,-415"/>
<text text-anchor="start" x="202" y="-433" font-family="Helvetica,sans-Serif" font-size="10.00">Ogre::RingEmitter::</text>
<text text-anchor="middle" x="249" y="-422" font-family="Helvetica,sans-Serif" font-size="10.00">CmdInnerX</text>
</a>
</g>
</g>
<!-- Node368&#45;&gt;Node401 -->
<g id="edge33" class="edge">
<title>Node368&#45;&gt;Node401</title>
<path fill="none" stroke="midnightblue" d="M65.78,-997.91C69.69,-907.37 90,-538.06 164,-455 171.79,-446.25 182.5,-440.51 193.66,-436.75"/>
<polygon fill="midnightblue" stroke="midnightblue" points="62.27,-998.03 65.36,-1008.16 69.27,-998.31 62.27,-998.03"/>
</g>
<!-- Node402 -->
<g id="node35" class="node">
<title>Node402</title>
<g id="a_node35"><a xlink:href="class_ogre_1_1_ring_emitter_1_1_cmd_inner_y.html" target="_top" xlink:title="Command object for inner size (see ParamCommand).">
<polygon fill="none" stroke="black" points="194,-366 194,-396 304,-396 304,-366 194,-366"/>
<text text-anchor="start" x="202" y="-384" font-family="Helvetica,sans-Serif" font-size="10.00">Ogre::RingEmitter::</text>
<text text-anchor="middle" x="249" y="-373" font-family="Helvetica,sans-Serif" font-size="10.00">CmdInnerY</text>
</a>
</g>
</g>
<!-- Node368&#45;&gt;Node402 -->
<g id="edge34" class="edge">
<title>Node368&#45;&gt;Node402</title>
<path fill="none" stroke="midnightblue" d="M65.47,-998.01C68.08,-902.91 83.86,-497.2 164,-406 171.73,-397.2 182.41,-391.43 193.57,-387.67"/>
<polygon fill="midnightblue" stroke="midnightblue" points="61.96,-998.15 65.2,-1008.24 68.96,-998.33 61.96,-998.15"/>
</g>
<!-- Node403 -->
<g id="node36" class="node">
<title>Node403</title>
<g id="a_node36"><a xlink:href="class_ogre_1_1_rotation_affector_1_1_cmd_rotation_range_end.html" target="_top" xlink:title="Command object for particle emitter &#45; see ParamCommand.">
<polygon fill="none" stroke="black" points="181.5,-317 181.5,-347 316.5,-347 316.5,-317 181.5,-317"/>
<text text-anchor="start" x="189.5" y="-335" font-family="Helvetica,sans-Serif" font-size="10.00">Ogre::RotationAffector</text>
<text text-anchor="middle" x="249" y="-324" font-family="Helvetica,sans-Serif" font-size="10.00">::CmdRotationRangeEnd</text>
</a>
</g>
</g>
<!-- Node368&#45;&gt;Node403 -->
<g id="edge35" class="edge">
<title>Node368&#45;&gt;Node403</title>
<path fill="none" stroke="midnightblue" d="M65.2,-998.32C66.59,-899.3 77.64,-456.44 164,-357 168.79,-351.49 174.73,-347.16 181.24,-343.77"/>
<polygon fill="midnightblue" stroke="midnightblue" points="61.7,-998.38 65.07,-1008.42 68.7,-998.46 61.7,-998.38"/>
</g>
<!-- Node404 -->
<g id="node37" class="node">
<title>Node404</title>
<g id="a_node37"><a xlink:href="class_ogre_1_1_rotation_affector_1_1_cmd_rotation_range_start.html" target="_top" xlink:title="Command object for particle emitter &#45; see ParamCommand.">
<polygon fill="none" stroke="black" points="179,-268 179,-298 319,-298 319,-268 179,-268"/>
<text text-anchor="start" x="187" y="-286" font-family="Helvetica,sans-Serif" font-size="10.00">Ogre::RotationAffector</text>
<text text-anchor="middle" x="249" y="-275" font-family="Helvetica,sans-Serif" font-size="10.00">::CmdRotationRangeStart</text>
</a>
</g>
</g>
<!-- Node368&#45;&gt;Node404 -->
<g id="edge36" class="edge">
<title>Node368&#45;&gt;Node404</title>
<path fill="none" stroke="midnightblue" d="M64.97,-998.18C65.24,-894.53 71.53,-415.57 164,-308 168.17,-303.15 173.23,-299.22 178.77,-296.04"/>
<polygon fill="midnightblue" stroke="midnightblue" points="61.47,-998.21 64.97,-1008.21 68.47,-998.21 61.47,-998.21"/>
</g>
<!-- Node405 -->
<g id="node38" class="node">
<title>Node405</title>
<g id="a_node38"><a xlink:href="class_ogre_1_1_rotation_affector_1_1_cmd_rotation_speed_range_end.html" target="_top" xlink:title="Command object for particle emitter &#45; see ParamCommand.">
<polygon fill="none" stroke="black" points="166.5,-219 166.5,-249 331.5,-249 331.5,-219 166.5,-219"/>
<text text-anchor="start" x="174.5" y="-237" font-family="Helvetica,sans-Serif" font-size="10.00">Ogre::RotationAffector</text>
<text text-anchor="middle" x="249" y="-226" font-family="Helvetica,sans-Serif" font-size="10.00">::CmdRotationSpeedRangeEnd</text>
</a>
</g>
</g>
<!-- Node368&#45;&gt;Node405 -->
<g id="edge37" class="edge">
<title>Node368&#45;&gt;Node405</title>
<path fill="none" stroke="midnightblue" d="M64.78,-998.19C63.97,-890.36 65.37,-374.78 164,-259 167.26,-255.18 171.07,-251.93 175.24,-249.16"/>
<polygon fill="midnightblue" stroke="midnightblue" points="61.28,-998.35 64.87,-1008.31 68.28,-998.28 61.28,-998.35"/>
</g>
<!-- Node406 -->
<g id="node39" class="node">
<title>Node406</title>
<g id="a_node39"><a xlink:href="class_ogre_1_1_rotation_affector_1_1_cmd_rotation_speed_range_start.html" target="_top" xlink:title="Command object for particle emitter &#45; see ParamCommand.">
<polygon fill="none" stroke="black" points="164,-170 164,-200 334,-200 334,-170 164,-170"/>
<text text-anchor="start" x="172" y="-188" font-family="Helvetica,sans-Serif" font-size="10.00">Ogre::RotationAffector</text>
<text text-anchor="middle" x="249" y="-177" font-family="Helvetica,sans-Serif" font-size="10.00">::CmdRotationSpeedRangeStart</text>
</a>
</g>
</g>
<!-- Node368&#45;&gt;Node406 -->
<g id="edge38" class="edge">
<title>Node368&#45;&gt;Node406</title>
<path fill="none" stroke="midnightblue" d="M64.61,-998.33C62.77,-886.77 59.15,-334.05 164,-210 167.24,-206.17 171.04,-202.9 175.21,-200.13"/>
<polygon fill="midnightblue" stroke="midnightblue" points="61.11,-998.55 64.79,-1008.48 68.11,-998.42 61.11,-998.55"/>
</g>
<!-- Node407 -->
<g id="node40" class="node">
<title>Node407</title>
<g id="a_node40"><a xlink:href="class_ogre_1_1_scale_affector_1_1_cmd_scale_adjust.html" target="_top" xlink:title="Command object for scale adjust (see ParamCommand).">
<polygon fill="none" stroke="black" points="194,-121 194,-151 304,-151 304,-121 194,-121"/>
<text text-anchor="start" x="202" y="-139" font-family="Helvetica,sans-Serif" font-size="10.00">Ogre::ScaleAffector</text>
<text text-anchor="middle" x="249" y="-128" font-family="Helvetica,sans-Serif" font-size="10.00">::CmdScaleAdjust</text>
</a>
</g>
</g>
<!-- Node368&#45;&gt;Node407 -->
<g id="edge39" class="edge">
<title>Node368&#45;&gt;Node407</title>
<path fill="none" stroke="midnightblue" d="M65.99,-998.21C72.29,-876.05 108.21,-227.47 164,-161 171.63,-151.91 182.41,-146.04 193.71,-142.27"/>
<polygon fill="midnightblue" stroke="midnightblue" points="62.49,-998.19 65.48,-1008.35 69.48,-998.55 62.49,-998.19"/>
</g>
<!-- Node408 -->
<g id="node41" class="node">
<title>Node408</title>
<g id="a_node41"><a xlink:href="class_ogre_1_1_simple_param_command.html" target="_top" xlink:title="Generic ParamCommand implementation stores pointers to the class getter and setter functions.">
<polygon fill="none" stroke="black" points="168.5,-60.5 168.5,-101.5 329.5,-101.5 329.5,-60.5 168.5,-60.5"/>
<text text-anchor="start" x="176.5" y="-89.5" font-family="Helvetica,sans-Serif" font-size="10.00">Ogre::SimpleParamCommand</text>
<text text-anchor="start" x="176.5" y="-78.5" font-family="Helvetica,sans-Serif" font-size="10.00">&lt; _Class, Param, getter,</text>
<text text-anchor="middle" x="249" y="-67.5" font-family="Helvetica,sans-Serif" font-size="10.00"> setter &gt;</text>
</a>
</g>
</g>
<!-- Node368&#45;&gt;Node408 -->
<g id="edge40" class="edge">
<title>Node368&#45;&gt;Node408</title>
<path fill="none" stroke="midnightblue" d="M65.92,-998.32C71.95,-872.56 107.39,-184.48 164,-112 167.06,-108.08 170.67,-104.65 174.64,-101.66"/>
<polygon fill="midnightblue" stroke="midnightblue" points="62.42,-998.26 65.44,-1008.42 69.41,-998.59 62.42,-998.26"/>
</g>
<!-- Node409 -->
<g id="node42" class="node">
<title>Node409</title>
<g id="a_node42"><a xlink:href="class_ogre_1_1_simple_param_command_3_01___class_00_01const_01_string_01_6_00_01getter_00_01setter_01_4.html" target="_top" xlink:title="specialization for strings">
<polygon fill="none" stroke="black" points="168.5,-0.5 168.5,-41.5 329.5,-41.5 329.5,-0.5 168.5,-0.5"/>
<text text-anchor="start" x="176.5" y="-29.5" font-family="Helvetica,sans-Serif" font-size="10.00">Ogre::SimpleParamCommand</text>
<text text-anchor="start" x="176.5" y="-18.5" font-family="Helvetica,sans-Serif" font-size="10.00">&lt; _Class, const String</text>
<text text-anchor="middle" x="249" y="-7.5" font-family="Helvetica,sans-Serif" font-size="10.00"> &amp;, getter, setter &gt;</text>
</a>
</g>
</g>
<!-- Node368&#45;&gt;Node409 -->
<g id="edge41" class="edge">
<title>Node368&#45;&gt;Node409</title>
<path fill="none" stroke="midnightblue" d="M65.77,-998.22C71.03,-867.29 103.29,-128.43 164,-51 166.77,-47.47 169.99,-44.35 173.53,-41.6"/>
<polygon fill="midnightblue" stroke="midnightblue" points="62.27,-998.24 65.37,-1008.38 69.26,-998.52 62.27,-998.24"/>
</g>
</g>
</svg>
