<?xml version="1.0" encoding="UTF-8" standalone="no"?>
<!DOCTYPE svg PUBLIC "-//W3C//DTD SVG 1.1//EN"
 "http://www.w3.org/Graphics/SVG/1.1/DTD/svg11.dtd">
<!-- Generated by graphviz version 2.43.0 (0)
 -->
<!-- Title: Graphical Class Hierarchy Pages: 1 -->
<svg width="580pt" height="318pt"
 viewBox="0.00 0.00 580.00 317.50" xmlns="http://www.w3.org/2000/svg" xmlns:xlink="http://www.w3.org/1999/xlink">
<g id="graph0" class="graph" transform="scale(1 1) rotate(0) translate(4 313.5)">
<title>Graphical Class Hierarchy</title>
<!-- Node102 -->
<g id="node1" class="node">
<title>Node102</title>
<g id="a_node1"><a xlink:title=" ">
<polygon fill="none" stroke="#bfbfbf" points="212,-290 212,-309 383,-309 383,-290 212,-290"/>
<text text-anchor="middle" x="297.5" y="-297" font-family="Helvetica,sans-Serif" font-size="10.00">D3D11DeviceResourceManager</text>
</a>
</g>
</g>
<!-- Node0 -->
<g id="node2" class="node">
<title>Node0</title>
<g id="a_node2"><a xlink:href="class_ogre_1_1_d3_d11_render_system.html" target="_top" xlink:title="Implementation of DirectX11 as a rendering system.">
<polygon fill="none" stroke="black" points="421.5,-287 421.5,-306 571.5,-306 571.5,-287 421.5,-287"/>
<text text-anchor="middle" x="496.5" y="-294" font-family="Helvetica,sans-Serif" font-size="10.00">Ogre::D3D11RenderSystem</text>
</a>
</g>
</g>
<!-- Node102&#45;&gt;Node0 -->
<g id="edge1" class="edge">
<title>Node102&#45;&gt;Node0</title>
<path fill="none" stroke="#8b1a1a" d="M393.38,-298.06C402.8,-297.91 412.26,-297.77 421.43,-297.63"/>
<polygon fill="#8b1a1a" stroke="#8b1a1a" points="393.13,-294.56 383.19,-298.21 393.24,-301.56 393.13,-294.56"/>
</g>
<!-- Node717 -->
<g id="node3" class="node">
<title>Node717</title>
<g id="a_node3"><a xlink:title=" ">
<polygon fill="none" stroke="#bfbfbf" points="41,-138 41,-157 133,-157 133,-138 41,-138"/>
<text text-anchor="middle" x="87" y="-145" font-family="Helvetica,sans-Serif" font-size="10.00">RenderSysAlloc</text>
</a>
</g>
</g>
<!-- Node718 -->
<g id="node4" class="node">
<title>Node718</title>
<g id="a_node4"><a xlink:href="class_ogre_1_1_depth_buffer.html" target="_top" xlink:title="An abstract class that contains a depth/stencil buffer.">
<polygon fill="none" stroke="black" points="245,-252 245,-271 350,-271 350,-252 245,-252"/>
<text text-anchor="middle" x="297.5" y="-259" font-family="Helvetica,sans-Serif" font-size="10.00">Ogre::DepthBuffer</text>
</a>
</g>
</g>
<!-- Node717&#45;&gt;Node718 -->
<g id="edge2" class="edge">
<title>Node717&#45;&gt;Node718</title>
<path fill="none" stroke="midnightblue" d="M104.31,-164.18C126.29,-185.66 167.58,-222.59 210,-242.5 220.86,-247.6 233.13,-251.35 244.94,-254.11"/>
<polygon fill="midnightblue" stroke="midnightblue" points="106.67,-161.6 97.11,-157.02 101.73,-166.56 106.67,-161.6"/>
</g>
<!-- Node719 -->
<g id="node5" class="node">
<title>Node719</title>
<g id="a_node5"><a xlink:href="class_ogre_1_1_hardware_occlusion_query.html" target="_top" xlink:title="Query how many pixels have passed the per&#45;fragment tests.">
<polygon fill="none" stroke="black" points="212.5,-214 212.5,-233 382.5,-233 382.5,-214 212.5,-214"/>
<text text-anchor="middle" x="297.5" y="-221" font-family="Helvetica,sans-Serif" font-size="10.00">Ogre::HardwareOcclusionQuery</text>
</a>
</g>
</g>
<!-- Node717&#45;&gt;Node719 -->
<g id="edge3" class="edge">
<title>Node717&#45;&gt;Node719</title>
<path fill="none" stroke="midnightblue" d="M114.2,-161.81C138.44,-174.55 175.79,-192.91 210,-204.5 220.92,-208.2 232.87,-211.36 244.3,-213.99"/>
<polygon fill="midnightblue" stroke="midnightblue" points="115.75,-158.67 105.27,-157.07 112.46,-164.85 115.75,-158.67"/>
</g>
<!-- Node720 -->
<g id="node6" class="node">
<title>Node720</title>
<g id="a_node6"><a xlink:href="class_ogre_1_1_render_system.html" target="_top" xlink:title="Defines the functionality of a 3D API.">
<polygon fill="none" stroke="black" points="239,-176 239,-195 356,-195 356,-176 239,-176"/>
<text text-anchor="middle" x="297.5" y="-183" font-family="Helvetica,sans-Serif" font-size="10.00">Ogre::RenderSystem</text>
</a>
</g>
</g>
<!-- Node717&#45;&gt;Node720 -->
<g id="edge4" class="edge">
<title>Node717&#45;&gt;Node720</title>
<path fill="none" stroke="midnightblue" d="M143.13,-157.55C174.48,-163.26 213.52,-170.38 244.36,-176"/>
<polygon fill="midnightblue" stroke="midnightblue" points="143.71,-154.1 133.24,-155.75 142.45,-160.98 143.71,-154.1"/>
</g>
<!-- Node725 -->
<g id="node11" class="node">
<title>Node725</title>
<g id="a_node11"><a xlink:href="class_ogre_1_1_render_system_capabilities.html" target="_top" xlink:title="This class stores the capabilities of the graphics card.">
<polygon fill="none" stroke="black" points="210,-138 210,-157 385,-157 385,-138 210,-138"/>
<text text-anchor="middle" x="297.5" y="-145" font-family="Helvetica,sans-Serif" font-size="10.00">Ogre::RenderSystemCapabilities</text>
</a>
</g>
</g>
<!-- Node717&#45;&gt;Node725 -->
<g id="edge10" class="edge">
<title>Node717&#45;&gt;Node725</title>
<path fill="none" stroke="midnightblue" d="M143.27,-147.5C163.65,-147.5 187.25,-147.5 209.74,-147.5"/>
<polygon fill="midnightblue" stroke="midnightblue" points="143.24,-144 133.24,-147.5 143.24,-151 143.24,-144"/>
</g>
<!-- Node726 -->
<g id="node12" class="node">
<title>Node726</title>
<g id="a_node12"><a xlink:href="class_ogre_1_1_render_system_capabilities_manager.html" target="_top" xlink:title="Class for managing RenderSystemCapabilities database for Ogre.">
<polygon fill="none" stroke="black" points="210,-0.5 210,-30.5 385,-30.5 385,-0.5 210,-0.5"/>
<text text-anchor="start" x="218" y="-18.5" font-family="Helvetica,sans-Serif" font-size="10.00">Ogre::RenderSystemCapabilities</text>
<text text-anchor="middle" x="297.5" y="-7.5" font-family="Helvetica,sans-Serif" font-size="10.00">Manager</text>
</a>
</g>
</g>
<!-- Node717&#45;&gt;Node726 -->
<g id="edge11" class="edge">
<title>Node717&#45;&gt;Node726</title>
<path fill="none" stroke="midnightblue" d="M102.82,-130.46C124.2,-106.9 166,-64.57 210,-40.5 216.99,-36.67 224.63,-33.38 232.39,-30.56"/>
<polygon fill="midnightblue" stroke="midnightblue" points="100.18,-128.16 96.14,-137.95 105.41,-132.82 100.18,-128.16"/>
</g>
<!-- Node727 -->
<g id="node13" class="node">
<title>Node727</title>
<g id="a_node13"><a xlink:href="class_ogre_1_1_render_system_capabilities_serializer.html" target="_top" xlink:title="Class for serializing RenderSystemCapabilities to / from a .rendercaps script.">
<polygon fill="none" stroke="black" points="210,-88.5 210,-118.5 385,-118.5 385,-88.5 210,-88.5"/>
<text text-anchor="start" x="218" y="-106.5" font-family="Helvetica,sans-Serif" font-size="10.00">Ogre::RenderSystemCapabilities</text>
<text text-anchor="middle" x="297.5" y="-95.5" font-family="Helvetica,sans-Serif" font-size="10.00">Serializer</text>
</a>
</g>
</g>
<!-- Node717&#45;&gt;Node727 -->
<g id="edge12" class="edge">
<title>Node717&#45;&gt;Node727</title>
<path fill="none" stroke="midnightblue" d="M143.31,-135.83C168.39,-130.54 198.36,-124.21 225.11,-118.57"/>
<polygon fill="midnightblue" stroke="midnightblue" points="142.3,-132.46 133.24,-137.95 143.75,-139.31 142.3,-132.46"/>
</g>
<!-- Node728 -->
<g id="node14" class="node">
<title>Node728</title>
<g id="a_node14"><a xlink:href="class_ogre_1_1_render_target.html" target="_top" xlink:title="A &#39;canvas&#39; which can receive the results of a rendering operation.">
<polygon fill="none" stroke="black" points="242.5,-50 242.5,-69 352.5,-69 352.5,-50 242.5,-50"/>
<text text-anchor="middle" x="297.5" y="-57" font-family="Helvetica,sans-Serif" font-size="10.00">Ogre::RenderTarget</text>
</a>
</g>
</g>
<!-- Node717&#45;&gt;Node728 -->
<g id="edge13" class="edge">
<title>Node717&#45;&gt;Node728</title>
<path fill="none" stroke="midnightblue" d="M110.64,-132.32C134.44,-116.98 173.45,-93.59 210,-79.5 220.93,-75.29 232.99,-71.81 244.56,-69.01"/>
<polygon fill="midnightblue" stroke="midnightblue" points="108.46,-129.56 102,-137.96 112.29,-135.42 108.46,-129.56"/>
</g>
<!-- Node720&#45;&gt;Node0 -->
<g id="edge5" class="edge">
<title>Node720&#45;&gt;Node0</title>
<path fill="none" stroke="midnightblue" d="M365.68,-193.93C372.61,-196.6 379.22,-200.05 385,-204.5 412.72,-225.84 394.05,-252.19 421,-274.5 427.44,-279.83 435.13,-283.87 443.09,-286.93"/>
<polygon fill="midnightblue" stroke="midnightblue" points="366.67,-190.57 356.08,-190.74 364.47,-197.21 366.67,-190.57"/>
</g>
<!-- Node721 -->
<g id="node7" class="node">
<title>Node721</title>
<g id="a_node7"><a xlink:href="class_ogre_1_1_d3_d9_render_system.html" target="_top" xlink:title="Implementation of DirectX9 as a rendering system.">
<polygon fill="none" stroke="black" points="424.5,-246 424.5,-265 568.5,-265 568.5,-246 424.5,-246"/>
<text text-anchor="middle" x="496.5" y="-253" font-family="Helvetica,sans-Serif" font-size="10.00">Ogre::D3D9RenderSystem</text>
</a>
</g>
</g>
<!-- Node720&#45;&gt;Node721 -->
<g id="edge6" class="edge">
<title>Node720&#45;&gt;Node721</title>
<path fill="none" stroke="midnightblue" d="M365.96,-196.74C372.56,-198.89 379.02,-201.45 385,-204.5 404.07,-214.22 402.09,-226.46 421,-236.5 428.31,-240.38 436.45,-243.5 444.59,-245.99"/>
<polygon fill="midnightblue" stroke="midnightblue" points="366.81,-193.34 356.23,-193.87 364.83,-200.05 366.81,-193.34"/>
</g>
<!-- Node722 -->
<g id="node8" class="node">
<title>Node722</title>
<g id="a_node8"><a xlink:href="class_ogre_1_1_metal_render_system.html" target="_top" xlink:title=" ">
<polygon fill="none" stroke="black" points="424,-208 424,-227 569,-227 569,-208 424,-208"/>
<text text-anchor="middle" x="496.5" y="-215" font-family="Helvetica,sans-Serif" font-size="10.00">Ogre::MetalRenderSystem</text>
</a>
</g>
</g>
<!-- Node720&#45;&gt;Node722 -->
<g id="edge7" class="edge">
<title>Node720&#45;&gt;Node722</title>
<path fill="none" stroke="midnightblue" d="M366.05,-196.47C389.08,-200.21 414.62,-204.36 436.89,-207.98"/>
<polygon fill="midnightblue" stroke="midnightblue" points="366.44,-192.99 356.01,-194.84 365.32,-199.9 366.44,-192.99"/>
</g>
<!-- Node723 -->
<g id="node9" class="node">
<title>Node723</title>
<g id="a_node9"><a xlink:href="class_ogre_1_1_tiny_render_system.html" target="_top" xlink:title="Software rasterizer Implementation as a rendering system.">
<polygon fill="none" stroke="black" points="428,-170 428,-189 565,-189 565,-170 428,-170"/>
<text text-anchor="middle" x="496.5" y="-177" font-family="Helvetica,sans-Serif" font-size="10.00">Ogre::TinyRenderSystem</text>
</a>
</g>
</g>
<!-- Node720&#45;&gt;Node723 -->
<g id="edge8" class="edge">
<title>Node720&#45;&gt;Node723</title>
<path fill="none" stroke="midnightblue" d="M366.23,-183.44C386.15,-182.83 407.92,-182.17 427.83,-181.56"/>
<polygon fill="midnightblue" stroke="midnightblue" points="365.9,-179.95 356.01,-183.75 366.11,-186.94 365.9,-179.95"/>
</g>
<!-- Node724 -->
<g id="node10" class="node">
<title>Node724</title>
<g id="a_node10"><a xlink:href="class_ogre_1_1_vulkan_render_system.html" target="_top" xlink:title=" ">
<polygon fill="none" stroke="black" points="421,-132 421,-151 572,-151 572,-132 421,-132"/>
<text text-anchor="middle" x="496.5" y="-139" font-family="Helvetica,sans-Serif" font-size="10.00">Ogre::VulkanRenderSystem</text>
</a>
</g>
</g>
<!-- Node720&#45;&gt;Node724 -->
<g id="edge9" class="edge">
<title>Node720&#45;&gt;Node724</title>
<path fill="none" stroke="midnightblue" d="M351.94,-173.82C362.88,-171.41 374.31,-168.88 385,-166.5 407.65,-161.45 432.9,-155.74 453.54,-151.06"/>
<polygon fill="midnightblue" stroke="midnightblue" points="351.09,-170.42 342.07,-175.98 352.59,-177.26 351.09,-170.42"/>
</g>
<!-- Node729 -->
<g id="node15" class="node">
<title>Node729</title>
<g id="a_node15"><a xlink:href="class_ogre_1_1_multi_render_target.html" target="_top" xlink:title="This class represents a render target that renders to multiple RenderTextures at once.">
<polygon fill="none" stroke="black" points="429,-88 429,-107 564,-107 564,-88 429,-88"/>
<text text-anchor="middle" x="496.5" y="-95" font-family="Helvetica,sans-Serif" font-size="10.00">Ogre::MultiRenderTarget</text>
</a>
</g>
</g>
<!-- Node728&#45;&gt;Node729 -->
<g id="edge14" class="edge">
<title>Node728&#45;&gt;Node729</title>
<path fill="none" stroke="midnightblue" d="M358.06,-70.99C386.17,-76.41 419.32,-82.81 446.02,-87.96"/>
<polygon fill="midnightblue" stroke="midnightblue" points="358.44,-67.5 347.96,-69.04 357.11,-74.37 358.44,-67.5"/>
</g>
<!-- Node730 -->
<g id="node16" class="node">
<title>Node730</title>
<g id="a_node16"><a xlink:href="class_ogre_1_1_render_texture.html" target="_top" xlink:title="This class represents a RenderTarget that renders to a Texture.">
<polygon fill="none" stroke="black" points="438.5,-50 438.5,-69 554.5,-69 554.5,-50 438.5,-50"/>
<text text-anchor="middle" x="496.5" y="-57" font-family="Helvetica,sans-Serif" font-size="10.00">Ogre::RenderTexture</text>
</a>
</g>
</g>
<!-- Node728&#45;&gt;Node730 -->
<g id="edge15" class="edge">
<title>Node728&#45;&gt;Node730</title>
<path fill="none" stroke="midnightblue" d="M362.82,-59.5C387.2,-59.5 414.77,-59.5 438.43,-59.5"/>
<polygon fill="midnightblue" stroke="midnightblue" points="362.59,-56 352.59,-59.5 362.59,-63 362.59,-56"/>
</g>
<!-- Node731 -->
<g id="node17" class="node">
<title>Node731</title>
<g id="a_node17"><a xlink:href="class_ogre_1_1_render_window.html" target="_top" xlink:title="Manages the target rendering window.">
<polygon fill="none" stroke="black" points="437,-12 437,-31 556,-31 556,-12 437,-12"/>
<text text-anchor="middle" x="496.5" y="-19" font-family="Helvetica,sans-Serif" font-size="10.00">Ogre::RenderWindow</text>
</a>
</g>
</g>
<!-- Node728&#45;&gt;Node731 -->
<g id="edge16" class="edge">
<title>Node728&#45;&gt;Node731</title>
<path fill="none" stroke="midnightblue" d="M358.06,-48.01C386.17,-42.59 419.32,-36.19 446.02,-31.04"/>
<polygon fill="midnightblue" stroke="midnightblue" points="357.11,-44.63 347.96,-49.96 358.44,-51.5 357.11,-44.63"/>
</g>
<!-- Node833 -->
<g id="node18" class="node">
<title>Node833</title>
<g id="a_node18"><a xlink:href="class_ogre_1_1_singleton.html" target="_top" xlink:title=" ">
<polygon fill="none" stroke="black" points="0,-0.5 0,-30.5 174,-30.5 174,-0.5 0,-0.5"/>
<text text-anchor="start" x="8" y="-18.5" font-family="Helvetica,sans-Serif" font-size="10.00">Ogre::Singleton&lt; RenderSystem</text>
<text text-anchor="middle" x="87" y="-7.5" font-family="Helvetica,sans-Serif" font-size="10.00">CapabilitiesManager &gt;</text>
</a>
</g>
</g>
<!-- Node833&#45;&gt;Node726 -->
<g id="edge17" class="edge">
<title>Node833&#45;&gt;Node726</title>
<path fill="none" stroke="midnightblue" d="M184.01,-15.5C192.57,-15.5 201.2,-15.5 209.68,-15.5"/>
<polygon fill="midnightblue" stroke="midnightblue" points="184.01,-12 174.01,-15.5 184.01,-19 184.01,-12"/>
</g>
</g>
</svg>
