<?xml version="1.0" encoding="UTF-8" standalone="no"?>
<!DOCTYPE svg PUBLIC "-//W3C//DTD SVG 1.1//EN"
 "http://www.w3.org/Graphics/SVG/1.1/DTD/svg11.dtd">
<!-- Generated by graphviz version 2.43.0 (0)
 -->
<!-- Title: Graphical Class Hierarchy Pages: 1 -->
<svg width="353pt" height="299pt"
 viewBox="0.00 0.00 353.00 299.00" xmlns="http://www.w3.org/2000/svg" xmlns:xlink="http://www.w3.org/1999/xlink">
<g id="graph0" class="graph" transform="scale(1 1) rotate(0) translate(4 295)">
<title>Graphical Class Hierarchy</title>
<!-- Node75 -->
<g id="node1" class="node">
<title>Node75</title>
<g id="a_node1"><a xlink:title=" ">
<polygon fill="none" stroke="#bfbfbf" points="17,-151.5 17,-170.5 132,-170.5 132,-151.5 17,-151.5"/>
<text text-anchor="middle" x="74.5" y="-158.5" font-family="Helvetica,sans-Serif" font-size="10.00">CompositorInstAlloc</text>
</a>
</g>
</g>
<!-- Node0 -->
<g id="node2" class="node">
<title>Node0</title>
<g id="a_node2"><a xlink:href="class_ogre_1_1_composition_pass.html" target="_top" xlink:title="Object representing one pass or operation in a composition sequence.">
<polygon fill="none" stroke="black" points="200,-271.5 200,-290.5 330,-290.5 330,-271.5 200,-271.5"/>
<text text-anchor="middle" x="265" y="-278.5" font-family="Helvetica,sans-Serif" font-size="10.00">Ogre::CompositionPass</text>
</a>
</g>
</g>
<!-- Node75&#45;&gt;Node0 -->
<g id="edge1" class="edge">
<title>Node75&#45;&gt;Node0</title>
<path fill="none" stroke="midnightblue" d="M89.56,-178.66C108.7,-201.45 145.15,-240.72 185,-262 192.22,-265.85 200.22,-268.94 208.28,-271.4"/>
<polygon fill="midnightblue" stroke="midnightblue" points="92.16,-176.3 83.11,-170.8 86.75,-180.75 92.16,-176.3"/>
</g>
<!-- Node77 -->
<g id="node3" class="node">
<title>Node77</title>
<g id="a_node3"><a xlink:href="class_ogre_1_1_composition_target_pass.html" target="_top" xlink:title="Object representing one render to a RenderTarget or Viewport in the Ogre Composition framework.">
<polygon fill="none" stroke="black" points="185,-233.5 185,-252.5 345,-252.5 345,-233.5 185,-233.5"/>
<text text-anchor="middle" x="265" y="-240.5" font-family="Helvetica,sans-Serif" font-size="10.00">Ogre::CompositionTargetPass</text>
</a>
</g>
</g>
<!-- Node75&#45;&gt;Node77 -->
<g id="edge2" class="edge">
<title>Node75&#45;&gt;Node77</title>
<path fill="none" stroke="midnightblue" d="M97.76,-176.36C119.24,-190.55 153.09,-211.29 185,-224 194.44,-227.76 204.81,-230.91 214.86,-233.49"/>
<polygon fill="midnightblue" stroke="midnightblue" points="99.62,-173.39 89.36,-170.73 95.72,-179.2 99.62,-173.39"/>
</g>
<!-- Node78 -->
<g id="node4" class="node">
<title>Node78</title>
<g id="a_node4"><a xlink:href="class_ogre_1_1_composition_technique.html" target="_top" xlink:title="Base composition technique, can be subclassed in plugins.">
<polygon fill="none" stroke="black" points="187,-195.5 187,-214.5 343,-214.5 343,-195.5 187,-195.5"/>
<text text-anchor="middle" x="265" y="-202.5" font-family="Helvetica,sans-Serif" font-size="10.00">Ogre::CompositionTechnique</text>
</a>
</g>
</g>
<!-- Node75&#45;&gt;Node78 -->
<g id="edge3" class="edge">
<title>Node75&#45;&gt;Node78</title>
<path fill="none" stroke="midnightblue" d="M126.38,-172.88C156.74,-179.96 194.79,-188.84 223.18,-195.47"/>
<polygon fill="midnightblue" stroke="midnightblue" points="126.94,-169.41 116.4,-170.55 125.34,-176.23 126.94,-169.41"/>
</g>
<!-- Node79 -->
<g id="node5" class="node">
<title>Node79</title>
<g id="a_node5"><a xlink:href="class_ogre_1_1_composition_technique_1_1_texture_definition.html" target="_top" xlink:title="Local texture definition.">
<polygon fill="none" stroke="black" points="187,-146 187,-176 343,-176 343,-146 187,-146"/>
<text text-anchor="start" x="195" y="-164" font-family="Helvetica,sans-Serif" font-size="10.00">Ogre::CompositionTechnique</text>
<text text-anchor="middle" x="265" y="-153" font-family="Helvetica,sans-Serif" font-size="10.00">::TextureDefinition</text>
</a>
</g>
</g>
<!-- Node75&#45;&gt;Node79 -->
<g id="edge4" class="edge">
<title>Node75&#45;&gt;Node79</title>
<path fill="none" stroke="midnightblue" d="M142.37,-161C156.79,-161 172.14,-161 186.92,-161"/>
<polygon fill="midnightblue" stroke="midnightblue" points="142.06,-157.5 132.06,-161 142.06,-164.5 142.06,-157.5"/>
</g>
<!-- Node80 -->
<g id="node6" class="node">
<title>Node80</title>
<g id="a_node6"><a xlink:href="class_ogre_1_1_compositor_chain.html" target="_top" xlink:title="Chain of compositor effects applying to one viewport.">
<polygon fill="none" stroke="black" points="200,-19.5 200,-38.5 330,-38.5 330,-19.5 200,-19.5"/>
<text text-anchor="middle" x="265" y="-26.5" font-family="Helvetica,sans-Serif" font-size="10.00">Ogre::CompositorChain</text>
</a>
</g>
</g>
<!-- Node75&#45;&gt;Node80 -->
<g id="edge5" class="edge">
<title>Node75&#45;&gt;Node80</title>
<path fill="none" stroke="midnightblue" d="M87.81,-143.3C106.08,-118.37 142.81,-73.29 185,-49 192.6,-44.62 201.16,-41.19 209.75,-38.51"/>
<polygon fill="midnightblue" stroke="midnightblue" points="84.91,-141.32 81.93,-151.49 90.6,-145.4 84.91,-141.32"/>
</g>
<!-- Node81 -->
<g id="node7" class="node">
<title>Node81</title>
<g id="a_node7"><a xlink:href="class_ogre_1_1_compositor_instance.html" target="_top" xlink:title="An instance of a Compositor object for one Viewport.">
<polygon fill="none" stroke="black" points="193.5,-107.5 193.5,-126.5 336.5,-126.5 336.5,-107.5 193.5,-107.5"/>
<text text-anchor="middle" x="265" y="-114.5" font-family="Helvetica,sans-Serif" font-size="10.00">Ogre::CompositorInstance</text>
</a>
</g>
</g>
<!-- Node75&#45;&gt;Node81 -->
<g id="edge6" class="edge">
<title>Node75&#45;&gt;Node81</title>
<path fill="none" stroke="midnightblue" d="M126.38,-149.12C156.74,-142.04 194.79,-133.16 223.18,-126.53"/>
<polygon fill="midnightblue" stroke="midnightblue" points="125.34,-145.77 116.4,-151.45 126.94,-152.59 125.34,-145.77"/>
</g>
<!-- Node82 -->
<g id="node8" class="node">
<title>Node82</title>
<g id="a_node8"><a xlink:href="class_ogre_1_1_compositor_instance_1_1_render_system_operation.html" target="_top" xlink:title="Specific render system operation.">
<polygon fill="none" stroke="black" points="193.5,-58 193.5,-88 336.5,-88 336.5,-58 193.5,-58"/>
<text text-anchor="start" x="201.5" y="-76" font-family="Helvetica,sans-Serif" font-size="10.00">Ogre::CompositorInstance</text>
<text text-anchor="middle" x="265" y="-65" font-family="Helvetica,sans-Serif" font-size="10.00">::RenderSystemOperation</text>
</a>
</g>
</g>
<!-- Node75&#45;&gt;Node82 -->
<g id="edge7" class="edge">
<title>Node75&#45;&gt;Node82</title>
<path fill="none" stroke="midnightblue" d="M98.34,-145.91C119.98,-132.09 153.73,-111.75 185,-98 193.16,-94.41 202.01,-91.09 210.72,-88.13"/>
<polygon fill="midnightblue" stroke="midnightblue" points="96.35,-143.03 89.85,-151.39 100.15,-148.91 96.35,-143.03"/>
</g>
<!-- Node460 -->
<g id="node9" class="node">
<title>Node460</title>
<g id="a_node9"><a xlink:href="class_ogre_1_1_render_target_listener.html" target="_top" xlink:title="A interface class defining a listener which can be used to receive notifications of RenderTarget even...">
<polygon fill="none" stroke="black" points="0,-38.5 0,-57.5 149,-57.5 149,-38.5 0,-38.5"/>
<text text-anchor="middle" x="74.5" y="-45.5" font-family="Helvetica,sans-Serif" font-size="10.00">Ogre::RenderTargetListener</text>
</a>
</g>
</g>
<!-- Node460&#45;&gt;Node80 -->
<g id="edge8" class="edge">
<title>Node460&#45;&gt;Node80</title>
<path fill="none" stroke="midnightblue" d="M159.48,-39.54C173.03,-38.17 186.86,-36.78 199.85,-35.47"/>
<polygon fill="midnightblue" stroke="midnightblue" points="158.79,-36.09 149.19,-40.57 159.49,-43.05 158.79,-36.09"/>
</g>
<!-- Node605 -->
<g id="node10" class="node">
<title>Node605</title>
<g id="a_node10"><a xlink:href="class_ogre_1_1_viewport_1_1_listener.html" target="_top" xlink:title="Listener interface so you can be notified of Viewport changes.">
<polygon fill="none" stroke="black" points="7.5,-0.5 7.5,-19.5 141.5,-19.5 141.5,-0.5 7.5,-0.5"/>
<text text-anchor="middle" x="74.5" y="-7.5" font-family="Helvetica,sans-Serif" font-size="10.00">Ogre::Viewport::Listener</text>
</a>
</g>
</g>
<!-- Node605&#45;&gt;Node80 -->
<g id="edge9" class="edge">
<title>Node605&#45;&gt;Node80</title>
<path fill="none" stroke="midnightblue" d="M152.01,-17.71C167.9,-19.31 184.48,-20.98 199.87,-22.54"/>
<polygon fill="midnightblue" stroke="midnightblue" points="151.99,-14.19 141.69,-16.67 151.29,-21.16 151.99,-14.19"/>
</g>
</g>
</svg>
