<?xml version="1.0" encoding="UTF-8" standalone="no"?>
<!DOCTYPE svg PUBLIC "-//W3C//DTD SVG 1.1//EN"
 "http://www.w3.org/Graphics/SVG/1.1/DTD/svg11.dtd">
<!-- Generated by graphviz version 2.43.0 (0)
 -->
<!-- Title: Graphical Class Hierarchy Pages: 1 -->
<svg width="316pt" height="127pt"
 viewBox="0.00 0.00 316.00 126.50" xmlns="http://www.w3.org/2000/svg" xmlns:xlink="http://www.w3.org/1999/xlink">
<g id="graph0" class="graph" transform="scale(1 1) rotate(0) translate(4 122.5)">
<title>Graphical Class Hierarchy</title>
<!-- Node0 -->
<g id="node1" class="node">
<title>Node0</title>
<g id="a_node1"><a xlink:href="class_ogre_1_1_render_queue_listener.html" target="_top" xlink:title="Abstract interface which classes must implement if they wish to receive events from the render queue.">
<polygon fill="none" stroke="black" points="0,-99 0,-118 151,-118 151,-99 0,-99"/>
<text text-anchor="middle" x="75.5" y="-106" font-family="Helvetica,sans-Serif" font-size="10.00">Ogre::RenderQueueListener</text>
</a>
</g>
</g>
<!-- Node1 -->
<g id="node2" class="node">
<title>Node1</title>
<g id="a_node2"><a xlink:href="class_ogre_1_1_overlay_system.html" target="_top" xlink:title="This class simplify initialization / finalization of the overlay system.">
<polygon fill="none" stroke="black" points="187,-55 187,-74 308,-74 308,-55 187,-55"/>
<text text-anchor="middle" x="247.5" y="-62" font-family="Helvetica,sans-Serif" font-size="10.00">Ogre::OverlaySystem</text>
</a>
</g>
</g>
<!-- Node0&#45;&gt;Node1 -->
<g id="edge1" class="edge">
<title>Node0&#45;&gt;Node1</title>
<path fill="none" stroke="midnightblue" d="M123.98,-96.44C132.95,-94.15 142.27,-91.76 151,-89.5 170.58,-84.44 192.4,-78.73 210.24,-74.05"/>
<polygon fill="midnightblue" stroke="midnightblue" points="122.85,-93.11 114.03,-98.98 124.58,-99.9 122.85,-93.11"/>
</g>
<!-- Node457 -->
<g id="node3" class="node">
<title>Node457</title>
<g id="a_node3"><a xlink:href="class_ogre_1_1_render_system_1_1_listener.html" target="_top" xlink:title="Defines a listener on the custom events that this render system can raise.">
<polygon fill="none" stroke="black" points="17,-49.5 17,-79.5 134,-79.5 134,-49.5 17,-49.5"/>
<text text-anchor="start" x="25" y="-67.5" font-family="Helvetica,sans-Serif" font-size="10.00">Ogre::RenderSystem</text>
<text text-anchor="middle" x="75.5" y="-56.5" font-family="Helvetica,sans-Serif" font-size="10.00">::Listener</text>
</a>
</g>
</g>
<!-- Node457&#45;&gt;Node1 -->
<g id="edge2" class="edge">
<title>Node457&#45;&gt;Node1</title>
<path fill="none" stroke="midnightblue" d="M144.21,-64.5C158.35,-64.5 173.16,-64.5 186.98,-64.5"/>
<polygon fill="midnightblue" stroke="midnightblue" points="144.05,-61 134.05,-64.5 144.05,-68 144.05,-61"/>
</g>
<!-- Node825 -->
<g id="node4" class="node">
<title>Node825</title>
<g id="a_node4"><a xlink:href="class_ogre_1_1_singleton.html" target="_top" xlink:title=" ">
<polygon fill="none" stroke="black" points="5,-0.5 5,-30.5 146,-30.5 146,-0.5 5,-0.5"/>
<text text-anchor="start" x="13" y="-18.5" font-family="Helvetica,sans-Serif" font-size="10.00">Ogre::Singleton&lt; Overlay</text>
<text text-anchor="middle" x="75.5" y="-7.5" font-family="Helvetica,sans-Serif" font-size="10.00">System &gt;</text>
</a>
</g>
</g>
<!-- Node825&#45;&gt;Node1 -->
<g id="edge3" class="edge">
<title>Node825&#45;&gt;Node1</title>
<path fill="none" stroke="midnightblue" d="M138.8,-33.46C164.12,-40.75 192.33,-48.89 213.53,-55"/>
<polygon fill="midnightblue" stroke="midnightblue" points="139.47,-30.01 128.89,-30.6 137.53,-36.73 139.47,-30.01"/>
</g>
</g>
</svg>
