<?xml version="1.0" encoding="UTF-8" standalone="no"?>
<!DOCTYPE svg PUBLIC "-//W3C//DTD SVG 1.1//EN"
 "http://www.w3.org/Graphics/SVG/1.1/DTD/svg11.dtd">
<!-- Generated by graphviz version 2.43.0 (0)
 -->
<!-- Title: Graphical Class Hierarchy Pages: 1 -->
<svg width="345pt" height="104pt"
 viewBox="0.00 0.00 345.00 104.00" xmlns="http://www.w3.org/2000/svg" xmlns:xlink="http://www.w3.org/1999/xlink">
<g id="graph0" class="graph" transform="scale(1 1) rotate(0) translate(4 100)">
<title>Graphical Class Hierarchy</title>
<!-- Node146 -->
<g id="node1" class="node">
<title>Node146</title>
<g id="a_node1"><a xlink:title=" ">
<polygon fill="none" stroke="#bfbfbf" points="0,-38.5 0,-57.5 145,-57.5 145,-38.5 0,-38.5"/>
<text text-anchor="middle" x="72.5" y="-45.5" font-family="Helvetica,sans-Serif" font-size="10.00">GLRenderSystemCommon</text>
</a>
</g>
</g>
<!-- Node0 -->
<g id="node2" class="node">
<title>Node0</title>
<g id="a_node2"><a xlink:href="class_ogre_1_1_g_l3_plus_render_system.html" target="_top" xlink:title="Implementation of GL 3 as a rendering system.">
<polygon fill="none" stroke="black" points="181,-76.5 181,-95.5 337,-95.5 337,-76.5 181,-76.5"/>
<text text-anchor="middle" x="259" y="-83.5" font-family="Helvetica,sans-Serif" font-size="10.00">Ogre::GL3PlusRenderSystem</text>
</a>
</g>
</g>
<!-- Node146&#45;&gt;Node0 -->
<g id="edge1" class="edge">
<title>Node146&#45;&gt;Node0</title>
<path fill="none" stroke="midnightblue" d="M129.87,-59.61C156.11,-65.01 186.94,-71.36 211.78,-76.48"/>
<polygon fill="midnightblue" stroke="midnightblue" points="130.56,-56.18 120.06,-57.59 129.15,-63.03 130.56,-56.18"/>
</g>
<!-- Node148 -->
<g id="node3" class="node">
<title>Node148</title>
<g id="a_node3"><a xlink:href="class_ogre_1_1_g_l_e_s2_render_system.html" target="_top" xlink:title="Implementation of GL ES 2.x as a rendering system.">
<polygon fill="none" stroke="black" points="185,-38.5 185,-57.5 333,-57.5 333,-38.5 185,-38.5"/>
<text text-anchor="middle" x="259" y="-45.5" font-family="Helvetica,sans-Serif" font-size="10.00">Ogre::GLES2RenderSystem</text>
</a>
</g>
</g>
<!-- Node146&#45;&gt;Node148 -->
<g id="edge2" class="edge">
<title>Node146&#45;&gt;Node148</title>
<path fill="none" stroke="midnightblue" d="M155.3,-48C165.17,-48 175.19,-48 184.92,-48"/>
<polygon fill="midnightblue" stroke="midnightblue" points="155.1,-44.5 145.1,-48 155.1,-51.5 155.1,-44.5"/>
</g>
<!-- Node149 -->
<g id="node4" class="node">
<title>Node149</title>
<g id="a_node4"><a xlink:href="class_ogre_1_1_g_l_render_system.html" target="_top" xlink:title="Implementation of GL as a rendering system.">
<polygon fill="none" stroke="black" points="194,-0.5 194,-19.5 324,-19.5 324,-0.5 194,-0.5"/>
<text text-anchor="middle" x="259" y="-7.5" font-family="Helvetica,sans-Serif" font-size="10.00">Ogre::GLRenderSystem</text>
</a>
</g>
</g>
<!-- Node146&#45;&gt;Node149 -->
<g id="edge3" class="edge">
<title>Node146&#45;&gt;Node149</title>
<path fill="none" stroke="midnightblue" d="M129.87,-36.39C156.11,-30.99 186.94,-24.64 211.78,-19.52"/>
<polygon fill="midnightblue" stroke="midnightblue" points="129.15,-32.97 120.06,-38.41 130.56,-39.82 129.15,-32.97"/>
</g>
</g>
</svg>
