<?xml version="1.0" encoding="UTF-8" standalone="no"?>
<!DOCTYPE svg PUBLIC "-//W3C//DTD SVG 1.1//EN"
 "http://www.w3.org/Graphics/SVG/1.1/DTD/svg11.dtd">
<!-- Generated by graphviz version 2.43.0 (0)
 -->
<!-- Title: Graphical Class Hierarchy Pages: 1 -->
<svg width="465pt" height="85pt"
 viewBox="0.00 0.00 465.00 85.00" xmlns="http://www.w3.org/2000/svg" xmlns:xlink="http://www.w3.org/1999/xlink">
<g id="graph0" class="graph" transform="scale(1 1) rotate(0) translate(4 81)">
<title>Graphical Class Hierarchy</title>
<!-- Node109 -->
<g id="node1" class="node">
<title>Node109</title>
<g id="a_node1"><a xlink:title=" ">
<polygon fill="none" stroke="#bfbfbf" points="0,-19.5 0,-38.5 77,-38.5 77,-19.5 0,-19.5"/>
<text text-anchor="middle" x="38.5" y="-26.5" font-family="Helvetica,sans-Serif" font-size="10.00">FactoryAlloc</text>
</a>
</g>
</g>
<!-- Node0 -->
<g id="node2" class="node">
<title>Node0</title>
<g id="a_node2"><a xlink:href="class_ogre_1_1_gpu_program_factory.html" target="_top" xlink:title="Interface definition for factories of GpuProgram.">
<polygon fill="none" stroke="black" points="113,-38.5 113,-57.5 256,-57.5 256,-38.5 113,-38.5"/>
<text text-anchor="middle" x="184.5" y="-45.5" font-family="Helvetica,sans-Serif" font-size="10.00">Ogre::GpuProgramFactory</text>
</a>
</g>
</g>
<!-- Node109&#45;&gt;Node0 -->
<g id="edge1" class="edge">
<title>Node109&#45;&gt;Node0</title>
<path fill="none" stroke="midnightblue" d="M87.38,-35.32C95.54,-36.39 104.16,-37.53 112.76,-38.67"/>
<polygon fill="midnightblue" stroke="midnightblue" points="87.71,-31.83 77.33,-33.99 86.79,-38.77 87.71,-31.83"/>
</g>
<!-- Node113 -->
<g id="node5" class="node">
<title>Node113</title>
<g id="a_node5"><a xlink:href="class_ogre_1_1_instance_manager.html" target="_top" xlink:title="This is the main starting point for the new instancing system.">
<polygon fill="none" stroke="black" points="119.5,-0.5 119.5,-19.5 249.5,-19.5 249.5,-0.5 119.5,-0.5"/>
<text text-anchor="middle" x="184.5" y="-7.5" font-family="Helvetica,sans-Serif" font-size="10.00">Ogre::InstanceManager</text>
</a>
</g>
</g>
<!-- Node109&#45;&gt;Node113 -->
<g id="edge4" class="edge">
<title>Node109&#45;&gt;Node113</title>
<path fill="none" stroke="midnightblue" d="M87.34,-22.69C97.64,-21.33 108.67,-19.87 119.47,-18.45"/>
<polygon fill="midnightblue" stroke="midnightblue" points="86.79,-19.23 77.33,-24.01 87.71,-26.17 86.79,-19.23"/>
</g>
<!-- Node1 -->
<g id="node3" class="node">
<title>Node1</title>
<g id="a_node3"><a xlink:href="class_ogre_1_1_cg_program_factory.html" target="_top" xlink:title="Factory class for Cg programs.">
<polygon fill="none" stroke="black" points="306.5,-57.5 306.5,-76.5 442.5,-76.5 442.5,-57.5 306.5,-57.5"/>
<text text-anchor="middle" x="374.5" y="-64.5" font-family="Helvetica,sans-Serif" font-size="10.00">Ogre::CgProgramFactory</text>
</a>
</g>
</g>
<!-- Node0&#45;&gt;Node1 -->
<g id="edge2" class="edge">
<title>Node0&#45;&gt;Node1</title>
<path fill="none" stroke="midnightblue" d="M266.18,-56.15C279.56,-57.51 293.3,-58.89 306.3,-60.21"/>
<polygon fill="midnightblue" stroke="midnightblue" points="266.34,-52.65 256.04,-55.13 265.64,-59.62 266.34,-52.65"/>
</g>
<!-- Node2 -->
<g id="node4" class="node">
<title>Node2</title>
<g id="a_node4"><a xlink:href="class_ogre_1_1_g_l_s_lang_program_factory.html" target="_top" xlink:title="Factory class for GLSLang programs.">
<polygon fill="none" stroke="black" points="292,-19.5 292,-38.5 457,-38.5 457,-19.5 292,-19.5"/>
<text text-anchor="middle" x="374.5" y="-26.5" font-family="Helvetica,sans-Serif" font-size="10.00">Ogre::GLSLangProgramFactory</text>
</a>
</g>
</g>
<!-- Node0&#45;&gt;Node2 -->
<g id="edge3" class="edge">
<title>Node0&#45;&gt;Node2</title>
<path fill="none" stroke="midnightblue" d="M265.99,-39.87C274.54,-39 283.24,-38.12 291.81,-37.26"/>
<polygon fill="midnightblue" stroke="midnightblue" points="265.64,-36.38 256.04,-40.87 266.34,-43.35 265.64,-36.38"/>
</g>
</g>
</svg>
